<svg width="18" height="18" viewBox="0 0 18 18" fill="none" xmlns="http://www.w3.org/2000/svg">
<path d="M3.84838 8.57988L8.57971 3.84926L7.02862 2.29816L4.86018 4.4666C4.83432 4.49251 4.8036 4.51307 4.76979 4.52709C4.73598 4.54112 4.69973 4.54833 4.66313 4.54833C4.62652 4.54833 4.59028 4.54112 4.55646 4.52709C4.52265 4.51307 4.49194 4.49251 4.46608 4.4666L4.07197 4.0725C3.96299 3.96352 3.96299 3.78703 4.07197 3.6784L6.24041 1.50996L5.05776 0.326953C4.62217 -0.108633 3.91623 -0.108633 3.48065 0.326953L0.326779 3.48082C-0.108455 3.91641 -0.108807 4.62234 0.326779 5.05793L3.84838 8.57988ZM17.5055 4.47363C18.1651 3.8141 18.1647 2.745 17.5055 2.08547L15.9147 0.494648C15.2552 -0.164883 14.1857 -0.164883 13.5258 0.494648L11.908 2.11219L15.8876 6.09188L17.5055 4.47363ZM11.1124 2.90812L0.670959 13.3481L0.0114279 17.1253C-0.0775175 17.6347 0.366154 18.0784 0.87592 17.9888L4.65346 17.3264L15.0921 6.88746L11.1124 2.90812ZM17.6736 12.9428L16.4909 11.7601L14.3225 13.9286C14.2135 14.0375 14.037 14.0375 13.9284 13.9286L13.5343 13.5345C13.4256 13.4255 13.4256 13.249 13.5343 13.1404L15.7027 10.9719L14.1509 9.42012L9.41959 14.1507L12.9426 17.6734C13.3782 18.109 14.0841 18.109 14.5197 17.6734L17.6736 14.5199C18.1092 14.0843 18.1092 13.3784 17.6736 12.9428Z" fill="#C0C4C6"/>
</svg>
