<svg width="17" height="21" viewBox="0 0 17 21" fill="none" xmlns="http://www.w3.org/2000/svg">
<path d="M8.25006 0C6.0628 0.00258037 3.96587 0.872608 2.41924 2.41923C0.872617 3.96586 0.00258915 6.06279 8.77722e-06 8.25005C-0.00261091 10.0375 0.581248 11.7764 1.66202 13.2001C1.66202 13.2001 1.88702 13.4963 1.92377 13.5391L8.25006 21.0001L14.5793 13.5353C14.6123 13.4956 14.8381 13.2001 14.8381 13.2001L14.8388 13.1978C15.9191 11.7748 16.5027 10.0367 16.5001 8.25005C16.4975 6.06279 15.6275 3.96586 14.0809 2.41923C12.5342 0.872608 10.4373 0.00258037 8.25006 0ZM8.25006 11.2501C7.65671 11.2501 7.07669 11.0741 6.58334 10.7445C6.08999 10.4148 5.70547 9.94629 5.4784 9.39811C5.25134 8.84992 5.19193 8.24672 5.30768 7.66477C5.42344 7.08283 5.70916 6.54827 6.12872 6.12872C6.54828 5.70916 7.08284 5.42343 7.66478 5.30767C8.24673 5.19192 8.84993 5.25133 9.39811 5.47839C9.9463 5.70546 10.4148 6.08998 10.7445 6.58333C11.0741 7.07668 11.2501 7.6567 11.2501 8.25005C11.2491 9.0454 10.9327 9.80789 10.3703 10.3703C9.8079 10.9327 9.04541 11.2491 8.25006 11.2501Z" fill="#C0C4C6"/>
</svg>
