<svg width="14" height="10" viewBox="0 0 14 10" fill="none" xmlns="http://www.w3.org/2000/svg">
<path d="M13.4998 0H0.499992C0.223434 0 0 0.198972 0 0.445251V2.67151H13.9998V0.445251C13.9998 0.198972 13.7763 0 13.4998 0ZM0 9.35027C0 9.59655 0.223434 9.79552 0.499992 9.79552H13.4998C13.7763 9.79552 13.9998 9.59655 13.9998 9.35027V3.89595H0V9.35027ZM9.04673 6.79008C9.04673 6.72886 9.10298 6.67877 9.17173 6.67877H11.7498C11.8186 6.67877 11.8748 6.72886 11.8748 6.79008V7.79189C11.8748 7.85312 11.8186 7.90321 11.7498 7.90321H9.17173C9.10298 7.90321 9.04673 7.85312 9.04673 7.79189V6.79008Z" fill="#C0C4C6"/>
</svg>
