<svg width="19" height="21" viewBox="0 0 19 21" fill="none" xmlns="http://www.w3.org/2000/svg">
<path d="M0 2.45C0 1.0976 1.0976 0 2.45 0H11.55C12.9024 0 14 1.0976 14 2.45V7.2898C12.4203 6.84132 10.7386 6.90962 9.20043 7.48472C7.66229 8.05982 6.34829 9.11161 5.45031 10.4865C4.55234 11.8613 4.11743 13.4873 4.20909 15.1269C4.30075 16.7664 4.91418 18.3338 5.9598 19.6H2.45C1.80022 19.6 1.17705 19.3419 0.717589 18.8824C0.258124 18.4229 0 17.7998 0 17.15V2.45ZM4.2 11.2C4.5713 11.2 4.9274 11.0525 5.18995 10.7899C5.4525 10.5274 5.6 10.1713 5.6 9.8C5.6 9.4287 5.4525 9.0726 5.18995 8.81005C4.9274 8.5475 4.5713 8.4 4.2 8.4C3.8287 8.4 3.4726 8.5475 3.21005 8.81005C2.9475 9.0726 2.8 9.4287 2.8 9.8C2.8 10.1713 2.9475 10.5274 3.21005 10.7899C3.4726 11.0525 3.8287 11.2 4.2 11.2Z" fill="#6E768C"/>
<path d="M12.5761 21C14.247 21 15.8494 20.3363 17.0309 19.1548C18.2124 17.9733 18.8761 16.3709 18.8761 14.7C18.8761 13.0291 18.2124 11.4267 17.0309 10.2452C15.8494 9.06375 14.247 8.4 12.5761 8.4C10.9053 8.4 9.30284 9.06375 8.12136 10.2452C6.93989 11.4267 6.27614 13.0291 6.27614 14.7C6.27614 16.3709 6.93989 17.9733 8.12136 19.1548C9.30284 20.3363 10.9053 21 12.5761 21ZM13.0717 17.9956C12.9403 18.127 12.762 18.2009 12.5761 18.2009C12.3903 18.2009 12.212 18.127 12.0805 17.9956C11.9491 17.8642 11.8753 17.6859 11.8753 17.5C11.8753 17.3141 11.9491 17.1358 12.0805 17.0044L13.6863 15.4H9.77614C9.59048 15.4 9.41244 15.3263 9.28116 15.195C9.14989 15.0637 9.07614 14.8857 9.07614 14.7C9.07614 14.5143 9.14989 14.3363 9.28116 14.205C9.41244 14.0737 9.59048 14 9.77614 14H13.6863L12.0805 12.3956C11.9491 12.2642 11.8753 12.0859 11.8753 11.9C11.8753 11.7141 11.9491 11.5358 12.0805 11.4044C12.212 11.273 12.3903 11.1991 12.5761 11.1991C12.762 11.1991 12.9403 11.273 13.0717 11.4044L15.8717 14.2044C16.0019 14.3349 16.0754 14.5115 16.0761 14.6958V14.7042C16.075 14.8867 16.0027 15.0615 15.8745 15.1914L15.8703 15.1956L13.0703 17.9956H13.0717Z" fill="#DC6470"/>
</svg>
