<svg width="30" height="24" viewBox="0 0 30 24" fill="none" xmlns="http://www.w3.org/2000/svg">
<path d="M16.1963 10.3067C16.5868 10.3067 16.9613 10.4619 17.2375 10.738C17.5136 11.0141 17.6687 11.3886 17.6687 11.7791C17.6687 12.1696 17.5136 12.5442 17.2375 12.8203C16.9613 13.0964 16.5868 13.2515 16.1963 13.2515C15.8058 13.2515 15.4313 13.0964 15.1552 12.8203C14.8791 12.5442 14.7239 12.1696 14.7239 11.7791C14.7239 11.3886 14.8791 11.0141 15.1552 10.738C15.4313 10.4619 15.8058 10.3067 16.1963 10.3067ZM8.62822 3.31288C9.59282 2.26834 10.7632 1.43477 12.0657 0.864618C13.3681 0.294468 14.7745 8.69721e-05 16.1963 0C21.3497 0 25.6785 3.84294 26.4 8.83436H29.4479V11.7791H20.6135C20.6135 10.6076 20.1481 9.48411 19.3197 8.65572C18.4914 7.82734 17.3678 7.36196 16.1963 7.36196C15.0248 7.36196 13.9013 7.82734 13.0729 8.65572C12.2445 9.48411 11.7791 10.6076 11.7791 11.7791H0V8.83436H0.0736196C0.368098 5.49202 1.67853 2.44417 3.68098 0L8.62822 3.31288ZM6.96442 5.72761L4.50552 4.07853C3.72515 5.52147 3.20982 7.12638 3.03313 8.83436H5.99264C6.1546 7.73006 6.47853 6.68466 6.96442 5.72761ZM7.95092 16.7853L5.88957 14.7239H14.4147C14.7681 15.3423 15.4601 15.7546 16.1963 15.7546C16.9325 15.7546 17.6245 15.3423 17.9779 14.7239H26.5031V16.7853C24.1325 15.3423 24.2356 17.3006 24.2356 17.3006V20.1865L21.3497 23.0724C20.6135 20.4957 19.2883 21.9387 19.2883 21.9387L17.227 24H13.1043C14.5472 21.6294 12.589 21.7325 12.589 21.7325H9.70307L6.81718 18.8466C9.39387 18.1252 7.95092 16.7853 7.95092 16.7853Z" fill="#6E768C"/>
</svg>
