<svg width="23" height="23" viewBox="0 0 23 23" fill="none" xmlns="http://www.w3.org/2000/svg">
<path d="M11.5244 22.7051C8.56701 22.7026 5.72356 21.5792 3.58153 19.5672C1.4395 17.5551 0.162539 14.808 0.0144767 11.8934C-0.133586 8.97884 0.858557 6.11951 2.78593 3.90614C4.71331 1.69276 7.42865 0.294461 10.371 0.00012207V4.59825C9.11985 4.80711 7.9511 5.3517 6.99275 6.17237C6.0344 6.99303 5.32343 8.05812 4.9377 9.25097C4.55198 10.4438 4.50638 11.7184 4.80591 12.9351C5.10544 14.1518 5.73854 15.2637 6.63586 16.149C7.53318 17.0343 8.66011 17.6589 9.8932 17.9543C11.1263 18.2497 12.418 18.2045 13.6268 17.8237C14.8356 17.4429 15.9149 16.7412 16.7465 15.7954C17.578 14.8497 18.1297 13.6963 18.3412 12.4617H22.9999C22.7103 15.2677 21.3766 17.868 19.2568 19.76C17.137 21.652 14.3827 22.7013 11.5244 22.7051Z" fill="#6E768C"/>
<path d="M23.0029 10.1853H18.3431C18.1036 8.78917 17.4297 7.50118 16.4149 6.50002C15.4001 5.49886 14.0946 4.83416 12.6797 4.59813V0C15.325 0.266979 17.7961 1.42568 19.6765 3.2808C21.557 5.13592 22.7318 7.57402 23.0029 10.1842V10.1853Z" fill="#8EC957"/>
</svg>
