<svg width="19" height="19" viewBox="0 0 19 19" fill="none" xmlns="http://www.w3.org/2000/svg">
<g clip-path="url(#clip0_358_4058)">
<path fill-rule="evenodd" clip-rule="evenodd" d="M18.3582 10.5612L8.46277 0.646798C7.58402 -0.231952 6.12696 -0.201077 5.20902 0.719236L5.10333 0.824923L5.06296 0.784548C4.04765 -0.231952 2.35902 -0.190389 1.29146 0.878361L0.988648 1.18236C-0.078915 2.24992 -0.11929 3.94092 0.896022 4.95742L0.937585 4.99899L0.741647 5.19611C-0.17629 6.11405 -0.20954 7.57349 0.670398 8.45461L10.5658 18.369C11.4446 19.249 12.904 19.2169 13.8196 18.2978L18.2881 13.8209C19.2073 12.9006 19.2381 11.4424 18.3582 10.5612ZM4.07615 6.13661C3.04777 6.13661 2.21533 5.26499 2.21296 4.18792C2.21296 3.11205 3.04777 2.24042 4.07615 2.24042C5.10452 2.24042 5.9334 3.11324 5.93696 4.18792C5.9334 5.26499 5.10215 6.13661 4.07615 6.13661ZM14.7648 15.5285L13.4776 14.2401C12.7033 14.7899 11.7331 14.9633 10.8841 14.67C10.7873 14.6376 10.6981 14.5858 10.6219 14.5179C10.5458 14.4499 10.4843 14.3671 10.4411 14.2745C10.3959 14.1793 10.3705 14.0759 10.3664 13.9706C10.3624 13.8653 10.3797 13.7602 10.4174 13.6618C10.4907 13.465 10.6374 13.3043 10.8268 13.2135C11.0162 13.1227 11.2334 13.1088 11.4327 13.1749C11.7153 13.2723 12.0383 13.2307 12.3364 13.0942L10.8485 11.6003C9.71677 12.4102 8.2134 12.3864 7.29546 11.4709C6.37158 10.5482 6.3514 9.04005 7.17196 7.91074L5.91084 6.64842L6.65777 5.90149L7.92721 7.16617C8.70858 6.61874 9.67996 6.44536 10.5302 6.73986C10.6282 6.77396 10.7183 6.82747 10.7952 6.89718C10.872 6.9669 10.934 7.05139 10.9775 7.14562C11.0209 7.23984 11.0449 7.34186 11.0481 7.44557C11.0512 7.54928 11.0334 7.65256 10.9957 7.74924C10.9205 7.94509 10.773 8.10463 10.5837 8.19499C10.3944 8.28535 10.1776 8.29964 9.97802 8.23492C9.6954 8.13636 9.37477 8.17674 9.0779 8.30974L10.5765 9.80242C11.7011 9.01274 13.1866 9.0448 14.0975 9.95442C15.0083 10.8652 15.0439 12.3449 14.2554 13.4635L15.5379 14.7412L14.7648 15.5285Z" fill="white"/>
<path fill-rule="evenodd" clip-rule="evenodd" d="M8.45936 10.357C8.77761 10.6741 9.28824 10.7073 9.74305 10.4841L8.3323 9.06738C8.10786 9.52457 8.13992 10.0376 8.45936 10.357Z" fill="white"/>
<path fill-rule="evenodd" clip-rule="evenodd" d="M12.9706 11.1042C12.6642 10.7966 12.1773 10.7575 11.7344 10.957L13.119 12.3368C13.3173 11.8963 13.2769 11.4094 12.9706 11.1042Z" fill="white"/>
</g>
<defs>
<clipPath id="clip0_358_4058">
<rect width="19" height="19" fill="white"/>
</clipPath>
</defs>
</svg>
