<svg width="24" height="24" viewBox="0 0 24 24" fill="none" xmlns="http://www.w3.org/2000/svg">
<path d="M15.2969 11.1C15.0582 11.1 14.8293 11.0052 14.6605 10.8364C14.4917 10.6676 14.3969 10.4387 14.3969 10.2C14.3969 9.96133 14.4917 9.73241 14.6605 9.56363C14.8293 9.39485 15.0582 9.30002 15.2969 9.30002C15.5356 9.30002 15.7645 9.39485 15.9333 9.56363C16.1021 9.73241 16.1969 9.96133 16.1969 10.2C16.1969 10.4387 16.1021 10.6676 15.9333 10.8364C15.7645 11.0052 15.5356 11.1 15.2969 11.1ZM15.2969 14.7C15.0582 14.7 14.8293 14.6052 14.6605 14.4364C14.4917 14.2676 14.3969 14.0387 14.3969 13.8C14.3969 13.5613 14.4917 13.3324 14.6605 13.1636C14.8293 12.9948 15.0582 12.9 15.2969 12.9C15.5356 12.9 15.7645 12.9948 15.9333 13.1636C16.1021 13.3324 16.1969 13.5613 16.1969 13.8C16.1969 14.0387 16.1021 14.2676 15.9333 14.4364C15.7645 14.6052 15.5356 14.7 15.2969 14.7ZM14.3969 17.4C14.3969 17.6387 14.4917 17.8676 14.6605 18.0364C14.8293 18.2052 15.0582 18.3 15.2969 18.3C15.5356 18.3 15.7645 18.2052 15.9333 18.0364C16.1021 17.8676 16.1969 17.6387 16.1969 17.4C16.1969 17.1613 16.1021 16.9324 15.9333 16.7636C15.7645 16.5948 15.5356 16.5 15.2969 16.5C15.0582 16.5 14.8293 16.5948 14.6605 16.7636C14.4917 16.9324 14.3969 17.1613 14.3969 17.4ZM13.1969 10.2C13.1969 10.0409 13.1337 9.88828 13.0211 9.77576C12.9086 9.66324 12.756 9.60002 12.5969 9.60002H8.39688C8.23775 9.60002 8.08513 9.66324 7.97261 9.77576C7.86009 9.88828 7.79688 10.0409 7.79688 10.2C7.79688 10.3592 7.86009 10.5118 7.97261 10.6243C8.08513 10.7368 8.23775 10.8 8.39688 10.8H12.5969C12.756 10.8 12.9086 10.7368 13.0211 10.6243C13.1337 10.5118 13.1969 10.3592 13.1969 10.2ZM13.1969 13.8C13.1969 13.6409 13.1337 13.4883 13.0211 13.3758C12.9086 13.2632 12.756 13.2 12.5969 13.2H8.39688C8.23775 13.2 8.08513 13.2632 7.97261 13.3758C7.86009 13.4883 7.79688 13.6409 7.79688 13.8C7.79688 13.9592 7.86009 14.1118 7.97261 14.2243C8.08513 14.3368 8.23775 14.4 8.39688 14.4H12.5969C12.756 14.4 12.9086 14.3368 13.0211 14.2243C13.1337 14.1118 13.1969 13.9592 13.1969 13.8ZM13.1969 17.4C13.1969 17.2409 13.1337 17.0883 13.0211 16.9758C12.9086 16.8632 12.756 16.8 12.5969 16.8H8.39688C8.23775 16.8 8.08513 16.8632 7.97261 16.9758C7.86009 17.0883 7.79688 17.2409 7.79688 17.4C7.79688 17.5592 7.86009 17.7118 7.97261 17.8243C8.08513 17.9368 8.23775 18 8.39688 18H12.5969C12.756 18 12.9086 17.9368 13.0211 17.8243C13.1337 17.7118 13.1969 17.5592 13.1969 17.4ZM10.1969 2.40002C9.82448 2.39983 9.4612 2.51514 9.15709 2.73006C8.85297 2.94498 8.62301 3.24893 8.49888 3.60002H6.59688C6.11949 3.60002 5.66165 3.78967 5.32408 4.12723C4.98652 4.4648 4.79688 4.92263 4.79688 5.40002V19.8C4.79688 20.2774 4.98652 20.7352 5.32408 21.0728C5.66165 21.4104 6.11949 21.6 6.59688 21.6H17.3969C17.8743 21.6 18.3321 21.4104 18.6697 21.0728C19.0072 20.7352 19.1969 20.2774 19.1969 19.8V5.40002C19.1969 4.92263 19.0072 4.4648 18.6697 4.12723C18.3321 3.78967 17.8743 3.60002 17.3969 3.60002H15.4949C15.3707 3.24893 15.1408 2.94498 14.8367 2.73006C14.5326 2.51514 14.1693 2.39983 13.7969 2.40002H10.1969ZM9.59688 4.20002C9.59688 4.04089 9.66009 3.88828 9.77261 3.77576C9.88513 3.66324 10.0377 3.60002 10.1969 3.60002H13.7969C13.956 3.60002 14.1086 3.66324 14.2211 3.77576C14.3337 3.88828 14.3969 4.04089 14.3969 4.20002C14.3969 4.35915 14.3337 4.51177 14.2211 4.62429C14.1086 4.73681 13.956 4.80002 13.7969 4.80002H10.1969C10.0377 4.80002 9.88513 4.73681 9.77261 4.62429C9.66009 4.51177 9.59688 4.35915 9.59688 4.20002ZM6.59688 4.80002H8.49888C8.62301 5.15112 8.85297 5.45507 9.15709 5.66999C9.4612 5.88491 9.82448 6.00022 10.1969 6.00002H13.7969C14.1693 6.00022 14.5326 5.88491 14.8367 5.66999C15.1408 5.45507 15.3707 5.15112 15.4949 4.80002H17.3969C17.556 4.80002 17.7086 4.86324 17.8211 4.97576C17.9337 5.08828 17.9969 5.24089 17.9969 5.40002V19.8C17.9969 19.9592 17.9337 20.1118 17.8211 20.2243C17.7086 20.3368 17.556 20.4 17.3969 20.4H6.59688C6.43775 20.4 6.28513 20.3368 6.17261 20.2243C6.06009 20.1118 5.99688 19.9592 5.99688 19.8V5.40002C5.99688 5.24089 6.06009 5.08828 6.17261 4.97576C6.28513 4.86324 6.43775 4.80002 6.59688 4.80002Z" fill="#6E768C"/>
</svg>
