<svg width="19" height="19" viewBox="0 0 19 19" fill="none" xmlns="http://www.w3.org/2000/svg">
<path d="M18.276 10.3719L11.2625 13.8787C10.7677 14.1261 10.1802 14.2498 9.49983 14.2498C8.81951 14.2498 8.23195 14.1261 7.73717 13.8787L0.72362 10.3719C0.241207 10.1245 0 9.83072 0 9.49056C0 9.15039 0.241207 8.85662 0.72362 8.60923L2.54195 7.71862L3.84075 8.36802L1.18748 9.49983L9.49983 13.0623L17.8122 9.49983L15.1589 8.36802L16.4577 7.71862L18.276 8.60923C18.7585 8.85662 18.9997 9.15039 18.9997 9.49056C18.9997 9.83072 18.7585 10.1245 18.276 10.3719ZM18.276 5.62197L11.2625 9.12875C10.7677 9.37614 10.1802 9.49983 9.49983 9.49983C8.81951 9.49983 8.23195 9.37614 7.73717 9.12875L0.72362 5.62197C0.241207 5.37458 0 5.0808 0 4.74064C0 4.40048 0.241207 4.1067 0.72362 3.85931L7.73717 0.352533C8.23195 0.117511 8.81951 0 9.49983 0C10.1802 0 10.7677 0.117511 11.2625 0.352533L18.276 3.85931C18.7585 4.1067 18.9997 4.40048 18.9997 4.74064C18.9997 5.0808 18.7585 5.37458 18.276 5.62197ZM0.72362 13.3777L2.54195 12.4685L3.84075 13.1179L1.18748 14.2498L9.49983 17.8122L17.8122 14.2498L15.1589 13.1179L16.4577 12.4685L18.276 13.3777C18.7585 13.6127 18.9997 13.9034 18.9997 14.2498C18.9997 14.5961 18.7585 14.8868 18.276 15.1218L11.2625 18.6286C10.7677 18.876 10.1802 18.9997 9.49983 18.9997C8.81951 18.9997 8.23195 18.876 7.73717 18.6286L0.72362 15.1218C0.241207 14.8868 0 14.5961 0 14.2498C0 13.9034 0.241207 13.6127 0.72362 13.3777Z" fill="white"/>
</svg>
