<svg width="20" height="20" viewBox="0 0 20 20" fill="none" xmlns="http://www.w3.org/2000/svg">
<path fill-rule="evenodd" clip-rule="evenodd" d="M14.2858 5.62774V8.44149H12.8572V7.03461H8.57147C8.19294 7.0335 7.83023 6.88492 7.56257 6.62132C7.2949 6.35772 7.14403 6.00052 7.1429 5.62774V1.40711H1.42858V18.2896H12.8572V19.6965H1.42858C1.0497 19.6965 0.686332 19.5483 0.418421 19.2844C0.150511 19.0206 0 18.6627 0 18.2896V1.40711C0.00113053 1.03433 0.152004 0.677132 0.41967 0.413533C0.687336 0.149934 1.05004 0.00135255 1.42858 0.000239197H8.57147C8.66536 -0.00229027 8.75868 0.0152672 8.845 0.0517006C8.93132 0.088134 9.00859 0.142576 9.07148 0.21127L14.0715 5.13533C14.1412 5.19729 14.1965 5.27339 14.2335 5.3584C14.2705 5.4434 14.2883 5.53529 14.2858 5.62774ZM8.57147 1.68849V5.62774H12.5715L8.57147 1.68849ZM6.42821 9.84837H2.85676V16.8827H4.28534V14.7724H6.42821C6.80692 14.7719 7.16995 14.6235 7.43774 14.3598C7.70553 14.096 7.85622 13.7385 7.85679 13.3656V11.2552C7.85641 10.8822 7.70578 10.5246 7.43795 10.2608C7.17012 9.99709 6.80698 9.84874 6.42821 9.84837ZM4.28534 13.3656V11.2552H6.42821L6.42892 13.3656H4.28534ZM9.28537 16.8827H12.1425C12.7107 16.8822 13.2554 16.6597 13.6571 16.264C14.0589 15.8684 14.2848 15.332 14.2854 14.7724V11.9587C14.2848 11.3992 14.0589 10.8627 13.6571 10.4671C13.2554 10.0714 12.7107 9.84893 12.1425 9.84837H9.28537V16.8827ZM12.1425 15.4759H10.7139V11.2552H12.1425C12.3319 11.2554 12.5135 11.3296 12.6474 11.4615C12.7813 11.5934 12.8566 11.7722 12.8568 11.9587V14.7724C12.8566 14.9589 12.7813 15.1378 12.6474 15.2696C12.5135 15.4015 12.3319 15.4757 12.1425 15.4759ZM19.9997 9.84837V11.2552H17.1426V12.6621H19.2854V14.069H17.1426V16.8827H15.714V9.84837H19.9997Z" fill="white"/>
</svg>
