<svg width="29" height="26" viewBox="0 0 29 26" fill="none" xmlns="http://www.w3.org/2000/svg">
<path d="M18.8299 21.7401L22.4715 18.0986L18.8299 14.457" stroke="white" stroke-width="1.2" stroke-linecap="round" stroke-linejoin="round"/>
<path d="M24.6498 21.7401L28.2914 18.0986L24.6498 14.457" stroke="white" stroke-width="1.2" stroke-linecap="round" stroke-linejoin="round"/>
<path d="M28.2966 11.5434V2.07529C28.2966 1.68897 28.1431 1.31847 27.87 1.0453C27.5968 0.772129 27.2263 0.618664 26.84 0.618664H2.07731C1.69099 0.618664 1.32049 0.772129 1.04732 1.0453C0.774145 1.31847 0.620679 1.68897 0.620679 2.07529V23.9247C0.620679 24.311 0.774145 24.6815 1.04732 24.9547C1.32049 25.2279 1.69099 25.3813 2.07731 25.3813H17.7142" stroke="white" stroke-width="1.2" stroke-linecap="round" stroke-linejoin="round"/>
<mask id="path-4-inside-1_357_4332" fill="white">
<path d="M14.46 15.8193L14.4607 15.8863C14.4619 16.8142 14.1143 17.7087 13.487 18.3924L13.4891 18.3895C12.8356 19.1093 11.9518 19.579 10.9896 19.718L10.967 19.7209V21.4397C10.967 21.5195 10.9353 21.596 10.8789 21.6524C10.8225 21.7088 10.746 21.7405 10.6662 21.7405H10.6538H10.6545H9.33848C9.25591 21.7395 9.17699 21.7063 9.11859 21.6479C9.0602 21.5895 9.02698 21.5106 9.02604 21.428V19.7209C8.58715 19.6622 8.1559 19.5563 7.73983 19.4048L7.7828 19.4186C7.16132 19.2107 6.57819 18.9022 6.0567 18.5053L6.07127 18.5162C5.91198 18.401 5.75906 18.2773 5.61316 18.1455L5.61825 18.1499C5.53717 18.0722 5.48036 18.0139 5.44783 17.9751C5.39517 17.9227 5.36409 17.8525 5.36072 17.7784C5.35734 17.7042 5.38193 17.6314 5.42962 17.5745L5.42889 17.5753L6.43324 16.2585C6.45992 16.2241 6.49371 16.1959 6.5323 16.1758C6.57089 16.1557 6.61337 16.1441 6.65683 16.1419H6.65756C6.70075 16.134 6.74528 16.138 6.78636 16.1536C6.82743 16.1691 6.86348 16.1955 6.89062 16.2301L6.89135 16.2308L6.91028 16.2497C7.5688 16.8527 8.37473 17.2712 9.24671 17.4631L9.28022 17.4697C9.49725 17.5192 9.74634 17.5476 10.002 17.5476L10.0471 17.5483C10.5504 17.5483 11.0165 17.391 11.4003 17.123L11.3923 17.1281C11.5859 16.9972 11.7427 16.8189 11.8478 16.6102C11.9529 16.4014 12.0027 16.1693 11.9925 15.9358V15.9387C11.9925 15.7472 11.9378 15.5688 11.8439 15.418L11.8461 15.4224C11.7573 15.272 11.6477 15.1349 11.5205 15.0152L11.5198 15.0145C11.3505 14.8725 11.1643 14.7519 10.9655 14.6554L10.9495 14.6482C10.6893 14.5151 10.4756 14.411 10.3086 14.3357C10.1416 14.2605 9.88156 14.1549 9.52857 14.0189C9.27512 13.915 9.07508 13.8337 8.92844 13.7749C8.78181 13.7162 8.58176 13.63 8.32831 13.5164C8.07486 13.4027 7.87166 13.302 7.71871 13.2141C7.56577 13.1262 7.38199 13.0109 7.16738 12.8682C6.97937 12.747 6.80352 12.608 6.64226 12.453L6.64299 12.4538C6.49664 12.3057 6.35808 12.1501 6.22785 11.9876L6.21839 11.976C6.08046 11.8088 5.96603 11.6235 5.87826 11.4254L5.87244 11.4101C5.78784 11.2089 5.72083 11.0008 5.67215 10.7881L5.66705 10.7619C5.61133 10.5177 5.58348 10.268 5.58402 10.0175V10.0001V9.97822C5.58402 9.06782 5.94891 8.24192 6.54103 7.64033L6.5403 7.64106C7.2003 6.9549 8.06278 6.49826 9.00127 6.3381L9.02749 6.33446V4.57558V4.57267C9.02749 4.48746 9.06318 4.41026 9.11999 4.35563C9.14806 4.32638 9.18176 4.30311 9.21906 4.28722C9.25636 4.27132 9.29648 4.26313 9.33703 4.26314H10.6677C10.8337 4.26314 10.9684 4.39788 10.9684 4.56393V4.57631V4.57558V6.29222C11.369 6.33446 11.7346 6.41385 12.085 6.52747L12.0464 6.51654C12.3806 6.6185 12.6618 6.72994 12.932 6.85958L12.8941 6.84355C13.133 6.96227 13.3362 7.0839 13.5285 7.21936L13.5139 7.20917C13.7081 7.34609 13.8349 7.44029 13.8941 7.49175C13.9533 7.54322 14.0021 7.58862 14.0405 7.62795C14.0929 7.67305 14.1267 7.73591 14.1356 7.80447C14.1445 7.87302 14.1277 7.94244 14.0885 7.99939L14.0893 7.99866L13.3012 9.42324C13.2816 9.46703 13.2504 9.50466 13.211 9.5321C13.1716 9.55955 13.1255 9.5758 13.0776 9.5791H13.0769C13.0307 9.58872 12.9828 9.58755 12.9371 9.57567C12.8914 9.5638 12.849 9.54154 12.8133 9.51064H12.814C12.7946 9.49122 12.7475 9.45237 12.6727 9.39411C12.5979 9.33584 12.4712 9.24966 12.2925 9.13556C12.1192 9.02443 11.9389 8.92445 11.7528 8.83622L11.7223 8.82311C11.4981 8.72003 11.265 8.63739 11.026 8.57621L10.9954 8.56966C10.7239 8.49534 10.4437 8.45762 10.1622 8.4575H10.1615C9.62211 8.43279 9.08905 8.58189 8.64076 8.88283L8.65023 8.87701C8.40228 9.04175 8.21775 9.28594 8.12695 9.56945C8.03615 9.85296 8.04449 10.1589 8.1506 10.4371L8.14769 10.4283C8.21469 10.5885 8.31229 10.724 8.43464 10.8325L8.4361 10.8333C8.55336 10.9432 8.67863 11.0488 8.80973 11.1472L8.82138 11.1552C8.97797 11.263 9.15786 11.3642 9.34649 11.4487L9.36834 11.4574C9.61209 11.571 9.80873 11.6589 9.95828 11.7211C10.1078 11.7832 10.3355 11.8726 10.6414 11.9891C10.9862 12.1192 11.2496 12.2217 11.4317 12.2964C11.6137 12.3712 11.8609 12.4851 12.1731 12.638C12.4361 12.7615 12.6895 12.9044 12.9313 13.0655L12.9101 13.0524C13.1359 13.2127 13.3326 13.3729 13.5197 13.544L13.5154 13.5397C13.7171 13.7159 13.889 13.9198 14.0259 14.1478L14.0325 14.1595C14.1534 14.3729 14.2575 14.6212 14.3333 14.8812L14.3398 14.906C14.4192 15.1718 14.4644 15.4777 14.4644 15.7938V15.8244V15.8229L14.46 15.8193Z"/>
</mask>
<path d="M14.46 15.8193L14.4607 15.8863C14.4619 16.8142 14.1143 17.7087 13.487 18.3924L13.4891 18.3895C12.8356 19.1093 11.9518 19.579 10.9896 19.718L10.967 19.7209V21.4397C10.967 21.5195 10.9353 21.596 10.8789 21.6524C10.8225 21.7088 10.746 21.7405 10.6662 21.7405H10.6538H10.6545H9.33848C9.25591 21.7395 9.17699 21.7063 9.11859 21.6479C9.0602 21.5895 9.02698 21.5106 9.02604 21.428V19.7209C8.58715 19.6622 8.1559 19.5563 7.73983 19.4048L7.7828 19.4186C7.16132 19.2107 6.57819 18.9022 6.0567 18.5053L6.07127 18.5162C5.91198 18.401 5.75906 18.2773 5.61316 18.1455L5.61825 18.1499C5.53717 18.0722 5.48036 18.0139 5.44783 17.9751C5.39517 17.9227 5.36409 17.8525 5.36072 17.7784C5.35734 17.7042 5.38193 17.6314 5.42962 17.5745L5.42889 17.5753L6.43324 16.2585C6.45992 16.2241 6.49371 16.1959 6.5323 16.1758C6.57089 16.1557 6.61337 16.1441 6.65683 16.1419H6.65756C6.70075 16.134 6.74528 16.138 6.78636 16.1536C6.82743 16.1691 6.86348 16.1955 6.89062 16.2301L6.89135 16.2308L6.91028 16.2497C7.5688 16.8527 8.37473 17.2712 9.24671 17.4631L9.28022 17.4697C9.49725 17.5192 9.74634 17.5476 10.002 17.5476L10.0471 17.5483C10.5504 17.5483 11.0165 17.391 11.4003 17.123L11.3923 17.1281C11.5859 16.9972 11.7427 16.8189 11.8478 16.6102C11.9529 16.4014 12.0027 16.1693 11.9925 15.9358V15.9387C11.9925 15.7472 11.9378 15.5688 11.8439 15.418L11.8461 15.4224C11.7573 15.272 11.6477 15.1349 11.5205 15.0152L11.5198 15.0145C11.3505 14.8725 11.1643 14.7519 10.9655 14.6554L10.9495 14.6482C10.6893 14.5151 10.4756 14.411 10.3086 14.3357C10.1416 14.2605 9.88156 14.1549 9.52857 14.0189C9.27512 13.915 9.07508 13.8337 8.92844 13.7749C8.78181 13.7162 8.58176 13.63 8.32831 13.5164C8.07486 13.4027 7.87166 13.302 7.71871 13.2141C7.56577 13.1262 7.38199 13.0109 7.16738 12.8682C6.97937 12.747 6.80352 12.608 6.64226 12.453L6.64299 12.4538C6.49664 12.3057 6.35808 12.1501 6.22785 11.9876L6.21839 11.976C6.08046 11.8088 5.96603 11.6235 5.87826 11.4254L5.87244 11.4101C5.78784 11.2089 5.72083 11.0008 5.67215 10.7881L5.66705 10.7619C5.61133 10.5177 5.58348 10.268 5.58402 10.0175V10.0001V9.97822C5.58402 9.06782 5.94891 8.24192 6.54103 7.64033L6.5403 7.64106C7.2003 6.9549 8.06278 6.49826 9.00127 6.3381L9.02749 6.33446V4.57558V4.57267C9.02749 4.48746 9.06318 4.41026 9.11999 4.35563C9.14806 4.32638 9.18176 4.30311 9.21906 4.28722C9.25636 4.27132 9.29648 4.26313 9.33703 4.26314H10.6677C10.8337 4.26314 10.9684 4.39788 10.9684 4.56393V4.57631V4.57558V6.29222C11.369 6.33446 11.7346 6.41385 12.085 6.52747L12.0464 6.51654C12.3806 6.6185 12.6618 6.72994 12.932 6.85958L12.8941 6.84355C13.133 6.96227 13.3362 7.0839 13.5285 7.21936L13.5139 7.20917C13.7081 7.34609 13.8349 7.44029 13.8941 7.49175C13.9533 7.54322 14.0021 7.58862 14.0405 7.62795C14.0929 7.67305 14.1267 7.73591 14.1356 7.80447C14.1445 7.87302 14.1277 7.94244 14.0885 7.99939L14.0893 7.99866L13.3012 9.42324C13.2816 9.46703 13.2504 9.50466 13.211 9.5321C13.1716 9.55955 13.1255 9.5758 13.0776 9.5791H13.0769C13.0307 9.58872 12.9828 9.58755 12.9371 9.57567C12.8914 9.5638 12.849 9.54154 12.8133 9.51064H12.814C12.7946 9.49122 12.7475 9.45237 12.6727 9.39411C12.5979 9.33584 12.4712 9.24966 12.2925 9.13556C12.1192 9.02443 11.9389 8.92445 11.7528 8.83622L11.7223 8.82311C11.4981 8.72003 11.265 8.63739 11.026 8.57621L10.9954 8.56966C10.7239 8.49534 10.4437 8.45762 10.1622 8.4575H10.1615C9.62211 8.43279 9.08905 8.58189 8.64076 8.88283L8.65023 8.87701C8.40228 9.04175 8.21775 9.28594 8.12695 9.56945C8.03615 9.85296 8.04449 10.1589 8.1506 10.4371L8.14769 10.4283C8.21469 10.5885 8.31229 10.724 8.43464 10.8325L8.4361 10.8333C8.55336 10.9432 8.67863 11.0488 8.80973 11.1472L8.82138 11.1552C8.97797 11.263 9.15786 11.3642 9.34649 11.4487L9.36834 11.4574C9.61209 11.571 9.80873 11.6589 9.95828 11.7211C10.1078 11.7832 10.3355 11.8726 10.6414 11.9891C10.9862 12.1192 11.2496 12.2217 11.4317 12.2964C11.6137 12.3712 11.8609 12.4851 12.1731 12.638C12.4361 12.7615 12.6895 12.9044 12.9313 13.0655L12.9101 13.0524C13.1359 13.2127 13.3326 13.3729 13.5197 13.544L13.5154 13.5397C13.7171 13.7159 13.889 13.9198 14.0259 14.1478L14.0325 14.1595C14.1534 14.3729 14.2575 14.6212 14.3333 14.8812L14.3398 14.906C14.4192 15.1718 14.4644 15.4777 14.4644 15.7938V15.8244V15.8229L14.46 15.8193Z" stroke="white" stroke-width="2" mask="url(#path-4-inside-1_357_4332)"/>
</svg>
