<svg width="12" height="437" viewBox="0 0 12 437" fill="none" xmlns="http://www.w3.org/2000/svg">
<path d="M10.5271 1.00147L5.70188 6.17927L1.00173 1.00147" stroke="#6E768C" stroke-width="2" stroke-linecap="round"/>
<path d="M10.5271 43.073L5.70188 48.2508L1.00173 43.073" stroke="#6E768C" stroke-width="2" stroke-linecap="round"/>
<path d="M10.5271 84.3624L5.70188 89.5402L1.00173 84.3624" stroke="#6E768C" stroke-width="2" stroke-linecap="round"/>
<path d="M10.5271 205.522L5.70188 210.7L1.00173 205.522" stroke="#6E768C" stroke-width="2" stroke-linecap="round"/>
<path d="M10.5271 129.133L5.70188 134.311L1.00173 129.133" stroke="#6E768C" stroke-width="2" stroke-linecap="round"/>
<path d="M10.5271 250.293L5.70188 255.47L1.00173 250.293" stroke="#6E768C" stroke-width="2" stroke-linecap="round"/>
<path d="M10.5271 173.904L5.70188 179.081L1.00173 173.904" stroke="#6E768C" stroke-width="2" stroke-linecap="round"/>
<path d="M10.5271 295.063L5.70188 300.241L1.00173 295.063" stroke="#6E768C" stroke-width="2" stroke-linecap="round"/>
<path d="M10.5271 344.283L5.70188 349.461L1.00173 344.283" stroke="#6E768C" stroke-width="2" stroke-linecap="round"/>
<path d="M10.5271 387.313L5.70188 392.491L1.00173 387.313" stroke="#6E768C" stroke-width="2" stroke-linecap="round"/>
<path d="M10.5271 430.343L5.70188 435.521L1.00173 430.343" stroke="#6E768C" stroke-width="2" stroke-linecap="round"/>
</svg>
