<svg width="512" height="504" viewBox="0 0 512 504" fill="none" xmlns="http://www.w3.org/2000/svg">
<line x1="0.156267" y1="40.8471" x2="511.378" y2="40.8471" stroke="#343B48" stroke-width="2"/>
<line x1="0.15529" y1="76.1927" x2="511.377" y2="76.1927" stroke="#343B48"/>
<line x1="-4.37161e-08" y1="102.811" x2="511.055" y2="102.811" stroke="#343B48"/>
<line x1="-4.37161e-08" y1="128.814" x2="511.055" y2="128.814" stroke="#343B48"/>
<line x1="0.15529" y1="159.129" x2="511.377" y2="159.129" stroke="#343B48"/>
<line x1="-1.92501e-08" y1="185.82" x2="511.055" y2="185.82" stroke="#343B48"/>
<line x1="-1.92501e-08" y1="216.823" x2="511.055" y2="216.823" stroke="#343B48"/>
<line x1="0.157243" y1="246.242" x2="511.379" y2="246.242" stroke="#343B48"/>
<line x1="-1.92501e-08" y1="272.829" x2="511.055" y2="272.829" stroke="#343B48"/>
<line x1="-1.92501e-08" y1="305.832" x2="511.055" y2="305.832" stroke="#343B48"/>
<line x1="0.156267" y1="340.402" x2="511.378" y2="340.402" stroke="#343B48"/>
<line x1="-1.92501e-08" y1="364.839" x2="511.055" y2="364.839" stroke="#343B48"/>
<line x1="0.156267" y1="425.528" x2="511.378" y2="425.528" stroke="#343B48"/>
<line x1="-1.92501e-08" y1="449.848" x2="511.055" y2="449.848" stroke="#343B48"/>
<line x1="-1.92501e-08" y1="473.85" x2="511.055" y2="473.85" stroke="#343B48"/>
<line x1="0.156267" y1="0.500053" x2="511.378" y2="0.500007" stroke="#343B48"/>
<line x1="0.15529" y1="394.891" x2="511.377" y2="394.891" stroke="#343B48" stroke-width="2"/>
<line x1="53.994" y1="0.77059" x2="53.994" y2="503.917" stroke="#2E3C57"/>
<line x1="208.522" y1="0.299837" x2="208.522" y2="503.446" stroke="#2E3C57"/>
<line x1="305.242" y1="0.77059" x2="305.242" y2="503.917" stroke="#2E3C57"/>
<line x1="386.541" y1="0.77059" x2="386.541" y2="503.917" stroke="#2E3C57"/>
<line x1="433.933" y1="1.00011" x2="433.933" y2="503.917" stroke="#2E3C57"/>
<line x1="511.5" y1="0.77059" x2="511.5" y2="503.917" stroke="#2E3C57"/>
</svg>
