<svg width="512" height="504" viewBox="0 0 512 504" fill="none" xmlns="http://www.w3.org/2000/svg">
<line x1="0.000976743" y1="40.8543" x2="511.307" y2="40.8543" stroke="#343B48" stroke-width="2"/>
<line x1="-4.23408e-08" y1="76.2058" x2="511.306" y2="76.2058" stroke="#343B48"/>
<line x1="304.636" y1="102.685" x2="511.309" y2="102.685" stroke="#343B48"/>
<line x1="-4.23408e-08" y1="159.156" x2="511.306" y2="159.156" stroke="#343B48"/>
<line x1="304.636" y1="185.636" x2="511.309" y2="185.635" stroke="#343B48"/>
<line x1="0.00195361" y1="246.282" x2="511.308" y2="246.282" stroke="#343B48"/>
<line x1="304.636" y1="269.869" x2="511.309" y2="269.869" stroke="#343B48"/>
<line x1="0.000976785" y1="340.458" x2="511.307" y2="340.458" stroke="#343B48"/>
<line x1="304.637" y1="365.313" x2="511.31" y2="365.313" stroke="#343B48"/>
<line x1="0.000976785" y1="425.598" x2="511.307" y2="425.598" stroke="#343B48"/>
<line x1="304.637" y1="449.478" x2="511.31" y2="449.478" stroke="#343B48"/>
<line x1="304.636" y1="474.333" x2="511.309" y2="474.333" stroke="#343B48"/>
<line x1="0.000976785" y1="0.500197" x2="511.307" y2="0.500151" stroke="#343B48"/>
<line x1="0.000976701" y1="128.164" x2="511.307" y2="128.164" stroke="#343B48" stroke-width="3"/>
<line x1="0.000976701" y1="216.928" x2="511.307" y2="216.927" stroke="#343B48" stroke-width="3"/>
<line x1="-8.46816e-08" y1="394.956" x2="511.306" y2="394.956" stroke="#343B48" stroke-width="2"/>
<line x1="0.000976743" y1="309.879" x2="511.307" y2="309.879" stroke="#343B48" stroke-width="2"/>
<line x1="53.8471" y1="0.770839" x2="53.8471" y2="504" stroke="#2E3C57"/>
<line x1="155.208" y1="0.770839" x2="155.208" y2="504" stroke="#2E3C57"/>
<line x1="211.217" y1="0.770839" x2="211.217" y2="504" stroke="#2E3C57"/>
<line x1="305.137" y1="0.770839" x2="305.137" y2="504" stroke="#2E3C57"/>
<line x1="347.147" y1="0.770839" x2="347.147" y2="504" stroke="#2E3C57"/>
<line x1="433.849" y1="1.00033" x2="433.849" y2="504" stroke="#2E3C57"/>
<line x1="511.429" y1="0.770839" x2="511.429" y2="504" stroke="#2E3C57"/>
</svg>
