<svg width="18" height="18" viewBox="0 0 18 18" fill="none" xmlns="http://www.w3.org/2000/svg">
<g clip-path="url(#clip0_46_1846)">
<path d="M3.84838 8.57793L8.57971 3.8473L7.02862 2.29621L4.86018 4.46465C4.83432 4.49056 4.8036 4.51111 4.76979 4.52514C4.73598 4.53916 4.69973 4.54638 4.66313 4.54638C4.62652 4.54638 4.59028 4.53916 4.55646 4.52514C4.52265 4.51111 4.49194 4.49056 4.46608 4.46465L4.07197 4.07055C3.96299 3.96156 3.96299 3.78508 4.07197 3.67645L6.24041 1.50801L5.05776 0.325C4.62217 -0.110586 3.91623 -0.110586 3.48065 0.325L0.326779 3.47887C-0.108455 3.91445 -0.108807 4.62039 0.326779 5.05598L3.84838 8.57793ZM17.5055 4.47168C18.1651 3.81215 18.1647 2.74305 17.5055 2.08352L15.9147 0.492695C15.2552 -0.166836 14.1857 -0.166836 13.5258 0.492695L11.908 2.11023L15.8876 6.08992L17.5055 4.47168ZM11.1124 2.90617L0.670959 13.3462L0.0114279 17.1234C-0.0775175 17.6328 0.366154 18.0764 0.87592 17.9868L4.65346 17.3245L15.0921 6.88551L11.1124 2.90617ZM17.6736 12.9408L16.4909 11.7582L14.3225 13.9266C14.2135 14.0356 14.037 14.0356 13.9284 13.9266L13.5343 13.5325C13.4256 13.4235 13.4256 13.247 13.5343 13.1384L15.7027 10.97L14.1509 9.41816L9.41959 14.1488L12.9426 17.6714C13.3782 18.107 14.0841 18.107 14.5197 17.6714L17.6736 14.5179C18.1092 14.0823 18.1092 13.3764 17.6736 12.9408Z" fill="#C0C4C6"/>
</g>
<defs>
<clipPath id="clip0_46_1846">
<rect width="18" height="18" fill="white"/>
</clipPath>
</defs>
</svg>
