<svg width="30" height="29" viewBox="0 0 30 29" fill="none" xmlns="http://www.w3.org/2000/svg">
<path d="M24.0058 8.08839L24.5274 6.42451C24.6238 6.11798 24.8413 5.86124 25.1322 5.71077C25.4231 5.5603 25.7635 5.52843 26.0786 5.62217C26.3936 5.71591 26.6575 5.92758 26.8121 6.21061C26.9668 6.49364 26.9995 6.82486 26.9032 7.13139L25.4502 11.7533C25.3539 12.0596 25.1365 12.3162 24.8459 12.4666C24.5553 12.6171 24.2152 12.6491 23.9003 12.5556L19.15 11.1419C18.9907 11.0983 18.842 11.0241 18.7126 10.9238C18.5832 10.8235 18.4757 10.6991 18.3965 10.5578C18.3172 10.4165 18.2677 10.2612 18.251 10.1011C18.2342 9.94092 18.2505 9.77913 18.2989 9.6252C18.3473 9.47127 18.4269 9.32831 18.5328 9.2047C18.6388 9.08109 18.7691 8.97932 18.9161 8.90539C19.063 8.83145 19.2237 8.78683 19.3886 8.77415C19.5536 8.76146 19.7194 8.78097 19.8765 8.83152L21.953 9.44899C21.035 8.09431 19.7546 7.00896 18.2497 6.30982C16.7447 5.61068 15.0723 5.32424 13.4124 5.48137C11.7526 5.63849 10.1683 6.23321 8.83006 7.20149C7.49185 8.16976 6.45049 9.4749 5.81812 10.9763L5.49523 11.7412C5.4365 11.8922 5.34728 12.0302 5.23282 12.1471C5.11836 12.264 4.981 12.3573 4.82883 12.4217C4.67667 12.4861 4.51279 12.5201 4.34688 12.5218C4.18097 12.5235 4.01638 12.4929 3.86285 12.4317C3.70932 12.3705 3.56994 12.2799 3.45297 12.1655C3.33599 12.051 3.24377 11.9148 3.18177 11.7651C3.11977 11.6153 3.08923 11.455 3.09197 11.2936C3.0947 11.1322 3.13065 10.973 3.1977 10.8253L3.52059 10.0604C4.32315 8.15519 5.64391 6.49864 7.34104 5.26863C9.03818 4.03862 11.0476 3.28161 13.1535 3.07889C15.2595 2.87616 17.3824 3.23537 19.2944 4.11794C21.2063 5.00052 22.8351 6.37313 24.0058 8.08839ZM4.72897 20.9125L4.32287 22.4967C4.28653 22.6538 4.21829 22.8022 4.12214 22.9333C4.026 23.0644 3.9039 23.1754 3.76301 23.26C3.62212 23.3445 3.4653 23.4007 3.30175 23.4254C3.1382 23.4501 2.97122 23.4428 2.81063 23.4038C2.65005 23.3648 2.49909 23.295 2.36663 23.1984C2.23417 23.1019 2.12288 22.9805 2.03931 22.8415C1.95573 22.7025 1.90156 22.5487 1.87997 22.389C1.85837 22.2294 1.8698 22.0671 1.91357 21.9118L3.11449 17.2235C3.15501 17.0638 3.22858 16.9139 3.33071 16.7829C3.43284 16.6519 3.56137 16.5426 3.70844 16.4616C3.85551 16.3806 4.01802 16.3297 4.18602 16.3119C4.35402 16.2941 4.52399 16.3099 4.6855 16.3583L9.43952 17.511C9.75918 17.5886 10.0341 17.7865 10.2037 18.0613C10.3734 18.3361 10.424 18.6651 10.3442 18.9762C10.2645 19.2872 10.0611 19.5546 9.77872 19.7197C9.49632 19.8848 9.15809 19.934 8.83844 19.8564L6.62039 19.3187C7.56861 20.7311 8.90892 21.8529 10.4859 22.5542C12.0628 23.2554 13.8118 23.5073 15.5299 23.2807C17.2481 23.054 18.8649 22.3581 20.193 21.2736C21.5211 20.189 22.506 18.7604 23.0334 17.1534C23.083 17.0022 23.1627 16.8619 23.268 16.7407C23.3733 16.6194 23.5021 16.5195 23.647 16.4467C23.792 16.3739 23.9503 16.3295 24.1128 16.3162C24.2754 16.3029 24.4391 16.3209 24.5945 16.3692C24.7499 16.4174 24.8941 16.495 25.0187 16.5974C25.1433 16.6998 25.246 16.8251 25.3208 16.9662C25.3957 17.1072 25.4412 17.2612 25.4549 17.4194C25.4686 17.5776 25.4501 17.7368 25.4005 17.888C24.8835 19.4661 24.0173 20.9147 22.863 22.132C21.7086 23.3493 20.2942 24.3057 18.719 24.9339C16.2648 25.9121 13.5411 26.0468 10.9976 25.3157C8.45404 24.5846 6.24281 23.0314 4.72897 20.9125Z" fill="#3399FF"/>
</svg>
