<svg width="37" height="36" viewBox="0 0 37 36" fill="none" xmlns="http://www.w3.org/2000/svg">
<path d="M30.6124 8.26653L31.2599 6.20103C31.3795 5.82051 31.6496 5.5018 32.0107 5.31501C32.3718 5.12823 32.7944 5.08866 33.1854 5.20503C33.5765 5.32139 33.9041 5.58415 34.0961 5.9355C34.288 6.28685 34.3287 6.69801 34.2091 7.07853L32.4054 12.816C32.2858 13.1963 32.016 13.5147 31.6553 13.7015C31.2945 13.8883 30.8723 13.928 30.4814 13.812L24.5845 12.057C24.3868 12.0029 24.2022 11.9109 24.0416 11.7863C23.8809 11.6618 23.7475 11.5073 23.6491 11.3319C23.5507 11.1566 23.4893 10.9638 23.4685 10.765C23.4477 10.5662 23.4679 10.3654 23.528 10.1743C23.5881 9.98319 23.6868 9.80572 23.8184 9.65227C23.9499 9.49882 24.1117 9.3725 24.2941 9.28072C24.4765 9.18894 24.676 9.13355 24.8807 9.1178C25.0855 9.10206 25.2914 9.12627 25.4864 9.18903L28.064 9.95553C26.9245 8.27387 25.3351 6.92654 23.4669 6.05865C21.5987 5.19076 19.5226 4.83519 17.4621 5.03024C15.4016 5.22529 13.4348 5.96356 11.7736 7.16555C10.1124 8.36754 8.8197 9.98769 8.0347 11.8515L7.63387 12.801C7.56097 12.9885 7.45021 13.1598 7.30813 13.3049C7.16604 13.45 6.99552 13.5659 6.80663 13.6458C6.61773 13.7257 6.4143 13.7679 6.20834 13.77C6.00239 13.7722 5.79808 13.7341 5.60749 13.6581C5.41689 13.5822 5.24388 13.4698 5.09867 13.3277C4.95345 13.1855 4.83898 13.0166 4.76201 12.8307C4.68504 12.6448 4.64714 12.4458 4.65053 12.2454C4.65393 12.045 4.69856 11.8473 4.78179 11.664L5.18262 10.7145C6.17889 8.34944 7.81844 6.29305 9.92522 4.76616C12.032 3.23926 14.5264 2.29953 17.1407 2.04787C19.7549 1.79621 22.3903 2.24212 24.7637 3.33773C27.1372 4.43333 29.1591 6.13725 30.6124 8.26653ZM6.68266 24.186L6.17854 26.1525C6.13343 26.3476 6.04871 26.5318 5.92936 26.6946C5.81001 26.8573 5.65844 26.9951 5.48355 27.1001C5.30866 27.205 5.11398 27.2748 4.91095 27.3055C4.70792 27.3361 4.50064 27.327 4.3013 27.2786C4.10195 27.2302 3.91455 27.1436 3.75012 27.0237C3.58569 26.9038 3.44754 26.7532 3.34379 26.5807C3.24005 26.4081 3.1728 26.2171 3.14599 26.0189C3.11918 25.8207 3.13337 25.6193 3.1877 25.4265L4.67849 19.6065C4.72879 19.4084 4.82012 19.2223 4.9469 19.0597C5.07368 18.897 5.23324 18.7613 5.4158 18.6608C5.59837 18.5602 5.80011 18.497 6.00866 18.4749C6.21722 18.4529 6.4282 18.4725 6.6287 18.5325L12.5302 19.9635C12.927 20.0598 13.2683 20.3055 13.4789 20.6466C13.6895 20.9877 13.7523 21.3962 13.6533 21.7823C13.5544 22.1684 13.3018 22.5004 12.9513 22.7053C12.6007 22.9103 12.1808 22.9713 11.784 22.875L9.03062 22.2075C10.2077 23.9608 11.8715 25.3534 13.8291 26.224C15.7867 27.0945 17.9578 27.4072 20.0907 27.1258C22.2235 26.8444 24.2306 25.9805 25.8793 24.6342C27.5279 23.2879 28.7505 21.5145 29.4053 19.5195C29.4668 19.3318 29.5658 19.1577 29.6965 19.0072C29.8272 18.8567 29.9871 18.7327 30.167 18.6423C30.347 18.5519 30.5434 18.4969 30.7452 18.4803C30.947 18.4638 31.1502 18.4861 31.3432 18.546C31.5361 18.6059 31.715 18.7022 31.8697 18.8293C32.0244 18.9565 32.1519 19.1121 32.2448 19.2872C32.3377 19.4622 32.3942 19.6534 32.4112 19.8498C32.4282 20.0461 32.4052 20.2438 32.3437 20.4315C31.7019 22.3905 30.6267 24.1888 29.1937 25.6999C27.7607 27.211 26.0048 28.3982 24.0495 29.178C21.0029 30.3924 17.6218 30.5596 14.4643 29.652C11.3069 28.7444 8.5619 26.8163 6.68266 24.186Z" fill="white"/>
</svg>
