<svg width="24" height="24" viewBox="0 0 24 24" fill="none" xmlns="http://www.w3.org/2000/svg">
<g clip-path="url(#clip0_711_5487)">
<path d="M1 13H7C7.55 13 8 12.55 8 12V4C8 3.45 7.55 3 7 3H1C0.45 3 0 3.45 0 4V12C0 12.55 0.45 13 1 13ZM1 21H7C7.55 21 8 20.55 8 20V16C8 15.45 7.55 15 7 15H1C0.45 15 0 15.45 0 16V20C0 20.55 0.45 21 1 21ZM11 21H17C17.55 21 18 20.55 18 20V12C18 11.45 17.55 11 17 11H11C10.45 11 10 11.45 10 12V20C10 20.55 10.45 21 11 21ZM10 4V8C10 8.55 10.45 9 11 9H17C17.55 9 18 8.55 18 8V4C18 3.45 17.55 3 17 3H11C10.45 3 10 3.45 10 4Z" fill="#6E768C"/>
</g>
<defs>
<clipPath id="clip0_711_5487">
<rect width="24" height="24" fill="white"/>
</clipPath>
</defs>
</svg>
