<svg width="1122" height="653" viewBox="0 0 1122 653" fill="none" xmlns="http://www.w3.org/2000/svg">
<line x1="-6.05345e-08" y1="57.9998" x2="1122" y2="57.9996" stroke="#343B48" stroke-width="2"/>
<line x1="-6.05345e-08" y1="1.00012" x2="1122" y2="0.99998" stroke="#343B48" stroke-width="2"/>
<line y1="107.5" x2="1122" y2="107.5" stroke="#343B48"/>
<line y1="141.5" x2="1122" y2="141.5" stroke="#343B48"/>
<line y1="179.5" x2="1122" y2="179.5" stroke="#343B48"/>
<line y1="217.5" x2="1122" y2="217.5" stroke="#343B48"/>
<line y1="259.5" x2="1122" y2="259.5" stroke="#343B48"/>
<line y1="609.46" x2="1122" y2="609.46" stroke="#343B48"/>
<line y1="302.5" x2="1122" y2="302.5" stroke="#343B48"/>
<line y1="652.46" x2="1122" y2="652.46" stroke="#343B48"/>
<line x1="61.5" y1="2.03979" x2="61.5" y2="302.759" stroke="#2E3C57"/>
<line x1="121.5" y1="610" x2="121.5" y2="653" stroke="#2E3C57"/>
<line x1="439.5" y1="2.03979" x2="439.5" y2="302.759" stroke="#2E3C57"/>
<line x1="439.5" y1="610" x2="439.5" y2="653" stroke="#2E3C57"/>
<line x1="543.391" y1="2.03979" x2="543.391" y2="302.759" stroke="#2E3C57"/>
<line x1="707.406" y1="2.03979" x2="707.406" y2="302.759" stroke="#2E3C57"/>
<line x1="846.062" y1="2.03979" x2="846.062" y2="302.759" stroke="#2E3C57"/>
<line x1="964.75" y1="2.03979" x2="964.75" y2="302.759" stroke="#2E3C57"/>
<line x1="964.5" y1="610" x2="964.5" y2="653" stroke="#2E3C57"/>
</svg>
