<svg width="24" height="21" viewBox="0 0 24 21" fill="none" xmlns="http://www.w3.org/2000/svg">
<path d="M22.4997 20.3997H1.49998C1.09373 20.3997 0.742177 20.3221 0.445306 20.1668C0.148435 20.0115 0 19.8276 0 19.6151V7.06144C0 7.04509 0.0234372 6.96336 0.0703115 6.81625L2.74215 0.612972C2.78902 0.449513 2.94527 0.306486 3.21089 0.183892C3.47651 0.0612972 3.76557 0 4.07807 0H20.0622C20.3903 0 20.6833 0.0612972 20.9411 0.183892C21.1989 0.306486 21.3591 0.449513 21.4216 0.612972L23.9528 6.81625C23.984 6.91432 23.9997 6.99605 23.9997 7.06144V19.6151C23.9997 19.8276 23.8512 20.0115 23.5544 20.1668C23.2575 20.3221 22.9059 20.3997 22.4997 20.3997ZM7.49989 1.56921H7.14834C6.94521 1.96151 6.58975 2.32112 6.08194 2.64804C5.57414 2.97496 5.0468 3.13842 4.49994 3.13842H3.16402L2.55465 4.70762H4.49994C5.2968 4.70762 5.8007 4.7771 6.01163 4.91604C6.22257 5.05498 6.28897 5.36963 6.21085 5.86001L6.14054 6.27683H7.49989V1.56921ZM7.49989 7.84604H1.49998V9.02295C1.49998 9.13737 1.5742 9.23136 1.72263 9.30492C1.87107 9.37847 2.04685 9.41525 2.24997 9.41525H7.49989V7.84604ZM7.49989 10.9845H1.49998V12.1614C1.49998 12.2758 1.5742 12.3698 1.72263 12.4433C1.87107 12.5169 2.04685 12.5537 2.24997 12.5537H7.49989V10.9845ZM7.49989 14.1229H1.49998V15.2998C1.49998 15.4142 1.5742 15.5082 1.72263 15.5817C1.87107 15.6553 2.04685 15.6921 2.24997 15.6921H7.49989V14.1229ZM7.49989 17.2613H1.49998V18.4382C1.49998 18.5526 1.5742 18.6466 1.72263 18.7202C1.87107 18.7937 2.04685 18.8305 2.24997 18.8305H7.49989V17.2613ZM14.9998 13.3383C14.9998 13.1258 14.9256 12.9419 14.7771 12.7866C14.6287 12.6313 14.4529 12.5537 14.2498 12.5537H10.4999V10.9845H14.2498C14.5623 10.9845 14.7889 10.8373 14.9295 10.5431C14.8357 10.2162 14.656 9.94649 14.3904 9.734C14.1248 9.5215 13.8279 9.41525 13.4998 9.41525V8.63065C13.4998 8.41815 13.4256 8.23426 13.2772 8.07897C13.1287 7.92368 12.9529 7.84604 12.7498 7.84604C12.5467 7.84604 12.3709 7.92368 12.2225 8.07897C12.074 8.23426 11.9998 8.41815 11.9998 8.63065V9.41525H10.4999C10.0936 9.41525 9.74205 9.57054 9.44518 9.88111C9.14831 10.1917 8.99987 10.5595 8.99987 10.9845V13.3383C8.99987 13.5508 9.07409 13.7347 9.22252 13.8899C9.37096 14.0452 9.54674 14.1229 9.74986 14.1229H13.4998V15.6921H9.74986C9.43737 15.6921 9.21081 15.8474 9.07018 16.1579C9.17956 16.4849 9.36315 16.7505 9.62096 16.9548C9.87877 17.1591 10.1717 17.2613 10.4999 17.2613V18.0459C10.4999 18.2584 10.5741 18.4423 10.7225 18.5976C10.8709 18.7529 11.0467 18.8305 11.2498 18.8305C11.453 18.8305 11.6287 18.7529 11.7772 18.5976C11.9256 18.4423 11.9998 18.2584 11.9998 18.0459V17.2613H13.4998C13.9217 17.2613 14.2771 17.1101 14.5662 16.8077C14.8553 16.5053 14.9998 16.1334 14.9998 15.6921V13.3383ZM20.8591 3.13842H19.4997C18.9529 3.13842 18.4411 2.97904 17.9646 2.6603C17.488 2.34155 17.156 1.97786 16.9685 1.56921H16.4998V6.27683H17.8826L17.8357 5.86001C17.7576 5.38598 17.9216 5.07541 18.3279 4.9283C18.7341 4.78118 19.3747 4.70762 20.2497 4.70762H21.445L20.8591 3.13842ZM22.4997 7.84604H16.4998V9.41525H21.7497C21.9528 9.41525 22.1286 9.37847 22.277 9.30492C22.4255 9.23136 22.4997 9.13737 22.4997 9.02295V7.84604ZM22.4997 10.9845H16.4998V12.5537H21.7497C21.9528 12.5537 22.1286 12.5169 22.277 12.4433C22.4255 12.3698 22.4997 12.2758 22.4997 12.1614V10.9845ZM22.4997 14.1229H16.4998V15.6921H21.7497C21.9528 15.6921 22.1286 15.6553 22.277 15.5817C22.4255 15.5082 22.4997 15.4142 22.4997 15.2998V14.1229ZM22.4997 17.2613H16.4998V18.8305H21.7497C21.9528 18.8305 22.1286 18.7937 22.277 18.7202C22.4255 18.6466 22.4997 18.5526 22.4997 18.4382V17.2613Z" fill="#6E768C"/>
</svg>
