<svg width="28" height="25" viewBox="0 0 28 25" fill="none" xmlns="http://www.w3.org/2000/svg">
<path fill-rule="evenodd" clip-rule="evenodd" d="M1.24006 24.5651H26.7625C26.9849 24.5651 27.2032 24.5052 27.3944 24.3917C27.5857 24.2782 27.7428 24.1153 27.8493 23.92C27.9557 23.7248 28.0076 23.5044 27.9995 23.2822C27.9913 23.0599 27.9234 22.844 27.8029 22.6571L15.0688 0.614309C14.9602 0.427206 14.8042 0.271959 14.6167 0.164138C14.4291 0.0563163 14.2165 -0.000288242 14.0001 0C13.7837 0.00029045 13.5713 0.0574635 13.384 0.165786C13.1967 0.274109 13.0412 0.429773 12.933 0.617165L0.167522 22.712C0.0577074 22.8993 -0.000125127 23.1124 0 23.3295C0.000125942 23.5465 0.058205 23.7596 0.168236 23.9467C0.2774 24.1343 0.433768 24.2901 0.6218 24.3986C0.809831 24.5071 1.02298 24.5645 1.24006 24.5651ZM13.7416 2.21385C13.8202 2.16844 13.9091 2.14408 13.9998 2.14314C14.0912 2.14347 14.1809 2.16753 14.2601 2.21297C14.3394 2.25841 14.4054 2.32367 14.4519 2.40235L25.7614 22.3093C25.8224 22.3999 25.8556 22.5064 25.857 22.6156C25.855 22.7535 25.7992 22.8851 25.7016 22.9825C25.604 23.0799 25.4722 23.1353 25.3343 23.1369H2.66821C2.57598 23.1366 2.48544 23.1121 2.40563 23.0658C2.32582 23.0196 2.25952 22.9533 2.21334 22.8734C2.16584 22.7952 2.14078 22.7053 2.1409 22.6138C2.14103 22.5222 2.16634 22.4324 2.21406 22.3543L13.5514 2.40235C13.5975 2.32419 13.663 2.25926 13.7416 2.21385ZM9.66846 19.4244H19.0407C19.222 19.4244 19.3789 19.3972 19.5114 19.3428C19.6439 19.2885 19.7101 19.2241 19.7101 19.1497V14.7554C19.7101 14.7325 19.7032 14.7039 19.6892 14.6696L18.5595 12.4982C18.5316 12.441 18.4602 12.3909 18.3451 12.348C18.23 12.3051 18.0993 12.2836 17.9528 12.2836H10.8191C10.6796 12.2836 10.5506 12.3051 10.432 12.348C10.3135 12.3909 10.2438 12.441 10.2228 12.4982L9.0304 14.6696C9.00948 14.7211 8.99902 14.7497 8.99902 14.7554V19.1497C8.99902 19.2241 9.06527 19.2885 9.19776 19.3428C9.33026 19.3972 9.48716 19.4244 9.66846 19.4244ZM12.1893 12.8329H12.3462V14.4808H11.7396L11.7709 14.3349C11.8058 14.1632 11.7762 14.0531 11.682 14.0044C11.5879 13.9558 11.363 13.9315 11.0074 13.9315H10.1392L10.4111 13.3822H11.0074C11.2514 13.3822 11.4868 13.325 11.7134 13.2106C11.94 13.0961 12.0987 12.9702 12.1893 12.8329ZM9.66846 15.0301H12.3462V15.5794H10.0032C9.91253 15.5794 9.83408 15.5665 9.76784 15.5407C9.70159 15.515 9.66846 15.4821 9.66846 15.442V15.0301ZM9.66846 16.1286H12.3462V16.6779H10.0032C9.91253 16.6779 9.83408 16.6651 9.76784 16.6393C9.70159 16.6136 9.66846 16.5807 9.66846 16.5406V16.1286ZM9.66846 17.2272H12.3462V17.7765H10.0032C9.91253 17.7765 9.83408 17.7636 9.76784 17.7379C9.70159 17.7121 9.66846 17.6792 9.66846 17.6392V17.2272ZM9.66846 18.3258H12.3462V18.8751H10.0032C9.91253 18.8751 9.83408 18.8622 9.76784 18.8365C9.70159 18.8107 9.66846 18.7778 9.66846 18.7378V18.3258ZM15.5941 16.7595C15.6603 16.8138 15.6935 16.8782 15.6935 16.9526V17.7765C15.6935 17.931 15.629 18.0612 15.5 18.167C15.3709 18.2729 15.2123 18.3258 15.024 18.3258H14.3546V18.6004C14.3546 18.6748 14.3215 18.7392 14.2552 18.7936C14.189 18.8479 14.1105 18.8751 14.0199 18.8751C13.9292 18.8751 13.8507 18.8479 13.7845 18.7936C13.7183 18.7392 13.6851 18.6748 13.6851 18.6004V18.3258C13.5387 18.3258 13.4079 18.29 13.2929 18.2185C13.1778 18.147 13.0959 18.054 13.0471 17.9396C13.1098 17.8309 13.2109 17.7765 13.3504 17.7765H15.024V17.2272H13.3504C13.2598 17.2272 13.1813 17.2 13.1151 17.1457C13.0488 17.0913 13.0157 17.027 13.0157 16.9526V16.1286C13.0157 15.9799 13.0819 15.8511 13.2144 15.7424C13.3469 15.6337 13.5038 15.5794 13.6851 15.5794H14.3546V15.3047C14.3546 15.2303 14.3877 15.166 14.4539 15.1116C14.5202 15.0572 14.5986 15.0301 14.6893 15.0301C14.78 15.0301 14.8584 15.0572 14.9246 15.1116C14.9909 15.166 15.024 15.2303 15.024 15.3047V15.5794C15.1705 15.5794 15.303 15.6165 15.4215 15.6909C15.54 15.7653 15.6202 15.8597 15.6621 15.9742C15.5993 16.0772 15.4982 16.1286 15.3587 16.1286H13.6851V16.6779H15.3587C15.4494 16.6779 15.5278 16.7051 15.5941 16.7595ZM17.7018 13.3822H18.3085L18.57 13.9315H18.0365C17.646 13.9315 17.3601 13.9572 17.1788 14.0087C16.9975 14.0602 16.9243 14.1689 16.9591 14.3349L16.9801 14.4808H16.3629V12.8329H16.5721C16.6558 12.976 16.804 13.1033 17.0167 13.2148C17.2294 13.3264 17.4577 13.3822 17.7018 13.3822ZM16.3629 15.5794V15.0301H19.0407V15.442C19.0407 15.4821 19.0076 15.515 18.9413 15.5407C18.8751 15.5665 18.7966 15.5794 18.706 15.5794H16.3629ZM16.3629 16.6779V16.1286H19.0407V16.5406C19.0407 16.5807 19.0076 16.6136 18.9413 16.6393C18.8751 16.6651 18.7966 16.6779 18.706 16.6779H16.3629ZM16.3629 17.7765V17.2272H19.0407V17.6392C19.0407 17.6792 19.0076 17.7121 18.9413 17.7379C18.8751 17.7636 18.7966 17.7765 18.706 17.7765H16.3629ZM18.706 18.8751H16.3629V18.3258H19.0407V18.7378C19.0407 18.7778 19.0076 18.8107 18.9413 18.8365C18.8751 18.8622 18.7966 18.8751 18.706 18.8751Z" fill="#F0B750"/>
</svg>
