<svg width="512" height="504" viewBox="0 0 512 504" fill="none" xmlns="http://www.w3.org/2000/svg">
<line x1="0.000978062" y1="40.1375" x2="511.998" y2="40.1375" stroke="#2E3C57" stroke-width="2"/>
<line x1="-4.23979e-08" y1="75.5369" x2="511.997" y2="75.5368" stroke="#2E3C57"/>
<line x1="305.048" y1="102.051" x2="511.999" y2="102.051" stroke="#2E3C57"/>
<line x1="-4.23979e-08" y1="158.599" x2="511.997" y2="158.599" stroke="#2E3C57"/>
<line x1="305.048" y1="185.114" x2="511.999" y2="185.114" stroke="#2E3C57"/>
<line x1="0.00195625" y1="245.843" x2="511.999" y2="245.843" stroke="#2E3C57"/>
<line x1="305.048" y1="269.461" x2="511.999" y2="269.461" stroke="#2E3C57"/>
<line x1="0.000978104" y1="340.146" x2="511.998" y2="340.145" stroke="#2E3C57"/>
<line x1="305.049" y1="365.034" x2="512" y2="365.034" stroke="#2E3C57"/>
<line x1="0.000978104" y1="425.401" x2="511.998" y2="425.4" stroke="#2E3C57"/>
<line x1="305.049" y1="449.313" x2="512" y2="449.313" stroke="#2E3C57"/>
<line x1="305.048" y1="474.202" x2="511.999" y2="474.202" stroke="#2E3C57"/>
<line x1="0.000978019" y1="127.565" x2="511.998" y2="127.565" stroke="#2E3C57" stroke-width="3"/>
<line x1="0.000978019" y1="216.448" x2="511.998" y2="216.448" stroke="#2E3C57" stroke-width="3"/>
<line x1="-8.47959e-08" y1="394.717" x2="511.997" y2="394.717" stroke="#2E3C57" stroke-width="2"/>
<line x1="0.000978062" y1="309.525" x2="511.998" y2="309.525" stroke="#2E3C57" stroke-width="2"/>
<line x1="53.9198" y1="2.18912e-08" x2="53.9198" y2="503.908" stroke="#2E3C57"/>
<line x1="155.418" y1="2.18912e-08" x2="155.418" y2="503.908" stroke="#2E3C57"/>
<line x1="211.502" y1="2.18912e-08" x2="211.502" y2="503.908" stroke="#2E3C57"/>
<line x1="305.548" y1="2.18912e-08" x2="305.548" y2="503.908" stroke="#2E3C57"/>
<line x1="347.615" y1="2.18912e-08" x2="347.615" y2="503.908" stroke="#2E3C57"/>
<line x1="434.435" y1="0.229864" x2="434.435" y2="503.909" stroke="#2E3C57"/>
</svg>
