<svg width="220" height="220" viewBox="0 0 220 220" fill="none" xmlns="http://www.w3.org/2000/svg">
<path d="M215.488 110C215.488 168.26 168.26 215.488 110 215.488C51.7405 215.488 4.51182 168.26 4.51182 110C4.51182 107.013 4.63593 104.056 4.87927 101.132C8.91768 52.6121 45.7946 13.4184 93.2226 5.83866C98.6864 4.96546 104.29 4.51182 110 4.51182C168.26 4.51182 215.488 51.7405 215.488 110Z" stroke="#1E2431" stroke-width="9"/>
<path d="M93.2226 5.83866C98.6864 4.96546 104.29 4.51182 110 4.51182C168.26 4.51182 215.488 51.7405 215.488 110C215.488 168.26 168.26 215.488 110 215.488C51.7405 215.488 4.51182 168.26 4.51182 110C4.51182 107.013 4.63593 104.056 4.87927 101.132" stroke="#3399FF" stroke-width="9" stroke-linecap="round"/>
</svg>
