<svg width="27" height="27" viewBox="0 0 27 27" fill="none" xmlns="http://www.w3.org/2000/svg">
<path d="M22.5 4.5H4.5C3.25125 4.5 2.26125 5.50125 2.26125 6.75L2.25 20.25C2.25 21.4988 3.25125 22.5 4.5 22.5H22.5C23.7488 22.5 24.75 21.4988 24.75 20.25V6.75C24.75 5.50125 23.7488 4.5 22.5 4.5ZM22.5 20.25H4.5V6.75H22.5V20.25Z" fill="white"/>
<path d="M9 19.125H11.25V18H12.375C12.9938 18 13.5 17.4937 13.5 16.875V13.5C13.5 12.8812 12.9938 12.375 12.375 12.375H9V11.25H13.5V9H11.25V7.875H9V9H7.875C7.25625 9 6.75 9.50625 6.75 10.125V13.5C6.75 14.1188 7.25625 14.625 7.875 14.625H11.25V15.75H6.75V18H9V19.125ZM18 9L15.75 11.25H20.25L18 9ZM20.25 16.0312H15.75L18 18.2812L20.25 16.0312Z" fill="white"/>
</svg>
