<svg width="24" height="24" viewBox="0 0 24 24" fill="none" xmlns="http://www.w3.org/2000/svg">
<path d="M17.2902 5.70998C17.1977 5.61728 17.0878 5.54373 16.9668 5.49355C16.8459 5.44337 16.7162 5.41754 16.5852 5.41754C16.4543 5.41754 16.3246 5.44337 16.2036 5.49355C16.0826 5.54373 15.9727 5.61728 15.8802 5.70998L12.0002 9.57998L8.11022 5.69998C8.01764 5.6074 7.90773 5.53396 7.78677 5.48385C7.6658 5.43375 7.53615 5.40796 7.40522 5.40796C7.27429 5.40796 7.14464 5.43375 7.02368 5.48385C6.90272 5.53396 6.79281 5.6074 6.70022 5.69998C6.60764 5.79256 6.5342 5.90247 6.4841 6.02344C6.43399 6.1444 6.4082 6.27405 6.4082 6.40498C6.4082 6.53591 6.43399 6.66556 6.4841 6.78652C6.5342 6.90749 6.60764 7.0174 6.70022 7.10998L11.2902 11.7C11.6802 12.09 12.3102 12.09 12.7002 11.7L17.2902 7.10998C17.3829 7.01846 17.4564 6.90946 17.5066 6.78929C17.5568 6.66913 17.5827 6.5402 17.5827 6.40998C17.5827 6.27975 17.5568 6.15082 17.5066 6.03066C17.4564 5.9105 17.3829 5.8015 17.2902 5.70998Z" fill="#6E768C"/>
<path d="M17.29 12.3001C17.1975 12.2074 17.0876 12.1338 16.9666 12.0836C16.8456 12.0335 16.716 12.0076 16.585 12.0076C16.454 12.0076 16.3243 12.0335 16.2034 12.0836C16.0824 12.1338 15.9725 12.2074 15.88 12.3001L12 16.1701L8.11999 12.2901C7.93301 12.1031 7.67942 11.998 7.41499 11.998C7.15056 11.998 6.89697 12.1031 6.70999 12.2901C6.52301 12.477 6.41797 12.7306 6.41797 12.9951C6.41797 13.2595 6.52301 13.5131 6.70999 13.7001L11.3 18.2901C11.69 18.6801 12.32 18.6801 12.71 18.2901L17.3 13.7001C17.4836 13.5127 17.5856 13.2603 17.5837 12.998C17.5818 12.7357 17.4762 12.4848 17.29 12.3001Z" fill="#6E768C"/>
</svg>
