<svg width="195" height="195" viewBox="0 0 195 195" fill="none" xmlns="http://www.w3.org/2000/svg">
<path d="M190.499 97.5C190.499 148.862 148.862 190.499 97.5 190.499C46.1379 190.499 4.50075 148.862 4.50075 97.5C4.50075 94.8671 4.61017 92.2597 4.8247 89.6821C8.38499 46.9064 40.896 12.3529 82.7089 5.67051C87.5258 4.90068 92.4662 4.50075 97.5 4.50075C148.862 4.50075 190.499 46.1379 190.499 97.5Z" stroke="#1E2431" stroke-width="9"/>
<path d="M82.7089 5.67051C87.5258 4.90068 92.4662 4.50075 97.5 4.50075C148.862 4.50075 190.499 46.1379 190.499 97.5C190.499 148.862 148.862 190.499 97.5 190.499C46.1379 190.499 4.50075 148.862 4.50075 97.5C4.50075 94.8671 4.61017 92.2597 4.8247 89.6821" stroke="#3399FF" stroke-width="9" stroke-linecap="round"/>
</svg>
