<svg width="1125" height="515" viewBox="0 0 1125 515" fill="none" xmlns="http://www.w3.org/2000/svg">
<line x1="-8.74635e-08" y1="41.7558" x2="1125" y2="41.7557" stroke="#2E3C57" stroke-width="2"/>
<line x1="-8.74635e-08" y1="1.00047" x2="1125" y2="1.00037" stroke="#2E3C57" stroke-width="2"/>
<line x1="-8.74635e-08" y1="84.7763" x2="1125" y2="84.7762" stroke="#2E3C57" stroke-width="2"/>
<line x1="-8.74635e-08" y1="126.806" x2="1125" y2="126.806" stroke="#2E3C57" stroke-width="2"/>
<line x1="-8.74635e-08" y1="168.054" x2="1125" y2="168.054" stroke="#2E3C57" stroke-width="2"/>
<line x1="-8.74635e-08" y1="212.78" x2="1125" y2="212.78" stroke="#2E3C57" stroke-width="2"/>
<line x1="-8.74635e-08" y1="341.741" x2="1125" y2="341.741" stroke="#2E3C57" stroke-width="2"/>
<line x1="-8.74635e-08" y1="384.728" x2="1125" y2="384.728" stroke="#2E3C57" stroke-width="2"/>
<line x1="-8.74635e-08" y1="259.338" x2="1125" y2="259.338" stroke="#2E3C57" stroke-width="2"/>
<line x1="-8.74635e-08" y1="302.325" x2="1125" y2="302.325" stroke="#2E3C57" stroke-width="2"/>
<line x1="-8.74635e-08" y1="427.715" x2="1125" y2="427.715" stroke="#2E3C57" stroke-width="2"/>
<line x1="-8.74635e-08" y1="470.703" x2="1125" y2="470.703" stroke="#2E3C57" stroke-width="2"/>
<line x1="-8.74635e-08" y1="513.689" x2="1125" y2="513.689" stroke="#2E3C57" stroke-width="2"/>
</svg>
