<svg width="30" height="22" viewBox="0 0 30 22" fill="none" xmlns="http://www.w3.org/2000/svg">
<path fill-rule="evenodd" clip-rule="evenodd" d="M18.4367 8.70639C18.8448 9.1145 19.3889 9.38658 19.9331 9.52262C20.7493 9.79469 21.4295 10.2028 22.1097 10.883C22.7899 11.4271 23.0619 12.3794 23.0619 13.1956C23.0619 14.1479 22.6538 15.2362 21.9736 15.9164C21.4295 16.4605 20.7493 16.8686 19.9331 17.0047V19.0452H18.4367V17.2767C17.6204 17.2767 16.8042 16.8686 16.124 16.4605C15.5799 16.0524 15.1718 15.6443 14.7636 15.1001L16.124 13.6037C16.3961 14.0118 16.8042 14.42 17.2123 14.692C17.6204 15.1001 18.3006 15.2362 18.8448 15.2362C19.2529 15.2362 19.797 15.1001 20.2051 14.692C20.4772 14.2839 20.6133 13.8758 20.6133 13.4677C20.6133 13.0596 20.4772 12.6515 20.2051 12.3794C19.797 12.1073 19.2529 11.8353 18.8448 11.6992C18.7297 11.6417 18.612 11.5842 18.4926 11.5259C17.7655 11.1706 16.9804 10.7871 16.3961 10.2028C15.8519 9.65865 15.5799 8.84243 15.5799 8.0262C15.4438 7.20998 15.8519 6.39376 16.3961 5.71357C16.9402 5.16942 17.6204 4.76131 18.3006 4.62527V2.72075H19.9331V4.62527C20.4772 4.62527 21.0214 4.76131 21.4295 5.03338C21.8376 5.30546 22.2457 5.57753 22.6538 5.98564L21.4295 7.61809C21.0214 7.07394 20.3412 6.66583 19.525 6.66583C19.1168 6.52979 18.7087 6.80187 18.3006 7.07394C18.0285 7.20998 17.8925 7.61809 17.8925 7.89017C17.8925 8.16224 18.0285 8.57035 18.4367 8.70639ZM8.23386 10.883C8.23386 4.89735 13.1312 0 19.1168 0C25.1025 0 29.9998 4.89735 29.9998 10.883C29.9998 16.8686 25.1025 21.766 19.1168 21.766C13.1312 21.766 8.23386 16.8686 8.23386 10.883ZM9.73027 10.883C9.73027 16.0524 13.9474 20.2696 19.1168 20.2696C24.2863 20.2696 28.5034 16.0524 28.5034 10.883C28.5034 5.71357 24.2863 1.49641 19.1168 1.49641C13.9474 1.49641 9.73027 5.71357 9.73027 10.883ZM10.0982 1.21997C10.2933 1.41506 10.4029 1.67966 10.4029 1.95556C10.4029 2.23147 10.2933 2.49607 10.0982 2.69116C9.90307 2.88625 9.63847 2.99585 9.36257 2.99585H1.04029C0.764385 2.99585 0.499783 2.88625 0.304692 2.69116C0.1096 2.49607 0 2.23147 0 1.95556C0 1.67966 0.1096 1.41506 0.304692 1.21997C0.499783 1.02488 0.764385 0.915278 1.04029 0.915278H9.36257C9.63847 0.915278 9.90307 1.02488 10.0982 1.21997ZM6.09707 7.46169C5.90197 7.26659 5.63737 7.15699 5.36147 7.15699H1.04029C0.764385 7.15699 0.499783 7.26659 0.304692 7.46169C0.1096 7.65678 0 7.92138 0 8.19728C0 8.47318 0.1096 8.73778 0.304692 8.93287C0.499783 9.12796 0.764385 9.23756 1.04029 9.23756H5.36147C5.63737 9.23756 5.90197 9.12796 6.09707 8.93287C6.29216 8.73778 6.40176 8.47318 6.40176 8.19728C6.40176 7.92138 6.29216 7.65678 6.09707 7.46169ZM5.93702 13.7034C5.74193 13.5083 5.47733 13.3987 5.20143 13.3987H1.04029C0.764385 13.3987 0.499783 13.5083 0.304692 13.7034C0.1096 13.8985 0 14.1631 0 14.439C0 14.7149 0.1096 14.9795 0.304692 15.1746C0.499783 15.3697 0.764385 15.4793 1.04029 15.4793H5.20143C5.47733 15.4793 5.74193 15.3697 5.93702 15.1746C6.13211 14.9795 6.24171 14.7149 6.24171 14.439C6.24171 14.1631 6.13211 13.8985 5.93702 13.7034ZM9.1379 19.9451C8.94281 19.75 8.67821 19.6404 8.40231 19.6404H1.04029C0.764385 19.6404 0.499783 19.75 0.304692 19.9451C0.1096 20.1402 0 20.4048 0 20.6807C0 20.9566 0.1096 21.2212 0.304692 21.4163C0.499783 21.6114 0.764385 21.721 1.04029 21.721H8.40231C8.67821 21.721 8.94281 21.6114 9.1379 21.4163C9.33299 21.2212 9.44259 20.9566 9.44259 20.6807C9.44259 20.4048 9.33299 20.1402 9.1379 19.9451Z" fill="white"/>
</svg>
