<svg width="22" height="24" viewBox="0 0 22 24" fill="none" xmlns="http://www.w3.org/2000/svg">
<path d="M13.4615 11.5125L5.85156 10.05V20.8567C5.85165 20.9741 5.87294 21.0904 5.91421 21.1988C5.95547 21.3072 6.01591 21.4057 6.09207 21.4887C6.16824 21.5716 6.25863 21.6374 6.35809 21.6822C6.45755 21.7271 6.56413 21.7501 6.67175 21.75H19.803C19.9107 21.7503 20.0175 21.7274 20.1171 21.6827C20.2167 21.6379 20.3073 21.5722 20.3836 21.4892C20.4599 21.4062 20.5204 21.3077 20.5618 21.1991C20.6031 21.0906 20.6245 20.9743 20.6246 20.8567V16.875L13.4615 11.5125Z" fill="#185C37"/>
<path d="M13.4615 2.25H6.67175C6.56413 2.2499 6.45755 2.27293 6.35809 2.31776C6.25863 2.3626 6.16824 2.42837 6.09207 2.51132C6.01591 2.59426 5.95547 2.69276 5.91421 2.80119C5.87294 2.90962 5.85165 3.02585 5.85156 3.14325V7.125L13.4615 12L17.4909 13.4625L20.6246 12V7.125L13.4615 2.25Z" fill="#21A366"/>
<path d="M5.85156 7.125H13.4615V12H5.85156V7.125Z" fill="#107C41"/>
<path opacity="0.1" d="M11.2979 6.15002H5.85156V18.3375H11.2979C11.515 18.3364 11.7228 18.2419 11.8765 18.0747C12.0301 17.9075 12.1172 17.681 12.1188 17.4443V7.04327C12.1172 6.80653 12.0301 6.58002 11.8765 6.41282C11.7228 6.24562 11.515 6.1512 11.2979 6.15002Z" fill="black"/>
<path opacity="0.2" d="M10.8504 6.63751H5.85156V18.825H10.8504C11.0674 18.8238 11.2753 18.7294 11.4289 18.5622C11.5826 18.395 11.6696 18.1685 11.6712 17.9318V7.53076C11.6696 7.29402 11.5826 7.0675 11.4289 6.90031C11.2753 6.73311 11.0674 6.63869 10.8504 6.63751Z" fill="black"/>
<path opacity="0.2" d="M10.8504 6.63751H5.85156V17.85H10.8504C11.0674 17.8488 11.2753 17.7544 11.4289 17.5872C11.5826 17.42 11.6696 17.1935 11.6712 16.9568V7.53076C11.6696 7.29402 11.5826 7.0675 11.4289 6.90031C11.2753 6.73311 11.0674 6.63869 10.8504 6.63751Z" fill="black"/>
<path opacity="0.2" d="M10.4028 6.63751H5.85156V17.85H10.4028C10.6198 17.8488 10.8277 17.7544 10.9813 17.5872C11.135 17.42 11.2221 17.1935 11.2237 16.9568V7.53076C11.2221 7.29402 11.135 7.0675 10.9813 6.90031C10.8277 6.73311 10.6198 6.63869 10.4028 6.63751Z" fill="black"/>
<path d="M2.19587 6.63751H10.4032C10.6207 6.63731 10.8292 6.73129 10.9832 6.89878C11.1371 7.06628 11.2238 7.29359 11.2241 7.53076V16.4693C11.2238 16.7064 11.1371 16.9337 10.9832 17.1012C10.8292 17.2687 10.6207 17.3627 10.4032 17.3625H2.19587C2.0882 17.3627 1.98154 17.3398 1.882 17.295C1.78246 17.2502 1.69199 17.1844 1.61576 17.1015C1.53952 17.0185 1.47902 16.92 1.43771 16.8115C1.3964 16.703 1.37509 16.5867 1.375 16.4693V7.53076C1.37509 7.4133 1.3964 7.297 1.43771 7.18853C1.47902 7.08005 1.53952 6.98152 1.61576 6.89856C1.69199 6.81561 1.78246 6.74985 1.882 6.70506C1.98154 6.66027 2.0882 6.63732 2.19587 6.63751Z" fill="url(#paint0_linear_0_27)"/>
<path d="M3.91895 14.9048L5.64526 11.9918L4.06401 9.09528H5.33382L6.19663 10.95C6.27638 11.1255 6.33413 11.256 6.36026 11.343H6.37194C6.42832 11.202 6.48813 11.0663 6.5507 10.9335L7.47332 9.09828H8.64207L7.02026 11.9783L8.68332 14.907H7.43963L6.44276 12.8738C6.39647 12.7864 6.35714 12.6948 6.3252 12.6H6.3087C6.27963 12.6923 6.24087 12.7807 6.1932 12.8633L5.16676 14.9048H3.91895Z" fill="white"/>
<path d="M19.8041 2.25H13.4619V7.125H20.625V3.14325C20.6249 3.02579 20.6036 2.90949 20.5623 2.80102C20.521 2.69254 20.4605 2.59401 20.3842 2.51105C20.308 2.4281 20.2175 2.36234 20.118 2.31755C20.0184 2.27276 19.9118 2.2498 19.8041 2.25Z" fill="#33C481"/>
<path d="M13.4619 12H20.625V16.875H13.4619V12Z" fill="#107C41"/>
<defs>
<linearGradient id="paint0_linear_0_27" x1="3.08962" y1="5.93551" x2="10.3832" y2="17.5142" gradientUnits="userSpaceOnUse">
<stop stop-color="#18884F"/>
<stop offset="0.5" stop-color="#117E43"/>
<stop offset="1" stop-color="#0B6631"/>
</linearGradient>
</defs>
</svg>
