<svg width="757" height="504" viewBox="0 0 757 504" fill="none" xmlns="http://www.w3.org/2000/svg">
<line x1="-8.57463e-08" y1="40.0745" x2="756.561" y2="40.0745" stroke="#343B48" stroke-width="2"/>
<line x1="-4.28732e-08" y1="75.4183" x2="756.561" y2="75.4183" stroke="#343B48"/>
<line x1="450.76" y1="101.893" x2="756.566" y2="101.892" stroke="#343B48"/>
<line x1="-4.28732e-08" y1="158.351" x2="756.561" y2="158.351" stroke="#343B48"/>
<line x1="450.76" y1="184.825" x2="756.566" y2="184.825" stroke="#343B48"/>
<line x1="-4.28732e-08" y1="245.459" x2="756.561" y2="245.459" stroke="#343B48"/>
<line x1="450.76" y1="269.041" x2="756.566" y2="269.041" stroke="#343B48"/>
<line x1="-4.28732e-08" y1="339.614" x2="756.561" y2="339.614" stroke="#343B48"/>
<line x1="450.76" y1="364.464" x2="756.566" y2="364.464" stroke="#343B48"/>
<line x1="-4.28732e-08" y1="424.736" x2="756.561" y2="424.736" stroke="#343B48"/>
<line x1="450.76" y1="448.61" x2="756.566" y2="448.61" stroke="#343B48"/>
<line x1="450.76" y1="473.46" x2="756.566" y2="473.46" stroke="#343B48"/>
<line x1="-1.28619e-07" y1="127.366" x2="756.561" y2="127.366" stroke="#343B48" stroke-width="3"/>
<line x1="-1.28619e-07" y1="216.11" x2="756.561" y2="216.11" stroke="#343B48" stroke-width="3"/>
<line x1="-8.57463e-08" y1="394.1" x2="756.561" y2="394.1" stroke="#343B48" stroke-width="2"/>
<line x1="-8.57463e-08" y1="309.042" x2="756.561" y2="309.042" stroke="#343B48" stroke-width="2"/>
<line x1="79.4342" y1="1.47684e-08" x2="79.4342" y2="503.121" stroke="#2E3C57"/>
<line x1="229.411" y1="1.47684e-08" x2="229.411" y2="503.121" stroke="#2E3C57"/>
<line x1="312.291" y1="1.47684e-08" x2="312.291" y2="503.121" stroke="#2E3C57"/>
<line x1="451.26" y1="1.47684e-08" x2="451.26" y2="503.121" stroke="#2E3C57"/>
<line x1="575.357" y1="1.47684e-08" x2="575.357" y2="503.121" stroke="#2E3C57"/>
<line x1="641.708" y1="0.229505" x2="641.708" y2="503.121" stroke="#2E3C57"/>
<line x1="756.5" y1="1.47684e-08" x2="756.5" y2="503.121" stroke="#2E3C57"/>
</svg>
