<svg width="27" height="27" viewBox="0 0 27 27" fill="none" xmlns="http://www.w3.org/2000/svg">
<path d="M1.125 9.64451V4.98026C1.12522 4.6669 1.21269 4.35979 1.37761 4.09333C1.54253 3.82688 1.77838 3.61161 2.05875 3.47164L5.99625 1.50289C6.23033 1.38603 6.48837 1.3252 6.75 1.3252C7.01163 1.3252 7.26967 1.38603 7.50375 1.50289L11.4412 3.47164C11.7216 3.61161 11.9575 3.82688 12.1224 4.09333C12.2873 4.35979 12.3748 4.6669 12.375 4.98026V9.64451C12.375 9.95807 12.2876 10.2654 12.1227 10.5321C11.9578 10.7988 11.7218 11.0142 11.4412 11.1543L7.50375 13.123C7.26967 13.2399 7.01163 13.3007 6.75 13.3007C6.48837 13.3007 6.23033 13.2399 5.99625 13.123L2.05875 11.1543C1.77821 11.0142 1.54224 10.7988 1.37731 10.5321C1.21238 10.2654 1.12501 9.95807 1.125 9.64451ZM2.87212 5.09276C2.80565 5.22602 2.79473 5.3802 2.84176 5.5215C2.88879 5.66279 2.98993 5.77967 3.123 5.84651L6.1875 7.37989V10.6874C6.1875 10.8366 6.24676 10.9796 6.35225 11.0851C6.45774 11.1906 6.60082 11.2499 6.75 11.2499C6.89918 11.2499 7.04226 11.1906 7.14775 11.0851C7.25324 10.9796 7.3125 10.8366 7.3125 10.6874V7.37989L10.377 5.84651C10.4436 5.81377 10.5031 5.76816 10.552 5.71232C10.6009 5.65648 10.6383 5.59151 10.662 5.52115C10.6857 5.4508 10.6952 5.37645 10.69 5.3024C10.6848 5.22834 10.665 5.15605 10.6318 5.08968C10.5985 5.02331 10.5525 4.96418 10.4962 4.9157C10.44 4.86722 10.3748 4.83035 10.3042 4.80721C10.2337 4.78407 10.1593 4.77512 10.0853 4.78088C10.0112 4.78664 9.93911 4.80699 9.873 4.84076L6.75 6.40226L3.627 4.84076C3.56089 4.80771 3.48892 4.78801 3.4152 4.78279C3.34148 4.77757 3.26745 4.78693 3.19734 4.81033C3.12724 4.83373 3.06243 4.87072 3.00663 4.91919C2.95083 4.96765 2.90512 5.02663 2.87212 5.09276ZM12.9971 3.37489C13.3189 3.83726 13.5 4.39526 13.5 4.98026V9.64451C13.5 10.1668 13.3545 10.6788 13.0799 11.1231C12.8053 11.5674 12.4124 11.9264 11.9452 12.16L8.00775 14.1288C7.61723 14.324 7.18661 14.4257 6.75 14.4257C6.31339 14.4257 5.88277 14.324 5.49225 14.1288L2.25 12.5076V19.4061C2.25005 20.0365 2.48533 20.6442 2.90979 21.1103C3.33425 21.5764 3.91736 21.8673 4.545 21.9261C4.67455 22.7149 5.07983 23.432 5.68867 23.9499C6.2975 24.4678 7.07037 24.7527 7.86967 24.7541C8.66896 24.7554 9.4428 24.4731 10.0534 23.9573C10.664 23.4414 11.0717 22.7257 11.2039 21.9374H13.5461C13.6777 22.7252 14.0844 23.4408 14.694 23.9569C15.3035 24.4731 16.0763 24.7563 16.875 24.7563C17.6737 24.7563 18.4465 24.4731 19.056 23.9569C19.6656 23.4408 20.0723 22.7252 20.2039 21.9374H22.2188C22.5512 21.9374 22.8803 21.8719 23.1874 21.7447C23.4945 21.6175 23.7736 21.431 24.0086 21.196C24.2437 20.961 24.4301 20.6819 24.5573 20.3748C24.6845 20.0677 24.75 19.7385 24.75 19.4061V13.3165C24.7498 12.9418 24.6664 12.5717 24.5059 12.2331L22.5945 8.19776C22.3894 7.76469 22.0656 7.39873 21.6607 7.14242C21.2559 6.88611 20.7866 6.75 20.3074 6.74989H18.5625V5.90614C18.5625 5.23481 18.2958 4.59098 17.8211 4.11627C17.3464 3.64157 16.7026 3.37489 16.0312 3.37489H12.9971ZM21.6562 17.4374H23.0625V19.1249H21.6562C21.4325 19.1249 21.2179 19.036 21.0596 18.8778C20.9014 18.7195 20.8125 18.5049 20.8125 18.2811C20.8125 18.0574 20.9014 17.8428 21.0596 17.6845C21.2179 17.5263 21.4325 17.4374 21.6562 17.4374ZM21.0701 8.92001L22.7059 12.3749H18.5625V8.43739H20.3062C20.4662 8.43714 20.623 8.48238 20.7582 8.56783C20.8935 8.65328 21.0017 8.77542 21.0701 8.92001ZM9.5625 21.3749C9.5625 21.5965 9.51885 21.8159 9.43405 22.0207C9.34924 22.2254 9.22494 22.4114 9.06824 22.5681C8.91154 22.7248 8.72552 22.8491 8.52078 22.9339C8.31604 23.0187 8.09661 23.0624 7.875 23.0624C7.65339 23.0624 7.43396 23.0187 7.22922 22.9339C7.02448 22.8491 6.83846 22.7248 6.68176 22.5681C6.52506 22.4114 6.40076 22.2254 6.31595 22.0207C6.23115 21.8159 6.1875 21.5965 6.1875 21.3749C6.1875 20.9273 6.36529 20.4981 6.68176 20.1816C6.99822 19.8652 7.42745 19.6874 7.875 19.6874C8.32255 19.6874 8.75178 19.8652 9.06824 20.1816C9.38471 20.4981 9.5625 20.9273 9.5625 21.3749ZM16.875 19.6874C17.3226 19.6874 17.7518 19.8652 18.0682 20.1816C18.3847 20.4981 18.5625 20.9273 18.5625 21.3749C18.5625 21.8224 18.3847 22.2517 18.0682 22.5681C17.7518 22.8846 17.3226 23.0624 16.875 23.0624C16.4274 23.0624 15.9982 22.8846 15.6818 22.5681C15.3653 22.2517 15.1875 21.8224 15.1875 21.3749C15.1875 20.9273 15.3653 20.4981 15.6818 20.1816C15.9982 19.8652 16.4274 19.6874 16.875 19.6874Z" fill="white"/>
</svg>
