<svg width="42" height="42" viewBox="0 0 42 42" fill="none" xmlns="http://www.w3.org/2000/svg">
<path d="M20.9997 41.4946C15.5642 41.4946 10.3513 39.3354 6.50782 35.4919C2.66433 31.6484 0.505081 26.4355 0.505081 21C0.505081 15.5645 2.66433 10.3516 6.50782 6.50811C10.3513 2.66463 15.5642 0.505378 20.9997 0.505378C26.4352 0.505378 31.6481 2.66463 35.4916 6.50811C39.3351 10.3516 41.4943 15.5645 41.4943 21C41.4943 26.4355 39.3351 31.6484 35.4916 35.4919C31.6481 39.3354 26.4352 41.4946 20.9997 41.4946Z" stroke="#3399FF"/>
<path d="M30.8915 22.2359C31.2396 22.2359 31.5735 22.0976 31.8196 21.8515C32.0658 21.6053 32.204 21.2715 32.204 20.9234C32.204 20.5753 32.0658 20.2415 31.8196 19.9953C31.5735 19.7492 31.2396 19.6109 30.8915 19.6109H15.6849L21.3208 13.9777C21.5672 13.7312 21.7057 13.3969 21.7057 13.0484C21.7057 12.6999 21.5672 12.3656 21.3208 12.1192C21.0743 11.8727 20.7401 11.7342 20.3915 11.7342C20.043 11.7342 19.7087 11.8727 19.4623 12.1192L11.5873 19.9942C11.4651 20.1161 11.3681 20.2609 11.3019 20.4204C11.2358 20.5798 11.2017 20.7508 11.2017 20.9234C11.2017 21.096 11.2358 21.267 11.3019 21.4264C11.3681 21.5859 11.4651 21.7307 11.5873 21.8527L19.4623 29.7277C19.7087 29.9741 20.043 30.1126 20.3915 30.1126C20.7401 30.1126 21.0743 29.9741 21.3208 29.7277C21.5672 29.4812 21.7057 29.1469 21.7057 28.7984C21.7057 28.4499 21.5672 28.1156 21.3208 27.8692L15.6849 22.2359H30.8915Z" fill="#3399FF"/>
</svg>
