<svg width="1357" height="490" viewBox="0 0 1357 490" fill="none" xmlns="http://www.w3.org/2000/svg">
<line x1="-8.74306e-08" y1="40.7771" x2="1357" y2="40.777" stroke="#343B48" stroke-width="2"/>
<line x1="-8.74306e-08" y1="1.00009" x2="1357" y2="0.999971" stroke="#343B48" stroke-width="2"/>
<line x1="-4.37153e-08" y1="75.0204" x2="1357" y2="75.0202" stroke="#343B48"/>
<line x1="495.708" y1="100.657" x2="1357" y2="100.657" stroke="#343B48"/>
<line x1="-4.37153e-08" y1="155.334" x2="1357" y2="155.334" stroke="#343B48"/>
<line x1="495.708" y1="180.971" x2="1357" y2="180.971" stroke="#343B48"/>
<line x1="-4.37153e-08" y1="239.69" x2="1357" y2="239.69" stroke="#343B48"/>
<line x1="495.708" y1="262.526" x2="1357" y2="262.526" stroke="#343B48"/>
<line x1="-4.37153e-08" y1="330.871" x2="1357" y2="330.871" stroke="#343B48"/>
<line x1="495.708" y1="354.936" x2="1357" y2="354.936" stroke="#343B48"/>
<line x1="-4.37153e-08" y1="413.304" x2="1357" y2="413.304" stroke="#343B48"/>
<line x1="495.708" y1="436.424" x2="1357" y2="436.424" stroke="#343B48"/>
<line x1="495.708" y1="460.49" x2="1357" y2="460.49" stroke="#343B48"/>
<line x1="-1.31146e-07" y1="125.295" x2="1357" y2="125.295" stroke="#343B48" stroke-width="3"/>
<line x1="-1.31146e-07" y1="211.237" x2="1357" y2="211.237" stroke="#343B48" stroke-width="3"/>
<line x1="-8.74306e-08" y1="383.62" x2="1357" y2="383.62" stroke="#343B48" stroke-width="2"/>
<line x1="-8.74306e-08" y1="301.249" x2="1357" y2="301.248" stroke="#343B48" stroke-width="2"/>
<line x1="64.8613" y1="2.00018" x2="64.8612" y2="489.229" stroke="#2E3C57"/>
<line x1="230.337" y1="2.00018" x2="230.337" y2="489.229" stroke="#2E3C57"/>
<line x1="340.816" y1="2.00018" x2="340.816" y2="489.229" stroke="#2E3C57"/>
<line x1="496.204" y1="2.00018" x2="496.204" y2="489.229" stroke="#2E3C57"/>
<line x1="637.858" y1="2.00018" x2="637.858" y2="489.229" stroke="#2E3C57"/>
<line x1="691.964" y1="2.22285" x2="691.964" y2="489.229" stroke="#2E3C57"/>
<line x1="762.357" y1="2.00018" x2="762.357" y2="489.229" stroke="#2E3C57"/>
<line x1="891.033" y1="2.00018" x2="891.033" y2="489.229" stroke="#2E3C57"/>
<line x1="1043.21" y1="2.00018" x2="1043.21" y2="489.229" stroke="#2E3C57"/>
<line x1="1184.58" y1="2.00018" x2="1184.58" y2="489.229" stroke="#2E3C57"/>
</svg>
