<svg width="24" height="24" viewBox="0 0 24 24" fill="none" xmlns="http://www.w3.org/2000/svg">
<path d="M0 3.42857C0 2.51926 0.361223 1.64719 1.00421 1.00421C1.64719 0.361223 2.51926 0 3.42857 0H5.14286V6C5.14286 6.68199 5.41377 7.33604 5.89601 7.81827C6.37825 8.30051 7.0323 8.57143 7.71429 8.57143H14.5714C15.2534 8.57143 15.9075 8.30051 16.3897 7.81827C16.8719 7.33604 17.1429 6.68199 17.1429 6V0H17.7926C18.7018 0.000194185 19.5737 0.361545 20.2166 1.00457L22.9954 3.78343C23.6385 4.42626 23.9998 5.29819 24 6.20743V20.5714C24 21.4807 23.6388 22.3528 22.9958 22.9958C22.3528 23.6388 21.4807 24 20.5714 24V14.5714C20.5714 13.8894 20.3005 13.2354 19.8183 12.7532C19.336 12.2709 18.682 12 18 12H6C5.31801 12 4.66396 12.2709 4.18173 12.7532C3.69949 13.2354 3.42857 13.8894 3.42857 14.5714V24C2.51926 24 1.64719 23.6388 1.00421 22.9958C0.361223 22.3528 0 21.4807 0 20.5714V3.42857Z" fill="#6E768C"/>
<path d="M15.4279 0H6.85645V6C6.85645 6.22733 6.94675 6.44534 7.1075 6.60609C7.26824 6.76684 7.48626 6.85714 7.71359 6.85714H14.5707C14.7981 6.85714 15.0161 6.76684 15.1768 6.60609C15.3376 6.44534 15.4279 6.22733 15.4279 6V0Z" fill="#6E768C"/>
<path d="M18.8569 14.571V23.9996H5.14258V14.571C5.14258 14.3437 5.23288 14.1257 5.39363 13.9649C5.55437 13.8042 5.77239 13.7139 5.99972 13.7139H17.9997C18.227 13.7139 18.4451 13.8042 18.6058 13.9649C18.7666 14.1257 18.8569 14.3437 18.8569 14.571Z" fill="#DC6470"/>
</svg>
