<svg width="29" height="55" viewBox="0 0 29 55" fill="none" xmlns="http://www.w3.org/2000/svg">
<path d="M28.9861 36.3664L28.9884 36.5773C28.9921 39.4974 27.885 42.3123 25.8866 44.4639L25.8935 44.4547C23.8118 46.7199 20.9965 48.1981 17.9313 48.6352L17.8594 48.6444V54.0534C17.8594 54.3045 17.7584 54.5452 17.5788 54.7228C17.3991 54.9003 17.1553 55 16.9012 55H16.8618H16.8641H12.6719C12.4089 54.997 12.1574 54.8925 11.9714 54.7087C11.7854 54.525 11.6796 54.2766 11.6766 54.0167V48.6444C10.2786 48.4599 8.90484 48.1264 7.57949 47.6497L7.71637 47.6933C5.73667 47.0391 3.87915 46.0681 2.21798 44.8191L2.26438 44.8535C1.757 44.491 1.26986 44.1015 0.805108 43.6869L0.821348 43.7007C0.563055 43.4562 0.382095 43.2728 0.278469 43.1506C0.110743 42.9858 0.0117149 42.7649 0.000974719 42.5315C-0.00976543 42.298 0.0685642 42.0691 0.220469 41.89L0.218149 41.8923L3.41742 37.7485C3.50242 37.6403 3.61006 37.5515 3.73299 37.4882C3.85591 37.4249 3.99122 37.3886 4.12966 37.3818H4.13198C4.26956 37.3568 4.41142 37.3694 4.54226 37.4183C4.67309 37.4672 4.78793 37.5504 4.87438 37.6591L4.8767 37.6614L4.93702 37.721C7.03467 39.6184 9.6019 40.9355 12.3796 41.5394L12.4863 41.56C13.1776 41.7158 13.9711 41.8052 14.7854 41.8052L14.9292 41.8075C16.5324 41.8075 18.0171 41.3125 19.2398 40.469L19.2143 40.4851C19.8309 40.0732 20.3304 39.5121 20.6651 38.8553C20.9998 38.1984 21.1584 37.4678 21.1259 36.7331V36.7423C21.1259 36.1395 20.9519 35.578 20.6527 35.1036L20.6596 35.1173C20.3768 34.6441 20.0277 34.2127 19.6226 33.8361L19.6203 33.8338C19.081 33.387 18.488 33.0075 17.8547 32.7039L17.8037 32.681C16.9747 32.2623 16.2942 31.9345 15.7621 31.6977C15.2301 31.4609 14.4018 31.1285 13.2774 30.7007C12.47 30.3737 11.8328 30.1178 11.3657 29.9329C10.8986 29.748 10.2614 29.4768 9.45405 29.1193C8.64669 28.7617 7.99941 28.4447 7.51221 28.1681C7.02501 27.8915 6.4396 27.5286 5.75598 27.0794C5.15709 26.6982 4.59692 26.2607 4.08326 25.773L4.08558 25.7753C3.61939 25.3093 3.178 24.8197 2.76318 24.3085L2.73302 24.2718C2.29368 23.7457 1.92917 23.1627 1.64959 22.5391L1.63103 22.4909C1.36156 21.8579 1.14809 21.203 0.993027 20.5336L0.976787 20.4511C0.799292 19.6827 0.710565 18.8969 0.712308 18.1087V18.0537V17.985C0.712308 15.12 1.87463 12.5209 3.76078 10.6278L3.75846 10.6301C5.86085 8.47079 8.60823 7.03378 11.5977 6.52977L11.6812 6.51831V0.983248V0.97408C11.6812 0.705922 11.7949 0.462975 11.9759 0.291078C12.0653 0.199035 12.1727 0.125802 12.2915 0.0757815C12.4103 0.0257607 12.5381 -1.60612e-05 12.6672 7.508e-09H16.9059C17.4348 7.508e-09 17.864 0.424011 17.864 0.946577V0.98554V0.983248V6.38538C19.14 6.51831 20.3047 6.76814 21.4206 7.12568L21.2976 7.0913C22.3625 7.41218 23.258 7.76285 24.1187 8.17081L23.9981 8.12039C24.759 8.49398 25.4063 8.87673 26.0188 9.30304L25.9724 9.27095C26.5911 9.70184 26.9948 9.99826 27.1834 10.1602C27.3721 10.3222 27.5276 10.4651 27.6498 10.5888C27.8166 10.7308 27.9246 10.9286 27.9528 11.1443C27.9811 11.3601 27.9277 11.5785 27.8029 11.7577L27.8052 11.7554L25.295 16.2385C25.2323 16.3763 25.133 16.4947 25.0075 16.5811C24.8821 16.6675 24.7353 16.7186 24.5827 16.729H24.5804C24.4331 16.7592 24.2807 16.7555 24.135 16.7182C23.9894 16.6808 23.8544 16.6108 23.7406 16.5135H23.7429C23.681 16.4524 23.531 16.3302 23.2928 16.1468C23.0546 15.9635 22.6509 15.6922 22.0818 15.3332C21.5295 14.9835 20.9553 14.6688 20.3627 14.3912L20.2652 14.3499C19.5511 14.0255 18.8088 13.7655 18.0473 13.5729L17.9499 13.5523C17.085 13.3184 16.1924 13.1997 15.2958 13.1994H15.2935C13.5753 13.1216 11.8773 13.5908 10.4493 14.5379L10.4795 14.5195C9.68967 15.038 9.10185 15.8064 8.81262 16.6986C8.5234 17.5908 8.54997 18.5536 8.88797 19.4289L8.87869 19.4014C9.09213 19.9056 9.40301 20.3319 9.79277 20.6734L9.79741 20.6757C10.1709 21.0218 10.57 21.3541 10.9876 21.6635L11.0247 21.6888C11.5235 22.028 12.0965 22.3465 12.6974 22.6124L12.767 22.6399C13.5434 22.9975 14.1698 23.274 14.6462 23.4696C15.1226 23.6652 15.848 23.9463 16.8223 24.313C17.9205 24.7225 18.7595 25.0449 19.3395 25.2802C19.9195 25.5155 20.7068 25.8739 21.7013 26.3552C22.539 26.7438 23.3463 27.1935 24.1164 27.7005L24.0491 27.6593C24.7683 28.1635 25.3947 28.6677 25.991 29.2064L25.977 29.1926C26.6197 29.7473 27.1672 30.389 27.6034 31.1064L27.6242 31.1431C28.0094 31.8146 28.3411 32.5962 28.5824 33.4144L28.6033 33.4923C28.8562 34.3289 29 35.2915 29 36.2862V36.3825V36.3779L28.9861 36.3664Z" fill="#C0C4C6"/>
</svg>
