<svg width="37" height="36" viewBox="0 0 37 36" fill="none" xmlns="http://www.w3.org/2000/svg">
<path d="M29.7999 10.0409L30.4474 7.97544C30.567 7.59492 30.8371 7.27621 31.1982 7.08943C31.5593 6.90264 31.9819 6.86308 32.3729 6.97944C32.764 7.0958 33.0916 7.35856 33.2836 7.70991C33.4755 8.06126 33.5162 8.47242 33.3966 8.85294L31.5929 14.5904C31.4733 14.9707 31.2035 15.2892 30.8428 15.4759C30.482 15.6627 30.0598 15.7024 29.6689 15.5864L23.772 13.8314C23.5743 13.7773 23.3897 13.6853 23.2291 13.5608C23.0684 13.4362 22.935 13.2817 22.8366 13.1064C22.7382 12.931 22.6768 12.7382 22.656 12.5394C22.6352 12.3406 22.6554 12.1398 22.7155 11.9487C22.7756 11.7576 22.8743 11.5801 23.0059 11.4267C23.1374 11.2732 23.2992 11.1469 23.4816 11.0551C23.664 10.9634 23.8635 10.908 24.0682 10.8922C24.273 10.8765 24.4789 10.9007 24.6739 10.9634L27.2515 11.7299C26.112 10.0483 24.5226 8.70096 22.6544 7.83307C20.7862 6.96517 18.7101 6.6096 16.6496 6.80465C14.5891 6.9997 12.6223 7.73797 10.9611 8.93996C9.29992 10.142 8.0072 11.7621 7.2222 13.6259L6.82137 14.5754C6.74847 14.7629 6.63771 14.9342 6.49563 15.0793C6.35354 15.2244 6.18302 15.3403 5.99413 15.4202C5.80523 15.5001 5.6018 15.5423 5.39584 15.5445C5.18989 15.5466 4.98558 15.5085 4.79499 15.4326C4.60439 15.3566 4.43138 15.2442 4.28617 15.1021C4.14095 14.96 4.02648 14.791 3.94951 14.6051C3.87254 14.4192 3.83464 14.2202 3.83803 14.0198C3.84143 13.8194 3.88606 13.6218 3.96929 13.4384L4.37012 12.4889C5.36639 10.1239 7.00594 8.06747 9.11272 6.54057C11.2195 5.01367 13.7139 4.07395 16.3282 3.82228C18.9424 3.57062 21.5778 4.01653 23.9512 5.11214C26.3247 6.20775 28.3466 7.91166 29.7999 10.0409ZM5.87016 25.9604L5.36604 27.9269C5.32093 28.122 5.23621 28.3063 5.11686 28.469C4.99751 28.6317 4.84594 28.7696 4.67105 28.8745C4.49616 28.9794 4.30148 29.0492 4.09845 29.0799C3.89542 29.1105 3.68814 29.1014 3.4888 29.053C3.28945 29.0046 3.10205 28.918 2.93762 28.7981C2.77319 28.6782 2.63504 28.5276 2.53129 28.3551C2.42755 28.1825 2.3603 27.9915 2.33349 27.7933C2.30668 27.5951 2.32087 27.3937 2.3752 27.2009L3.86599 21.3809C3.91629 21.1828 4.00762 20.9967 4.1344 20.8341C4.26118 20.6714 4.42074 20.5357 4.6033 20.4352C4.78587 20.3346 4.98761 20.2714 5.19616 20.2494C5.40472 20.2273 5.6157 20.2469 5.8162 20.3069L11.7177 21.7379C12.1145 21.8342 12.4558 22.0799 12.6664 22.421C12.877 22.7621 12.9398 23.1706 12.8408 23.5567C12.7419 23.9428 12.4893 24.2748 12.1388 24.4797C11.7882 24.6847 11.3683 24.7457 10.9715 24.6494L8.21812 23.9819C9.39521 25.7352 11.059 27.1279 13.0166 27.9984C14.9742 28.8689 17.1453 29.1816 19.2782 28.9002C21.411 28.6188 23.4181 27.7549 25.0668 26.4086C26.7154 25.0623 27.938 23.2889 28.5928 21.2939C28.6543 21.1062 28.7533 20.9321 28.884 20.7816C29.0147 20.6311 29.1746 20.5071 29.3545 20.4167C29.5345 20.3263 29.7309 20.2713 29.9327 20.2548C30.1345 20.2382 30.3377 20.2606 30.5307 20.3204C30.7236 20.3803 30.9025 20.4766 31.0572 20.6038C31.2119 20.7309 31.3394 20.8865 31.4323 21.0616C31.5252 21.2367 31.5817 21.4278 31.5987 21.6242C31.6157 21.8205 31.5927 22.0182 31.5312 22.2059C30.8894 24.1649 29.8142 25.9632 28.3812 27.4743C26.9482 28.9854 25.1923 30.1727 23.237 30.9524C20.1904 32.1668 16.8093 32.334 13.6518 31.4264C10.4944 30.5188 7.7494 28.5907 5.87016 25.9604Z" fill="#C0C4C6"/>
</svg>
