<svg width="19" height="19" viewBox="0 0 19 19" fill="none" xmlns="http://www.w3.org/2000/svg">
<g clip-path="url(#clip0_711_6088)">
<path fill-rule="evenodd" clip-rule="evenodd" d="M18.3582 10.5616L8.46277 0.647165C7.58402 -0.231585 6.12696 -0.20071 5.20902 0.719602L5.10333 0.825289L5.06296 0.784915C4.04765 -0.231585 2.35902 -0.190023 1.29146 0.878727L0.988648 1.18273C-0.078915 2.25029 -0.11929 3.94129 0.896022 4.95779L0.937585 4.99935L0.741647 5.19648C-0.17629 6.11441 -0.20954 7.57385 0.670398 8.45498L10.5658 18.3694C11.4446 19.2494 12.904 19.2173 13.8196 18.2982L18.2881 13.8213C19.2073 12.901 19.2381 11.4427 18.3582 10.5616ZM4.07615 6.13698C3.04777 6.13698 2.21533 5.26535 2.21296 4.18829C2.21296 3.11241 3.04777 2.24079 4.07615 2.24079C5.10452 2.24079 5.9334 3.1136 5.93696 4.18829C5.9334 5.26535 5.10215 6.13698 4.07615 6.13698ZM14.7648 15.5289L13.4776 14.2405C12.7033 14.7903 11.7331 14.9637 10.8841 14.6704C10.7873 14.638 10.6981 14.5862 10.6219 14.5182C10.5458 14.4502 10.4843 14.3675 10.4411 14.2749C10.3959 14.1797 10.3705 14.0763 10.3664 13.971C10.3624 13.8657 10.3797 13.7606 10.4174 13.6622C10.4907 13.4654 10.6374 13.3046 10.8268 13.2138C11.0162 13.123 11.2334 13.1092 11.4327 13.1753C11.7153 13.2727 12.0383 13.2311 12.3364 13.0945L10.8485 11.6007C9.71677 12.4105 8.2134 12.3868 7.29546 11.4712C6.37158 10.5485 6.3514 9.04041 7.17196 7.9111L5.91084 6.64879L6.65777 5.90185L7.92721 7.16654C8.70858 6.6191 9.67996 6.44573 10.5302 6.74023C10.6282 6.77433 10.7183 6.82783 10.7952 6.89755C10.872 6.96726 10.934 7.05176 10.9775 7.14598C11.0209 7.24021 11.0449 7.34222 11.0481 7.44594C11.0512 7.54965 11.0334 7.65293 10.9957 7.7496C10.9205 7.94545 10.773 8.10499 10.5837 8.19536C10.3944 8.28572 10.1776 8.30001 9.97802 8.23529C9.6954 8.13673 9.37477 8.1771 9.0779 8.3101L10.5765 9.80279C11.7011 9.0131 13.1866 9.04517 14.0975 9.95479C15.0083 10.8656 15.0439 12.3452 14.2554 13.4639L15.5379 14.7416L14.7648 15.5289Z" fill="#6E768C"/>
<path fill-rule="evenodd" clip-rule="evenodd" d="M8.45936 10.3574C8.77761 10.6744 9.28824 10.7077 9.74305 10.4844L8.3323 9.06775C8.10786 9.52494 8.13992 10.0379 8.45936 10.3574Z" fill="#6E768C"/>
<path fill-rule="evenodd" clip-rule="evenodd" d="M12.9725 11.1043C12.6661 10.7967 12.1793 10.7575 11.7363 10.957L13.121 12.3369C13.3193 11.8963 13.2789 11.4095 12.9725 11.1043Z" fill="#6E768C"/>
</g>
<defs>
<clipPath id="clip0_711_6088">
<rect width="19" height="19" fill="white"/>
</clipPath>
</defs>
</svg>
