<svg width="381" height="172" viewBox="0 0 381 172" fill="none" xmlns="http://www.w3.org/2000/svg">
<path fill-rule="evenodd" clip-rule="evenodd" d="M2.20563 31.978L71.483 8.64068L71.5924 138.095L98.6485 138.107L103.337 67.4781L130.511 66.5001L107.734 55.5793L147.747 66.93L147.773 34.7883L75.3204 0.90612C71.462 -1.12717 70.2244 0.648894 66.2683 2.44034L2.20514 31.979L2.20563 31.978Z" fill="white"/>
<path fill-rule="evenodd" clip-rule="evenodd" d="M259.566 105.644L276.011 87.3507L259.743 87.7738L244.257 105.009L244.257 67.8481H230.513V138.519H244.257L244.271 122.708L250.528 115.708C251.651 116.728 262.756 136.321 263.548 138.517L278.502 138.436L259.566 105.644V105.644Z" fill="white"/>
<path fill-rule="evenodd" clip-rule="evenodd" d="M157.863 103.79L129.176 103.884C129.899 97.8593 137.813 94.0856 143.629 94.0971C149.927 94.1096 156.2 97.7911 157.863 103.79ZM166.913 126.795L156.397 121.429C147.787 130.018 130.187 127.901 128.238 114.152C133.969 114.066 168.443 114.684 170.79 113.845C173.707 105.793 166.434 88.2766 150.769 84.0826C137.373 80.4959 122.679 87.4304 117.475 100.147C112.062 113.376 117.54 127.543 129.816 134.595C141.291 141.186 159.565 138.061 166.913 126.795Z" fill="white"/>
<path fill-rule="evenodd" clip-rule="evenodd" d="M307.32 97.7174C325.323 93.07 328.622 124.31 313.683 128.299C295.558 133.139 291.587 101.779 307.32 97.7174ZM336.752 117.873C342.814 81.3929 289.7 74.1483 283.912 107.893C277.526 145.119 331.164 151.505 336.752 117.873Z" fill="white"/>
<path fill-rule="evenodd" clip-rule="evenodd" d="M219.849 86.1597L179.949 86.2414L179.949 96.979L200.059 97.0963C196.905 103.806 177.267 134.998 176.763 138.222L218.52 138.037L218.485 127.405L196.545 127.257L219.849 86.1597Z" fill="white"/>
<path fill-rule="evenodd" clip-rule="evenodd" d="M360.228 94.1096L360.049 87.4106L347.335 87.2779V138.519H361.083C361.087 129.314 360.645 118.916 361.522 109.845C362.555 99.1743 366.846 96.1169 376.861 100.448L380.928 88.9934C378.11 86.2428 372.166 85.6139 368.399 86.75C363.813 88.1333 363.025 91.2647 360.229 94.1101L360.228 94.1096Z" fill="white"/>
<path fill-rule="evenodd" clip-rule="evenodd" d="M39.8802 68.1701L47.4627 133.801C48.5056 121.783 47.6937 106.588 47.6824 94.2302C47.6707 80.9814 47.72 67.7177 47.6112 54.3828L0 68.9437L39.8802 68.1696V68.1701Z" fill="#FD5162"/>
<path fill-rule="evenodd" clip-rule="evenodd" d="M346.1 164.307C347.679 164.162 350.461 164.131 352.012 164.354C352.513 164.425 352.726 164.474 352.808 164.949C352.923 165.616 352.869 166.265 352.708 166.69C352.653 166.837 352.498 166.982 352.088 167.023C351.125 167.122 347.859 167.179 346.412 167.066C346.028 167.036 345.531 166.839 345.454 166.158C345.412 165.785 345.4 165.445 345.481 164.849C345.536 164.443 345.92 164.323 346.1 164.306V164.307ZM336.867 167.414C337.001 169.902 338.501 171.513 340.63 171.706C344.446 172.053 351.387 172.103 355.196 171.8C359.365 171.469 361.421 171.59 361.103 165.165C361.047 155.664 361.951 153.109 356.335 152.588C355.953 152.552 355.591 152.545 355.123 152.553C351.14 152.585 346.369 152.569 338.106 152.569L338.102 157.317C342.238 157.317 346.393 157.365 350.527 157.332C350.831 157.33 351.047 157.332 351.362 157.333C352.698 157.364 352.703 157.994 352.633 159.174C352.607 159.612 352.651 159.561 352.153 159.579C350.673 159.635 346.261 159.46 342.504 159.524C339.916 159.568 337.847 160.156 337.229 162.483C336.906 163.701 336.737 165.632 336.867 167.413L336.867 167.414Z" fill="#FD5162"/>
<path fill-rule="evenodd" clip-rule="evenodd" d="M316.103 153.6L307.587 153.594L302.405 159.004L302.343 146.562L295.08 146.642L295.112 171.753L302.399 171.793L302.402 167.426L304.885 164.766L309.415 171.794L316.784 171.736L309.883 159.623L316.103 153.6Z" fill="white"/>
<path fill-rule="evenodd" clip-rule="evenodd" d="M334.611 146.588C326.867 145.605 323.217 145.497 322.907 153.645L320.05 153.615L320.056 158.358L322.91 158.337L322.91 171.739L329.87 171.728L329.867 158.316L333.223 158.33L333.204 153.609L329.721 153.615C329.602 151.063 330.043 150.413 331.439 150.249C332.09 150.173 333.299 150.224 334.077 150.272L334.611 146.588H334.611Z" fill="white"/>
<path fill-rule="evenodd" clip-rule="evenodd" d="M275.558 164.307C277.137 164.162 279.919 164.131 281.47 164.354C281.971 164.425 282.184 164.474 282.266 164.949C282.381 165.616 282.327 166.265 282.166 166.69C282.111 166.837 281.956 166.982 281.546 167.023C280.583 167.122 277.317 167.179 275.87 167.066C275.486 167.036 274.989 166.839 274.912 166.158C274.87 165.785 274.858 165.445 274.939 164.849C274.994 164.443 275.378 164.323 275.558 164.306V164.307ZM266.325 167.414C266.459 169.902 267.959 171.513 270.088 171.706C273.904 172.053 280.845 172.103 284.654 171.8C288.823 171.469 290.879 171.59 290.561 165.165C290.505 155.664 291.409 153.109 285.793 152.588C285.411 152.552 285.049 152.545 284.581 152.553C280.598 152.585 275.827 152.569 267.564 152.569L267.56 157.317C271.696 157.317 275.851 157.365 279.985 157.332C280.289 157.33 280.504 157.332 280.82 157.333C282.156 157.364 282.16 157.994 282.091 159.174C282.065 159.612 282.109 159.561 281.611 159.579C280.13 159.635 275.718 159.46 271.962 159.524C269.373 159.568 267.304 160.156 266.687 162.483C266.364 163.701 266.195 165.632 266.325 167.413L266.325 167.414Z" fill="#FD5162"/>
</svg>
