<svg width="56" height="55" viewBox="0 0 56 55" fill="none" xmlns="http://www.w3.org/2000/svg">
<path d="M7.2486 4.66903V54.2479H48.4806V4.72146M49.1941 7.98948H54.9351V0.752055H0.752055V7.98948H6.49284" stroke="#6E768C" stroke-width="1.5"/>
<path d="M33.4533 27.7L33.4542 27.7827C33.4556 28.9273 33.0269 30.0307 32.253 30.8741L32.2557 30.8705C31.4496 31.7584 30.3594 32.3378 29.1724 32.5092L29.1446 32.5128V34.633C29.1446 34.7314 29.1055 34.8258 29.0359 34.8953C28.9663 34.9649 28.872 35.004 28.7736 35.004H28.7583H28.7592H27.1358C27.0339 35.0028 26.9366 34.9619 26.8645 34.8898C26.7925 34.8178 26.7515 34.7205 26.7504 34.6186V32.5128C26.209 32.4404 25.677 32.3097 25.1638 32.1229L25.2168 32.1399C24.4502 31.8835 23.7309 31.5029 23.0876 31.0133L23.1056 31.0268C22.9091 30.8847 22.7204 30.732 22.5405 30.5695L22.5468 30.5749C22.4467 30.4791 22.3767 30.4072 22.3365 30.3593C22.2716 30.2947 22.2332 30.2081 22.2291 30.1166C22.2249 30.0251 22.2553 29.9354 22.3141 29.8652L22.3132 29.8661L23.5521 28.2418C23.585 28.1994 23.6267 28.1646 23.6743 28.1398C23.7219 28.115 23.7743 28.1007 23.8279 28.098H23.8288C23.882 28.0883 23.937 28.0932 23.9876 28.1124C24.0383 28.1315 24.0828 28.1642 24.1163 28.2067L24.1172 28.2076L24.1405 28.231C24.9528 28.9747 25.947 29.491 27.0226 29.7277L27.0639 29.7358C27.3316 29.7969 27.6389 29.8319 27.9542 29.8319L28.0099 29.8328C28.6307 29.8328 29.2057 29.6388 29.6791 29.3082L29.6693 29.3145C29.9081 29.153 30.1015 28.9331 30.2311 28.6756C30.3607 28.4181 30.4221 28.1318 30.4095 27.8438V27.8474C30.4095 27.6111 30.3422 27.391 30.2263 27.205L30.229 27.2104C30.1194 27.0249 29.9842 26.8558 29.8274 26.7082L29.8265 26.7073C29.6176 26.5322 29.388 26.3834 29.1428 26.2644L29.123 26.2554C28.802 26.0913 28.5385 25.9628 28.3324 25.87C28.1264 25.7772 27.8057 25.6469 27.3703 25.4792C27.0576 25.351 26.8109 25.2507 26.63 25.1782C26.4491 25.1058 26.2023 24.9995 25.8897 24.8593C25.5771 24.7192 25.3264 24.5949 25.1377 24.4865C24.9491 24.3781 24.7224 24.2358 24.4577 24.0597C24.2257 23.9103 24.0088 23.7388 23.8099 23.5477L23.8108 23.5486C23.6303 23.3659 23.4594 23.174 23.2987 22.9736L23.287 22.9592C23.1169 22.753 22.9758 22.5245 22.8675 22.28L22.8603 22.2612C22.756 22.013 22.6733 21.7563 22.6132 21.4939L22.607 21.4616C22.5382 21.1604 22.5039 20.8524 22.5045 20.5434V20.5219V20.4949C22.5045 19.3719 22.9546 18.3531 23.685 17.611L23.6841 17.6119C24.4983 16.7656 25.5622 16.2023 26.7198 16.0047L26.7522 16.0002V13.8306V13.827C26.7522 13.7219 26.7962 13.6267 26.8663 13.5593C26.9009 13.5232 26.9425 13.4945 26.9885 13.4749C27.0345 13.4553 27.084 13.4452 27.134 13.4452H28.7753C28.9802 13.4452 29.1464 13.6114 29.1464 13.8162V13.8315V13.8306V15.9481C29.6405 16.0002 30.0915 16.0981 30.5236 16.2383L30.476 16.2248C30.8884 16.3506 31.2352 16.4881 31.5685 16.648L31.5217 16.6282C31.8164 16.7746 32.0671 16.9247 32.3042 17.0918L32.2863 17.0792C32.5259 17.2481 32.6822 17.3643 32.7552 17.4278C32.8283 17.4913 32.8885 17.5473 32.9358 17.5958C33.0004 17.6514 33.0422 17.729 33.0532 17.8135C33.0641 17.8981 33.0434 17.9837 32.9951 18.054L32.996 18.0531L32.0239 19.8103C31.9997 19.8643 31.9612 19.9108 31.9126 19.9446C31.8641 19.9785 31.8072 19.9985 31.7481 20.0026H31.7472C31.6902 20.0144 31.6312 20.013 31.5748 19.9984C31.5184 19.9837 31.4661 19.9563 31.422 19.9181H31.4229C31.399 19.8942 31.3409 19.8463 31.2486 19.7744C31.1564 19.7025 31.0001 19.5962 30.7797 19.4555C30.5658 19.3184 30.3435 19.1951 30.114 19.0862L30.0762 19.07C29.7997 18.9429 29.5122 18.841 29.2174 18.7655L29.1796 18.7574C28.8447 18.6657 28.4991 18.6192 28.1519 18.619H28.151C27.4856 18.5886 26.8281 18.7725 26.2751 19.1437L26.2868 19.1365C25.9809 19.3397 25.7533 19.641 25.6413 19.9907C25.5293 20.3404 25.5396 20.7178 25.6705 21.0609L25.6669 21.0501C25.7495 21.2478 25.8699 21.4149 26.0209 21.5487L26.0227 21.5496C26.1673 21.6853 26.3218 21.8155 26.4835 21.9368L26.4979 21.9467C26.6911 22.0797 26.913 22.2046 27.1457 22.3088L27.1726 22.3195C27.4733 22.4597 27.7158 22.5681 27.9003 22.6448C28.0848 22.7214 28.3657 22.8316 28.743 22.9754C29.1682 23.1359 29.4932 23.2623 29.7178 23.3545C29.9424 23.4467 30.2472 23.5872 30.6323 23.7758C30.9567 23.9282 31.2693 24.1045 31.5676 24.3032L31.5415 24.287C31.82 24.4847 32.0626 24.6823 32.2935 24.8935L32.2881 24.8881C32.5369 25.1055 32.749 25.357 32.9179 25.6382L32.9259 25.6526C33.0751 25.9158 33.2035 26.2222 33.297 26.5429L33.3051 26.5735C33.403 26.9014 33.4587 27.2787 33.4587 27.6686V27.7063V27.7045L33.4533 27.7Z" fill="#6E768C"/>
</svg>
