<svg width="1125" height="461" viewBox="0 0 1125 461" fill="none" xmlns="http://www.w3.org/2000/svg">
<line x1="-7.36892e-08" y1="50.9617" x2="1124.89" y2="50.9615" stroke="#343B48" stroke-width="2"/>
<line x1="239.141" y1="460.271" x2="239.141" y2="2.00118" stroke="#343B48" stroke-width="2"/>
<line x1="345.203" y1="460.271" x2="345.203" y2="2.00118" stroke="#343B48" stroke-width="2"/>
<line x1="490.289" y1="460.271" x2="490.289" y2="2.00118" stroke="#343B48" stroke-width="2"/>
<line x1="584.344" y1="460.271" x2="584.344" y2="2.00118" stroke="#343B48" stroke-width="2"/>
<line x1="699.412" y1="460.271" x2="699.412" y2="2.00118" stroke="#343B48" stroke-width="2"/>
<line x1="808.476" y1="460.271" x2="808.476" y2="2.00118" stroke="#343B48" stroke-width="2"/>
<line x1="907.534" y1="460.271" x2="907.534" y2="2.00118" stroke="#343B48" stroke-width="2"/>
<line x1="-7.36892e-08" y1="1.00059" x2="1124.89" y2="1.00047" stroke="#343B48" stroke-width="2"/>
<line x1="-7.36892e-08" y1="102.036" x2="1124.89" y2="102.036" stroke="#343B48" stroke-width="2"/>
<line x1="-7.36892e-08" y1="151.935" x2="1124.89" y2="151.935" stroke="#343B48" stroke-width="2"/>
<line x1="-7.36892e-08" y1="200.905" x2="1124.89" y2="200.905" stroke="#343B48" stroke-width="2"/>
<line x1="-7.36892e-08" y1="254.005" x2="1124.89" y2="254.004" stroke="#343B48" stroke-width="2"/>
<line x1="-7.36892e-08" y1="306.895" x2="1124.89" y2="306.895" stroke="#343B48" stroke-width="2"/>
<line x1="-7.36892e-08" y1="357.93" x2="1124.89" y2="357.93" stroke="#343B48" stroke-width="2"/>
<line x1="-7.36892e-08" y1="408.965" x2="1124.89" y2="408.965" stroke="#343B48" stroke-width="2"/>
<line x1="-7.36892e-08" y1="459.999" x2="1124.89" y2="459.999" stroke="#343B48" stroke-width="2"/>
</svg>
