<svg width="32" height="32" viewBox="0 0 32 32" fill="none" xmlns="http://www.w3.org/2000/svg">
<g clip-path="url(#clip0_358_4507)">
<path fill-rule="evenodd" clip-rule="evenodd" d="M30.9192 17.7879L14.2532 1.08986C12.7732 -0.390141 10.3192 -0.338141 8.77319 1.21186L8.59519 1.38986L8.52719 1.32186C6.81719 -0.390141 3.97319 -0.320141 2.17519 1.47986L1.66519 1.99186C-0.132807 3.78986 -0.200807 6.63786 1.50919 8.34986L1.57919 8.41986L1.24919 8.75186C-0.296807 10.2979 -0.352807 12.7559 1.12919 14.2399L17.7952 30.9379C19.2752 32.4199 21.7332 32.3659 23.2752 30.8179L30.8012 23.2779C32.3492 21.7279 32.4012 19.2719 30.9192 17.7879ZM6.86519 10.3359C5.13319 10.3359 3.73119 8.86786 3.72719 7.05386C3.72719 5.24186 5.13319 3.77386 6.86519 3.77386C8.59719 3.77386 9.99319 5.24386 9.99919 7.05386C9.99319 8.86786 8.59319 10.3359 6.86519 10.3359ZM24.8672 26.1539L22.6992 23.9839C21.3952 24.9099 19.7612 25.2019 18.3312 24.7079C18.1681 24.6533 18.0179 24.5661 17.8896 24.4516C17.7614 24.3371 17.6578 24.1977 17.5852 24.0419C17.5091 23.8815 17.4663 23.7073 17.4594 23.53C17.4525 23.3526 17.4817 23.1756 17.5452 23.0099C17.6686 22.6784 17.9158 22.4077 18.2347 22.2548C18.5536 22.1018 18.9195 22.0786 19.2552 22.1899C19.7312 22.3539 20.2752 22.2839 20.7772 22.0539L18.2712 19.5379C16.3652 20.9019 13.8332 20.8619 12.2872 19.3199C10.7312 17.7659 10.6972 15.2259 12.0792 13.3239L9.95519 11.1979L11.2132 9.93986L13.3512 12.0699C14.6672 11.1479 16.3032 10.8559 17.7352 11.3519C17.9002 11.4093 18.052 11.4994 18.1814 11.6168C18.3109 11.7342 18.4153 11.8765 18.4885 12.0352C18.5617 12.1939 18.6021 12.3657 18.6074 12.5404C18.6127 12.7151 18.5827 12.889 18.5192 13.0519C18.3925 13.3817 18.1442 13.6504 17.8253 13.8026C17.5064 13.9548 17.1413 13.9789 16.8052 13.8699C16.3292 13.7039 15.7892 13.7719 15.2892 13.9959L17.8132 16.5099C19.7072 15.1799 22.2092 15.2339 23.7432 16.7659C25.2772 18.2999 25.3372 20.7919 24.0092 22.6759L26.1692 24.8279L24.8672 26.1539Z" fill="white"/>
<path fill-rule="evenodd" clip-rule="evenodd" d="M14.2469 17.4435C14.7829 17.9775 15.6429 18.0335 16.4089 17.6575L14.0329 15.2715C13.6549 16.0415 13.7089 16.9055 14.2469 17.4435Z" fill="white"/>
<path fill-rule="evenodd" clip-rule="evenodd" d="M21.8476 18.7012C21.3316 18.1832 20.5116 18.1172 19.7656 18.4532L22.0976 20.7772C22.4316 20.0352 22.3636 19.2152 21.8476 18.7012Z" fill="white"/>
</g>
<defs>
<clipPath id="clip0_358_4507">
<rect width="32" height="32" fill="white"/>
</clipPath>
</defs>
</svg>
