<svg width="183" height="83" viewBox="0 0 183 83" fill="none" xmlns="http://www.w3.org/2000/svg">
<path fill-rule="evenodd" clip-rule="evenodd" d="M1.05926 15.3625L34.3407 4.15105L34.3932 66.3419L47.3912 66.3475L49.6435 32.417L62.6983 31.9472L51.7561 26.7008L70.9786 32.1537L70.9911 16.7126L36.1842 0.435307C34.3306 -0.5415 33.736 0.311734 31.8355 1.17236L1.05902 15.363L1.05926 15.3625Z" fill="#C0C4C6"/>
<path fill-rule="evenodd" clip-rule="evenodd" d="M124.697 50.7519L132.598 41.9639L124.783 42.1671L117.343 50.4472L117.343 32.5947H110.74V66.5457H117.343L117.35 58.9498L120.355 55.587C120.895 56.0769 126.23 65.4897 126.611 66.5446L133.794 66.5058L124.697 50.7521V50.7519Z" fill="#C0C4C6"/>
<path fill-rule="evenodd" clip-rule="evenodd" d="M75.8373 49.8616L62.0559 49.9069C62.4028 47.0125 66.205 45.1995 68.9991 45.2051C72.0248 45.2111 75.0384 46.9797 75.8373 49.8616ZM80.1848 60.9132L75.133 58.3357C70.9965 62.4617 62.5412 61.4447 61.6049 54.8396C64.3582 54.7983 80.9196 55.0953 82.0476 54.6923C83.4485 50.8241 79.955 42.4089 72.4294 40.394C65.9937 38.6709 58.9346 42.0023 56.4346 48.1115C53.834 54.4668 56.4658 61.2728 62.3629 64.6604C67.8757 67.8271 76.6549 66.3257 80.1848 60.9132Z" fill="#C0C4C6"/>
<path fill-rule="evenodd" clip-rule="evenodd" d="M147.64 46.9442C156.288 44.7116 157.873 59.7194 150.697 61.6358C141.989 63.9611 140.081 48.8953 147.64 46.9442ZM161.779 56.627C164.691 39.1018 139.175 35.6214 136.394 51.8326C133.327 69.7161 159.095 72.7844 161.779 56.627Z" fill="#C0C4C6"/>
<path fill-rule="evenodd" clip-rule="evenodd" d="M105.616 41.3918L86.4479 41.4311L86.4477 46.5895L96.1088 46.6459C94.5934 49.8692 85.1595 64.8541 84.9173 66.4029L104.977 66.3142L104.961 61.2065L94.4208 61.1352L105.616 41.3918Z" fill="#C0C4C6"/>
<path fill-rule="evenodd" clip-rule="evenodd" d="M173.054 45.211L172.968 41.9928L166.861 41.929V66.5458H173.465C173.467 62.1237 173.255 57.1283 173.676 52.7705C174.172 47.6441 176.234 46.1753 181.045 48.2562L182.999 42.7532C181.645 41.4317 178.789 41.1296 176.98 41.6754C174.777 42.3399 174.398 43.8443 173.055 45.2112L173.054 45.211Z" fill="#C0C4C6"/>
<path fill-rule="evenodd" clip-rule="evenodd" d="M19.1588 32.7496L22.8015 64.2791C23.3025 58.5058 22.9124 51.2057 22.907 45.2691C22.9014 38.9043 22.9251 32.5323 22.8728 26.1261L0 33.1212L19.1588 32.7494V32.7496Z" fill="#FD5162"/>
<path fill-rule="evenodd" clip-rule="evenodd" d="M166.268 78.9344C167.027 78.8649 168.363 78.8501 169.109 78.9568C169.349 78.9912 169.452 79.0146 169.491 79.2428C169.546 79.5634 169.52 79.8752 169.443 80.0792C169.417 80.1498 169.342 80.2194 169.145 80.2395C168.682 80.2868 167.114 80.3141 166.418 80.2598C166.234 80.2455 165.995 80.1508 165.958 79.8239C165.938 79.6447 165.932 79.4812 165.971 79.1947C165.998 79 166.182 78.942 166.268 78.934V78.9344ZM161.833 80.4272C161.897 81.6226 162.618 82.3961 163.641 82.489C165.474 82.6557 168.809 82.6797 170.638 82.5342C172.641 82.3751 173.629 82.4331 173.476 79.3465C173.449 74.7824 173.883 73.5547 171.186 73.3043C171.002 73.2872 170.828 73.284 170.603 73.2879C168.69 73.3029 166.398 73.2956 162.428 73.2953L162.426 75.5762C164.413 75.5762 166.409 75.5993 168.395 75.5836C168.541 75.5825 168.645 75.5834 168.797 75.5839C169.438 75.5989 169.44 75.9017 169.407 76.4685C169.395 76.6789 169.416 76.6544 169.177 76.6632C168.465 76.6898 166.346 76.6057 164.541 76.6367C163.297 76.6579 162.303 76.9404 162.007 78.0581C161.851 78.6432 161.771 79.571 161.833 80.4268L161.833 80.4272Z" fill="#FD5162"/>
<path fill-rule="evenodd" clip-rule="evenodd" d="M151.856 73.7907L147.765 73.7877L145.276 76.3869L145.246 70.4094L141.757 70.4482L141.772 82.5117L145.273 82.5309L145.274 80.4327L146.467 79.1551L148.643 82.5311L152.183 82.5036L148.868 76.6841L151.856 73.7907Z" fill="#C0C4C6"/>
<path fill-rule="evenodd" clip-rule="evenodd" d="M160.749 70.4218C157.028 69.9495 155.275 69.8978 155.126 73.8124L153.754 73.7978L153.757 76.0764L155.128 76.066L155.128 82.5045L158.471 82.4995L158.47 76.0563L160.082 76.0628L160.073 73.7951L158.4 73.7978C158.343 72.5718 158.555 72.2595 159.225 72.1807C159.538 72.144 160.119 72.1685 160.492 72.1916L160.749 70.4218H160.749Z" fill="#C0C4C6"/>
<path fill-rule="evenodd" clip-rule="evenodd" d="M132.38 78.9344C133.138 78.8649 134.475 78.8501 135.22 78.9568C135.461 78.9912 135.563 79.0146 135.602 79.2428C135.657 79.5634 135.632 79.8752 135.554 80.0792C135.528 80.1498 135.454 80.2194 135.256 80.2395C134.794 80.2868 133.225 80.3141 132.53 80.2598C132.345 80.2455 132.106 80.1508 132.07 79.8239C132.049 79.6447 132.044 79.4812 132.082 79.1947C132.109 79 132.293 78.942 132.38 78.934V78.9344ZM127.944 80.4272C128.009 81.6226 128.729 82.3961 129.752 82.489C131.585 82.6557 134.92 82.6797 136.75 82.5342C138.753 82.3751 139.74 82.4331 139.587 79.3465C139.56 74.7824 139.995 73.5547 137.297 73.3043C137.113 73.2872 136.939 73.284 136.715 73.2879C134.801 73.3029 132.509 73.2956 128.539 73.2953L128.537 75.5762C130.524 75.5762 132.521 75.5993 134.507 75.5836C134.653 75.5825 134.756 75.5834 134.908 75.5839C135.549 75.5989 135.552 75.9017 135.518 76.4685C135.506 76.6789 135.527 76.6544 135.288 76.6632C134.576 76.6898 132.457 76.6057 130.652 76.6367C129.409 76.6579 128.415 76.9404 128.118 78.0581C127.963 78.6432 127.882 79.571 127.944 80.4268L127.944 80.4272Z" fill="#FD5162"/>
</svg>
