<svg width="12" height="394" viewBox="0 0 12 394" fill="none" xmlns="http://www.w3.org/2000/svg">
<path d="M10.5279 1.00154L5.70231 6.17974L1.00181 1.00154" stroke="#6E768C" stroke-width="2" stroke-linecap="round"/>
<path d="M10.5279 43.0761L5.70231 48.2543L1.00181 43.0761" stroke="#6E768C" stroke-width="2" stroke-linecap="round"/>
<path d="M10.5279 84.3691L5.70231 89.5473L1.00181 84.3691" stroke="#6E768C" stroke-width="2" stroke-linecap="round"/>
<path d="M10.5279 129.143L5.70231 134.321L1.00181 129.143" stroke="#6E768C" stroke-width="2" stroke-linecap="round"/>
<path d="M10.5279 173.917L5.70231 179.095L1.00181 173.917" stroke="#6E768C" stroke-width="2" stroke-linecap="round"/>
<path d="M10.5279 216.08L5.70231 221.258L1.00181 216.08" stroke="#6E768C" stroke-width="2" stroke-linecap="round"/>
<path d="M10.5279 259.277L5.70231 264.455L1.00181 259.277" stroke="#6E768C" stroke-width="2" stroke-linecap="round"/>
<path d="M10.5279 301.276L5.70231 306.454L1.00181 301.276" stroke="#6E768C" stroke-width="2" stroke-linecap="round"/>
<path d="M10.5279 344.309L5.70231 349.487L1.00181 344.309" stroke="#6E768C" stroke-width="2" stroke-linecap="round"/>
<path d="M10.5279 387.342L5.70231 392.52L1.00181 387.342" stroke="#6E768C" stroke-width="2" stroke-linecap="round"/>
</svg>
