<svg width="1125" height="319" viewBox="0 0 1125 319" fill="none" xmlns="http://www.w3.org/2000/svg">
<line x1="-5.20929e-08" y1="65.7915" x2="1124.83" y2="65.7914" stroke="#343B48" stroke-width="2"/>
<line x1="-2.60465e-08" y1="122.951" x2="1124.83" y2="122.951" stroke="#343B48"/>
<line x1="-2.60465e-08" y1="176.794" x2="1124.83" y2="176.794" stroke="#343B48"/>
<line x1="-2.60465e-08" y1="225.347" x2="1124.83" y2="225.347" stroke="#343B48"/>
<line x1="-2.60465e-08" y1="271.931" x2="1124.83" y2="271.93" stroke="#343B48"/>
<line x1="58.2921" y1="9.93845e-09" x2="58.292" y2="318.701" stroke="#2E3C57"/>
<path d="M410.901 0L410.901 318.701" stroke="#2E3C57"/>
<path d="M238.174 0L238.174 318.701" stroke="#2E3C57"/>
<path d="M531.529 0L531.529 318.701" stroke="#2E3C57"/>
<path d="M659.992 0L659.992 318.701" stroke="#2E3C57"/>
<path d="M737.392 0L737.392 318.701" stroke="#2E3C57"/>
<path d="M878.703 0L878.703 318.701" stroke="#2E3C57"/>
<line x1="1124.5" y1="9.93846e-09" x2="1124.5" y2="318.701" stroke="#2E3C57"/>
</svg>
