<svg width="23" height="23" viewBox="0 0 23 23" fill="none" xmlns="http://www.w3.org/2000/svg">
<g clip-path="url(#clip0_75_2756)">
<path d="M20.3677 0H19.09V0.00367941C19.09 0.125659 19.0415 0.242644 18.9553 0.328897C18.869 0.415149 18.752 0.463606 18.63 0.463606H4.37C4.248 0.463606 4.131 0.415149 4.04473 0.328897C3.95846 0.242644 3.91 0.125659 3.91 0.00367941V0H0.92C0.676001 0 0.441995 0.0969128 0.269462 0.269419C0.0969283 0.441925 0 0.675893 0 0.919853L0 22.0801C0 22.3241 0.0969283 22.5581 0.269462 22.7306C0.441995 22.9031 0.676001 23 0.92 23H22.08C22.324 23 22.558 22.9031 22.7305 22.7306C22.9031 22.5581 23 22.3241 23 22.0801V2.65033C23.0113 2.62986 20.3697 0.0163274 20.3677 0Z" fill="#1E2431"/>
<path d="M18.6407 12.192H4.36234C4.24034 12.192 4.12334 12.2405 4.03707 12.3267C3.95081 12.413 3.90234 12.53 3.90234 12.652V23.0003H19.1007V12.652C19.1007 12.3976 18.8949 12.192 18.6407 12.192ZM4.39063 9.8924H18.6125C18.7345 9.8924 18.8515 9.84394 18.9377 9.75769C19.024 9.67144 19.0725 9.55445 19.0725 9.43247V0.12793C19.0457 0.224342 18.9881 0.309348 18.9085 0.369972C18.8289 0.430596 18.7316 0.463505 18.6315 0.463676H4.37154C4.16086 0.463676 3.98491 0.321099 3.93063 0.12793V9.43224C3.9306 9.49266 3.94248 9.55249 3.96558 9.60832C3.98869 9.66415 4.02257 9.71488 4.06528 9.75761C4.108 9.80034 4.15872 9.83424 4.21455 9.85737C4.27037 9.88049 4.33021 9.8924 4.39063 9.8924Z" fill="#2C3342"/>
<path d="M5.06156 12.874H17.9416C18.0636 12.874 18.1806 12.9225 18.2668 13.0087C18.3531 13.095 18.4016 13.212 18.4016 13.3339V21.8497C18.4016 21.9717 18.3531 22.0887 18.2668 22.1749C18.1806 22.2612 18.0636 22.3096 17.9416 22.3096H5.06156C4.80764 22.3096 4.60156 22.2186 4.60156 21.9647V13.3339C4.60156 13.212 4.65003 13.095 4.73629 13.0087C4.82256 12.9225 4.93956 12.874 5.06156 12.874Z" fill="#EBF0F1"/>
<path d="M5.75 17.7109H17.25V17.9409H5.75V17.7109ZM5.75 20.0106H17.25V20.2405H5.75V20.0106Z" fill="#BCC4C8"/>
<path d="M1.60844 19.3203H2.29844C2.42044 19.3203 2.53744 19.3688 2.62371 19.455C2.70997 19.5413 2.75844 19.6583 2.75844 19.7802V20.4701C2.75844 20.5921 2.70997 20.7091 2.62371 20.7953C2.53744 20.8816 2.42044 20.9301 2.29844 20.9301H1.60844C1.48644 20.9301 1.36944 20.8816 1.28317 20.7953C1.1969 20.7091 1.14844 20.5921 1.14844 20.4701V19.7802C1.14844 19.6583 1.1969 19.5413 1.28317 19.455C1.36944 19.3688 1.48644 19.3203 1.60844 19.3203ZM20.6984 19.3203H21.3884C21.5104 19.3203 21.6274 19.3688 21.7137 19.455C21.8 19.5413 21.8484 19.6583 21.8484 19.7802V20.4701C21.8484 20.5921 21.8 20.7091 21.7137 20.7953C21.6274 20.8816 21.5104 20.9301 21.3884 20.9301H20.6984C20.5764 20.9301 20.4594 20.8816 20.3732 20.7953C20.2869 20.7091 20.2384 20.5921 20.2384 20.4701V19.7802C20.2384 19.6583 20.2869 19.5413 20.3732 19.455C20.4594 19.3688 20.5764 19.3203 20.6984 19.3203Z" fill="#364664"/>
<path d="M8.51172 0.457031V8.74169C8.51172 8.86367 8.56018 8.98065 8.64645 9.0669C8.73272 9.15316 8.84972 9.20161 8.97172 9.20161H17.9417C18.0637 9.20161 18.1807 9.15316 18.267 9.0669C18.3533 8.98065 18.4017 8.86367 18.4017 8.74169V0.457031C18.4017 0.458641 8.51586 0.458641 8.51172 0.457031ZM17.0217 7.13217C17.0217 7.19257 17.0098 7.25238 16.9867 7.30818C16.9636 7.36398 16.9297 7.41468 16.887 7.45739C16.8443 7.5001 16.7936 7.53398 16.7378 7.55709C16.6819 7.5802 16.6221 7.5921 16.5617 7.5921H15.1817C15.0597 7.5921 14.9427 7.54364 14.8564 7.45739C14.7702 7.37114 14.7217 7.25415 14.7217 7.13217V2.5267C14.7217 2.40472 14.7702 2.28774 14.8564 2.20148C14.9427 2.11523 15.0597 2.06677 15.1817 2.06677H16.5617C16.6837 2.06677 16.8007 2.11523 16.887 2.20148C16.9733 2.28774 17.0217 2.40472 17.0217 2.5267V7.13217Z" fill="#BCC4C8"/>
<path d="M17.9416 12.874H5.06156C4.93956 12.874 4.82256 12.9225 4.73629 13.0087C4.65003 13.095 4.60156 13.212 4.60156 13.3339V15.6407H18.4016V13.3339C18.4016 13.212 18.3531 13.095 18.2668 13.0087C18.1806 12.9225 18.0636 12.874 17.9416 12.874Z" fill="#F0B750"/>
</g>
<defs>
<clipPath id="clip0_75_2756">
<rect width="23" height="23" fill="white"/>
</clipPath>
</defs>
</svg>
