<svg width="20" height="20" viewBox="0 0 20 20" fill="none" xmlns="http://www.w3.org/2000/svg">
<path fill-rule="evenodd" clip-rule="evenodd" d="M14.2857 5.71453V8.57167H12.8571V7.1431H8.57143C8.1929 7.14197 7.83019 6.9911 7.56252 6.72343C7.29486 6.45577 7.14399 6.09306 7.14286 5.71453V1.42881H1.42857V18.5717H12.8571V20.0002H1.42857C1.04969 20.0002 0.686328 19.8497 0.418419 19.5818C0.15051 19.3139 0 18.9506 0 18.5717V1.42881C0.00113052 1.05028 0.152003 0.687575 0.419668 0.419911C0.687332 0.152246 1.05004 0.00137341 1.42857 0.000242886H8.57143C8.66531 -0.00232559 8.75863 0.0155027 8.84495 0.0524979C8.93127 0.0894932 9.00854 0.144775 9.07143 0.214529L14.0714 5.21453C14.1411 5.27744 14.1964 5.35472 14.2334 5.44103C14.2704 5.52735 14.2882 5.62065 14.2857 5.71453ZM8.57143 1.71453V5.71453H12.5714L8.57143 1.71453ZM6.42857 10.0003H2.85714V17.1431H4.28571V15.0003H6.42857C6.80728 14.9997 7.17031 14.849 7.4381 14.5812C7.70588 14.3134 7.85658 13.9504 7.85714 13.5717V11.4288C7.85676 11.0501 7.70613 10.6869 7.43831 10.4191C7.17048 10.1513 6.80734 10.0006 6.42857 10.0003ZM4.28571 13.5717V11.4288H6.42857L6.42929 13.5717H4.28571ZM12.1429 17.1431C12.711 17.1425 13.2557 16.9166 13.6575 16.5149C14.0592 16.1131 14.2851 15.5684 14.2857 15.0003V12.1431C14.2851 11.575 14.0592 11.0302 13.6575 10.6285C13.2557 10.2268 12.711 10.0008 12.1429 10.0003H9.28571V17.1431H12.1429ZM12.1429 15.7145H10.7143V11.4288H12.1429C12.3322 11.429 12.5138 11.5043 12.6477 11.6382C12.7816 11.7722 12.857 11.9537 12.8571 12.1431V15.0003C12.857 15.1896 12.7816 15.3712 12.6477 15.5051C12.5138 15.639 12.3322 15.7144 12.1429 15.7145ZM20 10.0003V11.4288H17.1429V12.8574H19.2857V14.286H17.1429V17.1431H15.7143V10.0003H20Z" fill="#6E768C"/>
</svg>
