<svg width="88" height="122" viewBox="0 0 88 122" fill="none" xmlns="http://www.w3.org/2000/svg">
<path d="M4.45334 0C2.21205 0 0.395123 1.81693 0.395123 4.05822V20.4465C0.329259 20.4008 0.249274 20.374 0.163033 20.374C0.0729922 20.374 0 20.447 0 20.5371V24.1228C0 24.2129 0.0729922 24.2859 0.163033 24.2859C0.249274 24.2859 0.329259 24.2591 0.395123 24.2134V28.7591C0.329259 28.7134 0.249274 28.6866 0.163033 28.6866C0.0729922 28.6866 0 28.7596 0 28.8497V35.4508C0 35.5408 0.0729922 35.6138 0.163033 35.6138C0.249274 35.6138 0.329259 35.587 0.395123 35.5413V37.0718C0.329259 37.0261 0.249274 36.9993 0.163033 36.9993C0.0729922 36.9993 0 37.0723 0 37.1623V43.7634C0 43.8535 0.0729922 43.9264 0.163033 43.9264C0.249274 43.9264 0.329259 43.8997 0.395123 43.854V117.942C0.395123 120.183 2.21205 122 4.45334 122H83.3963C85.6376 122 87.4546 120.183 87.4546 117.942V4.05822C87.4546 1.81693 85.6376 0 83.3963 0H4.45334Z" fill="#151515"/>
</svg>
