<svg width="30" height="22" viewBox="0 0 30 22" fill="none" xmlns="http://www.w3.org/2000/svg">
<path fill-rule="evenodd" clip-rule="evenodd" d="M18.4379 8.70696C18.846 9.1151 19.3902 9.3872 19.9344 9.52324C20.7507 9.79534 21.4309 10.2035 22.1111 10.8837C22.7914 11.4279 23.0634 12.3802 23.0634 13.1965C23.0634 14.1488 22.6553 15.2372 21.9751 15.9174C21.4309 16.4616 20.7507 16.8697 19.9344 17.0058V19.0465H18.4379V17.2779C17.6216 17.2779 16.8053 16.8697 16.1251 16.4616C15.5809 16.0535 15.1728 15.6453 14.7646 15.1011L16.1251 13.6046C16.3972 14.0128 16.8053 14.4209 17.2135 14.693C17.6216 15.1011 18.3018 15.2372 18.846 15.2372C19.2542 15.2372 19.7983 15.1011 20.2065 14.693C20.4786 14.2849 20.6146 13.8767 20.6146 13.4686C20.6146 13.0604 20.4786 12.6523 20.2065 12.3802C19.7983 12.1081 19.2542 11.836 18.846 11.7C18.7309 11.6425 18.6132 11.5849 18.4938 11.5266C17.7667 11.1714 16.9815 10.7878 16.3972 10.2035C15.853 9.65929 15.5809 8.84301 15.5809 8.02673C15.4449 7.21046 15.853 6.39418 16.3972 5.71395C16.9414 5.16976 17.6216 4.76162 18.3018 4.62558V2.72093H19.9344V4.62558C20.4786 4.62558 21.0228 4.76162 21.4309 5.03371C21.839 5.30581 22.2472 5.5779 22.6553 5.98604L21.4309 7.61859C21.0228 7.07441 20.3425 6.66627 19.5262 6.66627C19.1181 6.53022 18.71 6.80232 18.3018 7.07441C18.0297 7.21045 17.8937 7.61859 17.8937 7.89069C17.8937 8.16278 18.0297 8.57092 18.4379 8.70696ZM8.2344 10.8837C8.2344 4.89767 13.1321 0 19.1181 0C25.1041 0 30.0018 4.89767 30.0018 10.8837C30.0018 16.8697 25.1041 21.7674 19.1181 21.7674C13.1321 21.7674 8.2344 16.8697 8.2344 10.8837ZM9.73091 10.8837C9.73091 16.0535 13.9483 20.2709 19.1181 20.2709C24.2879 20.2709 28.5053 16.0535 28.5053 10.8837C28.5053 5.71395 24.2879 1.49651 19.1181 1.49651C13.9483 1.49651 9.73091 5.71395 9.73091 10.8837ZM10.0988 1.22005C10.2939 1.41516 10.4035 1.67977 10.4035 1.95569C10.4035 2.23161 10.2939 2.49623 10.0988 2.69133C9.90373 2.88644 9.63911 2.99605 9.36319 2.99605H1.04035C0.764435 2.99605 0.499816 2.88644 0.304712 2.69133C0.109607 2.49623 0 2.23161 0 1.95569C0 1.67977 0.109607 1.41516 0.304712 1.22005C0.499816 1.02495 0.764435 0.915339 1.04035 0.915339H9.36319C9.63911 0.915339 9.90373 1.02495 10.0988 1.22005ZM6.09747 7.46218C5.90236 7.26707 5.63774 7.15746 5.36183 7.15746H1.04035C0.764435 7.15746 0.499816 7.26707 0.304712 7.46218C0.109607 7.65728 0 7.9219 0 8.19782C0 8.47374 0.109607 8.73836 0.304712 8.93346C0.499816 9.12856 0.764435 9.23817 1.04035 9.23817H5.36183C5.63774 9.23817 5.90236 9.12856 6.09747 8.93346C6.29257 8.73836 6.40218 8.47374 6.40218 8.19782C6.40218 7.9219 6.29257 7.65728 6.09747 7.46218ZM5.93741 13.7043C5.74231 13.5092 5.47769 13.3996 5.20177 13.3996H1.04035C0.764435 13.3996 0.499816 13.5092 0.304712 13.7043C0.109607 13.8994 0 14.164 0 14.4399C0 14.7159 0.109607 14.9805 0.304712 15.1756C0.499816 15.3707 0.764435 15.4803 1.04035 15.4803H5.20177C5.47769 15.4803 5.74231 15.3707 5.93741 15.1756C6.13252 14.9805 6.24213 14.7159 6.24213 14.4399C6.24213 14.164 6.13252 13.8994 5.93741 13.7043ZM9.1385 19.9464C8.9434 19.7513 8.67878 19.6417 8.40286 19.6417H1.04035C0.764435 19.6417 0.499816 19.7513 0.304712 19.9464C0.109607 20.1415 0 20.4061 0 20.6821C0 20.958 0.109607 21.2226 0.304712 21.4177C0.499816 21.6128 0.764435 21.7224 1.04035 21.7224H8.40286C8.67878 21.7224 8.9434 21.6128 9.1385 21.4177C9.33361 21.2226 9.44322 20.958 9.44322 20.6821C9.44322 20.4061 9.33361 20.1415 9.1385 19.9464Z" fill="#6E768C"/>
</svg>
