<svg width="9" height="17" viewBox="0 0 9 17" fill="none" xmlns="http://www.w3.org/2000/svg">
<path d="M8.966 11.2405L8.96672 11.3057C8.96787 12.2083 8.62542 13.0784 8.00726 13.7434L8.00941 13.7406C7.36549 14.4407 6.49465 14.8976 5.54653 15.0327L5.52428 15.0356V16.7074C5.52428 16.785 5.49306 16.8594 5.43748 16.9143C5.38189 16.9692 5.30651 17 5.2279 17H5.2157H5.21642H3.91968C3.83832 16.9991 3.76055 16.9668 3.70302 16.91C3.64548 16.8532 3.61275 16.7764 3.61182 16.6961V15.0356C3.17937 14.9785 2.75445 14.8755 2.3445 14.7281L2.38684 14.7416C1.77447 14.5394 1.1999 14.2392 0.686069 13.8532L0.700422 13.8638C0.543476 13.7518 0.392794 13.6314 0.249037 13.5032L0.25406 13.5075C0.174165 13.4319 0.11819 13.3753 0.0861363 13.3375C0.034255 13.2865 0.00362365 13.2183 0.000301501 13.1461C-0.00302065 13.0739 0.0212083 13.0032 0.0681957 12.9478L0.0674781 12.9485L1.05708 11.6677C1.08337 11.6343 1.11667 11.6068 1.15469 11.5873C1.19271 11.5677 1.23457 11.5565 1.27739 11.5544H1.27811C1.32066 11.5467 1.36455 11.5506 1.40502 11.5657C1.44549 11.5808 1.48101 11.6065 1.50775 11.6401L1.50846 11.6408L1.52712 11.6592C2.17597 12.2457 2.97007 12.6528 3.82926 12.8394L3.86227 12.8458C4.07612 12.894 4.32155 12.9216 4.57343 12.9216L4.61792 12.9223C5.1138 12.9223 5.57308 12.7693 5.95127 12.5086L5.94337 12.5136C6.13412 12.3863 6.28863 12.2128 6.39215 12.0098C6.49568 11.8068 6.54475 11.581 6.5347 11.3539V11.3567C6.5347 11.1704 6.48087 10.9968 6.3883 10.8502L6.39045 10.8544C6.30297 10.7082 6.19498 10.5749 6.06968 10.4584L6.06896 10.4577C5.90214 10.3196 5.71873 10.2023 5.52285 10.1085L5.50706 10.1014C5.25063 9.97199 5.04013 9.87068 4.87555 9.79748C4.71098 9.72428 4.45479 9.62156 4.10698 9.48932C3.85724 9.38825 3.66014 9.30914 3.51566 9.252C3.37117 9.19485 3.17407 9.11102 2.92433 9.00051C2.6746 8.88999 2.47439 8.79199 2.32368 8.70651C2.17298 8.62103 1.9919 8.50886 1.78044 8.37001C1.5952 8.25218 1.42192 8.11695 1.26304 7.96621L1.26376 7.96692C1.11955 7.82287 0.983022 7.67154 0.85471 7.51353L0.845381 7.50219C0.709484 7.33957 0.596731 7.15938 0.510251 6.96663L0.50451 6.95175C0.421158 6.75609 0.355129 6.55367 0.307164 6.34676L0.302141 6.32125C0.247238 6.08374 0.219793 5.84086 0.220332 5.59725V5.58024V5.55899C0.220332 4.67346 0.579861 3.87011 1.16329 3.28495L1.16257 3.28566C1.81288 2.61825 2.66271 2.17408 3.58742 2.0183L3.61325 2.01475V0.303913V0.30108C3.61325 0.218194 3.64842 0.143101 3.70439 0.0899696C3.73205 0.0615198 3.76526 0.0388844 3.80201 0.0234234C3.83876 0.00796241 3.87829 -4.96436e-06 3.91824 2.32066e-09H5.22934C5.39296 2.32066e-09 5.52572 0.131058 5.52572 0.292578V0.304622V0.303913V1.97366C5.92041 2.01475 6.28066 2.09197 6.62583 2.20249L6.5878 2.19186C6.91719 2.29104 7.19419 2.39943 7.46043 2.52553L7.42311 2.50994C7.65849 2.62541 7.85871 2.74372 8.04816 2.87549L8.03381 2.86557C8.22518 2.99875 8.35004 3.09037 8.40841 3.14044C8.46677 3.1905 8.51486 3.23466 8.55265 3.27291C8.60427 3.31678 8.63766 3.37793 8.6464 3.44461C8.65514 3.51129 8.63862 3.57881 8.60001 3.63421L8.60073 3.6335L7.82426 5.01917C7.80489 5.06176 7.77416 5.09836 7.73536 5.12506C7.69655 5.15176 7.65114 5.16756 7.60395 5.17078H7.60324C7.55766 5.18013 7.51052 5.17899 7.46547 5.16744C7.42041 5.15589 7.37866 5.13425 7.34346 5.10418H7.34417C7.32504 5.08529 7.27863 5.04751 7.20495 4.99084C7.13128 4.93416 7.00641 4.85033 6.83036 4.73935C6.65954 4.63126 6.48193 4.53401 6.2986 4.44818L6.26846 4.43543C6.04756 4.33517 5.81795 4.25479 5.58241 4.19528L5.55227 4.1889C5.28476 4.11661 5.00866 4.07992 4.73131 4.0798H4.73059C4.19914 4.05578 3.67391 4.2008 3.2322 4.49352L3.24152 4.48786C2.99722 4.6481 2.81539 4.88562 2.72593 5.16139C2.63647 5.43715 2.64468 5.73475 2.74923 6.0053L2.74636 5.9968C2.81239 6.15265 2.90855 6.28441 3.02911 6.38997L3.03054 6.39068C3.14608 6.49765 3.26951 6.60037 3.39868 6.69601L3.41017 6.7038C3.56445 6.80865 3.74171 6.90712 3.92757 6.9893L3.9491 6.9978C4.18926 7.10831 4.38302 7.19379 4.53038 7.25424C4.67773 7.3147 4.9021 7.4016 5.20351 7.51494C5.54318 7.64152 5.80272 7.74117 5.98213 7.8139C6.16153 7.88663 6.40504 7.99738 6.71267 8.14615C6.97179 8.26628 7.22149 8.40527 7.45971 8.56199L7.4389 8.54924C7.66136 8.70509 7.85512 8.86095 8.03955 9.02743L8.03524 9.02318C8.23403 9.19461 8.40339 9.39297 8.5383 9.61471L8.54476 9.62604C8.66388 9.83361 8.7665 10.0752 8.84113 10.3281L8.84759 10.3522C8.92582 10.6108 8.97031 10.9083 8.97031 11.2157V11.2455V11.2441L8.966 11.2405Z" fill="white"/>
</svg>
