<svg width="14" height="20" viewBox="0 0 14 20" fill="none" xmlns="http://www.w3.org/2000/svg">
<path d="M14 8.40024V5.60024C14.0025 5.50824 13.985 5.4168 13.9487 5.33221C13.9125 5.24762 13.8583 5.1719 13.79 5.11024L8.89 0.210238C8.82837 0.141879 8.75265 0.0877033 8.66805 0.051448C8.58346 0.0151926 8.492 -0.00227908 8.4 0.000238028H1.4C1.02904 0.00134594 0.673586 0.149201 0.411274 0.411512C0.148963 0.673824 0.00110791 1.02928 0 1.40024V18.2002C0 18.5715 0.1475 18.9276 0.41005 19.1902C0.672601 19.4527 1.0287 19.6002 1.4 19.6002H12.6V18.2002H1.4V1.40024H7V5.60024C7.00111 5.9712 7.14896 6.32665 7.41127 6.58896C7.67359 6.85128 8.02904 6.99913 8.4 7.00024H12.6V8.40024H14ZM8.4 5.60024V1.68024L12.32 5.60024H8.4Z" fill="white"/>
</svg>
