<svg width="24" height="24" viewBox="0 0 24 24" fill="none" xmlns="http://www.w3.org/2000/svg">
<path d="M0 8.45137V3.71309C0.000223017 3.39475 0.0890808 3.08276 0.256618 2.81208C0.424156 2.54139 0.663755 2.3227 0.948571 2.18051L4.94857 0.180514C5.18637 0.0617983 5.44851 0 5.71429 0C5.98007 0 6.24221 0.0617983 6.48 0.180514L10.48 2.18051C10.7648 2.3227 11.0044 2.54139 11.172 2.81208C11.3395 3.08276 11.4283 3.39475 11.4286 3.71309V8.45137C11.4286 8.7699 11.3398 9.08213 11.1723 9.35304C11.0047 9.62394 10.765 9.84281 10.48 9.98508L6.48 11.9851C6.24221 12.1038 5.98007 12.1656 5.71429 12.1656C5.44851 12.1656 5.18637 12.1038 4.94857 11.9851L0.948571 9.98508C0.663581 9.84281 0.423867 9.62394 0.256318 9.35304C0.0887686 9.08213 1.076e-05 8.7699 0 8.45137ZM1.77486 3.82737C1.70733 3.96274 1.69623 4.11937 1.74401 4.26291C1.79178 4.40645 1.89453 4.52518 2.02971 4.59309L5.14286 6.1508V9.5108C5.14286 9.66235 5.20306 9.8077 5.31022 9.91486C5.41739 10.022 5.56273 10.0822 5.71429 10.0822C5.86584 10.0822 6.01118 10.022 6.11835 9.91486C6.22551 9.8077 6.28571 9.66235 6.28571 9.5108V6.1508L9.39886 4.59309C9.46654 4.55982 9.52697 4.51349 9.57666 4.45676C9.62635 4.40004 9.66432 4.33403 9.68838 4.26256C9.71244 4.19109 9.72211 4.11556 9.71685 4.04033C9.71158 3.9651 9.69147 3.89166 9.65769 3.82424C9.6239 3.75682 9.5771 3.69675 9.51999 3.6475C9.46288 3.59825 9.39659 3.56079 9.32493 3.53728C9.25327 3.51378 9.17767 3.50469 9.10249 3.51054C9.0273 3.51639 8.95402 3.53706 8.88686 3.57137L5.71429 5.15766L2.54171 3.57137C2.47456 3.5378 2.40144 3.51778 2.32655 3.51248C2.25166 3.50717 2.17645 3.51668 2.10524 3.54046C2.03402 3.56423 1.96818 3.60181 1.9115 3.65104C1.85481 3.70027 1.80838 3.76019 1.77486 3.82737ZM12.0606 2.08223C12.3874 2.55194 12.5714 3.1188 12.5714 3.71309V8.45137C12.5714 8.98197 12.4236 9.50208 12.1447 9.95342C11.8657 10.4048 11.4666 10.7695 10.992 11.0068L6.992 13.0068C6.59528 13.2052 6.15783 13.3084 5.71429 13.3084C5.27074 13.3084 4.83329 13.2052 4.43657 13.0068L1.14286 11.3599V18.3679C1.14291 19.0083 1.38192 19.6257 1.81312 20.0992C2.24432 20.5726 2.83668 20.8682 3.47429 20.9279C3.6059 21.7292 4.01761 22.4577 4.63611 22.9838C5.2546 23.5099 6.03975 23.7994 6.85173 23.8008C7.66371 23.8022 8.44982 23.5153 9.0701 22.9913C9.69037 22.4673 10.1045 21.7402 10.2389 20.9394H12.6183C12.752 21.7397 13.1651 22.4666 13.7843 22.9909C14.4035 23.5153 15.1886 23.803 16 23.803C16.8114 23.803 17.5965 23.5153 18.2157 22.9909C18.8349 22.4666 19.248 21.7397 19.3817 20.9394H21.4286C21.7663 20.9394 22.1006 20.8729 22.4126 20.7436C22.7246 20.6144 23.0081 20.425 23.2468 20.1862C23.4856 19.9474 23.675 19.664 23.8043 19.352C23.9335 19.04 24 18.7056 24 18.3679V12.1817C23.9998 11.801 23.9151 11.4251 23.752 11.0811L21.8103 6.98166C21.6019 6.54171 21.273 6.16994 20.8617 5.90956C20.4504 5.64919 19.9736 5.51091 19.4869 5.5108H17.7143V4.65366C17.7143 3.97167 17.4434 3.31762 16.9611 2.83538C16.4789 2.35315 15.8248 2.08223 15.1429 2.08223H12.0606ZM20.8571 16.3679H22.2857V18.0822H20.8571C20.6298 18.0822 20.4118 17.9919 20.2511 17.8312C20.0903 17.6704 20 17.4524 20 17.2251C20 16.9978 20.0903 16.7797 20.2511 16.619C20.4118 16.4582 20.6298 16.3679 20.8571 16.3679ZM20.2617 7.71537L21.9234 11.2251H17.7143V7.22509H19.4857C19.6482 7.22483 19.8075 7.27079 19.9449 7.3576C20.0823 7.44441 20.1922 7.56849 20.2617 7.71537ZM8.57143 20.3679C8.57143 20.5931 8.52709 20.816 8.44094 21.024C8.35479 21.232 8.22851 21.4209 8.06933 21.5801C7.91014 21.7393 7.72116 21.8656 7.51317 21.9517C7.30518 22.0379 7.08227 22.0822 6.85714 22.0822C6.63202 22.0822 6.4091 22.0379 6.20111 21.9517C5.99313 21.8656 5.80415 21.7393 5.64496 21.5801C5.48577 21.4209 5.3595 21.232 5.27335 21.024C5.1872 20.816 5.14286 20.5931 5.14286 20.3679C5.14286 19.9133 5.32347 19.4773 5.64496 19.1558C5.96645 18.8343 6.40249 18.6537 6.85714 18.6537C7.3118 18.6537 7.74784 18.8343 8.06933 19.1558C8.39082 19.4773 8.57143 19.9133 8.57143 20.3679ZM16 18.6537C16.4547 18.6537 16.8907 18.8343 17.2122 19.1558C17.5337 19.4773 17.7143 19.9133 17.7143 20.3679C17.7143 20.8226 17.5337 21.2586 17.2122 21.5801C16.8907 21.9016 16.4547 22.0822 16 22.0822C15.5453 22.0822 15.1093 21.9016 14.7878 21.5801C14.4663 21.2586 14.2857 20.8226 14.2857 20.3679C14.2857 19.9133 14.4663 19.4773 14.7878 19.1558C15.1093 18.8343 15.5453 18.6537 16 18.6537Z" fill="#6E768C"/>
</svg>
