<svg width="34" height="34" viewBox="0 0 34 34" fill="none" xmlns="http://www.w3.org/2000/svg">
<path d="M21.6751 15.7249C21.3369 15.7249 21.0126 15.5906 20.7735 15.3515C20.5344 15.1124 20.4001 14.7881 20.4001 14.4499C20.4001 14.1118 20.5344 13.7875 20.7735 13.5484C21.0126 13.3093 21.3369 13.175 21.6751 13.175C22.0132 13.175 22.3375 13.3093 22.5766 13.5484C22.8157 13.7875 22.95 14.1118 22.95 14.4499C22.95 14.7881 22.8157 15.1124 22.5766 15.3515C22.3375 15.5906 22.0132 15.7249 21.6751 15.7249ZM21.6751 20.8248C21.3369 20.8248 21.0126 20.6905 20.7735 20.4514C20.5344 20.2123 20.4001 19.888 20.4001 19.5498C20.4001 19.2117 20.5344 18.8874 20.7735 18.6483C21.0126 18.4092 21.3369 18.2749 21.6751 18.2749C22.0132 18.2749 22.3375 18.4092 22.5766 18.6483C22.8157 18.8874 22.95 19.2117 22.95 19.5498C22.95 19.888 22.8157 20.2123 22.5766 20.4514C22.3375 20.6905 22.0132 20.8248 21.6751 20.8248ZM20.4001 24.6497C20.4001 24.9879 20.5344 25.3121 20.7735 25.5513C21.0126 25.7904 21.3369 25.9247 21.6751 25.9247C22.0132 25.9247 22.3375 25.7904 22.5766 25.5513C22.8157 25.3121 22.95 24.9879 22.95 24.6497C22.95 24.3116 22.8157 23.9873 22.5766 23.7482C22.3375 23.5091 22.0132 23.3747 21.6751 23.3747C21.3369 23.3747 21.0126 23.5091 20.7735 23.7482C20.5344 23.9873 20.4001 24.3116 20.4001 24.6497ZM18.7001 14.4499C18.7001 14.2245 18.6106 14.0083 18.4512 13.8489C18.2918 13.6895 18.0756 13.6 17.8501 13.6H11.9003C11.6748 13.6 11.4587 13.6895 11.2993 13.8489C11.1398 14.0083 11.0503 14.2245 11.0503 14.4499C11.0503 14.6754 11.1398 14.8916 11.2993 15.051C11.4587 15.2104 11.6748 15.2999 11.9003 15.2999H17.8501C18.0756 15.2999 18.2918 15.2104 18.4512 15.051C18.6106 14.8916 18.7001 14.6754 18.7001 14.4499ZM18.7001 19.5498C18.7001 19.3244 18.6106 19.1082 18.4512 18.9488C18.2918 18.7894 18.0756 18.6998 17.8501 18.6998H11.9003C11.6748 18.6998 11.4587 18.7894 11.2993 18.9488C11.1398 19.1082 11.0503 19.3244 11.0503 19.5498C11.0503 19.7753 11.1398 19.9915 11.2993 20.1509C11.4587 20.3103 11.6748 20.3998 11.9003 20.3998H17.8501C18.0756 20.3998 18.2918 20.3103 18.4512 20.1509C18.6106 19.9915 18.7001 19.7753 18.7001 19.5498ZM18.7001 24.6497C18.7001 24.4243 18.6106 24.2081 18.4512 24.0487C18.2918 23.8893 18.0756 23.7997 17.8501 23.7997H11.9003C11.6748 23.7997 11.4587 23.8893 11.2993 24.0487C11.1398 24.2081 11.0503 24.4243 11.0503 24.6497C11.0503 24.8751 11.1398 25.0913 11.2993 25.2507C11.4587 25.4101 11.6748 25.4997 11.9003 25.4997H17.8501C18.0756 25.4997 18.2918 25.4101 18.4512 25.2507C18.6106 25.0913 18.7001 24.8751 18.7001 24.6497ZM14.4502 3.4002C13.9227 3.39992 13.408 3.56327 12.9772 3.86773C12.5464 4.1722 12.2206 4.60279 12.0448 5.10016H9.35034C8.67405 5.10016 8.02546 5.36881 7.54725 5.84702C7.06905 6.32523 6.80039 6.97381 6.80039 7.6501V28.0496C6.80039 28.7259 7.06905 29.3745 7.54725 29.8527C8.02546 30.3309 8.67405 30.5996 9.35034 30.5996H24.65C25.3263 30.5996 25.9749 30.3309 26.4531 29.8527C26.9313 29.3745 27.1999 28.7259 27.1999 28.0496V7.6501C27.1999 6.97381 26.9313 6.32523 26.4531 5.84702C25.9749 5.36881 25.3263 5.10016 24.65 5.10016H21.9555C21.7797 4.60279 21.4539 4.1722 21.0231 3.86773C20.5923 3.56327 20.0776 3.39992 19.5501 3.4002H14.4502ZM13.6002 5.95014C13.6002 5.72471 13.6898 5.50851 13.8492 5.34911C14.0086 5.18971 14.2248 5.10016 14.4502 5.10016H19.5501C19.7755 5.10016 19.9917 5.18971 20.1511 5.34911C20.3105 5.50851 20.4001 5.72471 20.4001 5.95014C20.4001 6.17557 20.3105 6.39176 20.1511 6.55117C19.9917 6.71057 19.7755 6.80012 19.5501 6.80012H14.4502C14.2248 6.80012 14.0086 6.71057 13.8492 6.55117C13.6898 6.39176 13.6002 6.17557 13.6002 5.95014ZM9.35034 6.80012H12.0448C12.2206 7.29749 12.5464 7.72808 12.9772 8.03254C13.408 8.33701 13.9227 8.50036 14.4502 8.50008H19.5501C20.0776 8.50036 20.5923 8.33701 21.0231 8.03254C21.4539 7.72808 21.7797 7.29749 21.9555 6.80012H24.65C24.8754 6.80012 25.0916 6.88967 25.251 7.04907C25.4104 7.20848 25.5 7.42467 25.5 7.6501V28.0496C25.5 28.2751 25.4104 28.4913 25.251 28.6507C25.0916 28.8101 24.8754 28.8996 24.65 28.8996H9.35034C9.12491 28.8996 8.90871 28.8101 8.74931 28.6507C8.58991 28.4913 8.50035 28.2751 8.50035 28.0496V7.6501C8.50035 7.42467 8.58991 7.20848 8.74931 7.04907C8.90871 6.88967 9.12491 6.80012 9.35034 6.80012Z" fill="white"/>
</svg>
