<svg width="16" height="16" viewBox="0 0 16 16" fill="none" xmlns="http://www.w3.org/2000/svg">
<path d="M6.57404 3.69191C6.78134 3.69191 6.98015 3.60956 7.12673 3.46298C7.27331 3.3164 7.35566 3.11759 7.35566 2.91029C7.35566 2.70299 7.27331 2.50418 7.12673 2.3576C6.98015 2.21102 6.78134 2.12867 6.57404 2.12867C6.36674 2.12867 6.16793 2.21102 6.02135 2.3576C5.87477 2.50418 5.79242 2.70299 5.79242 2.91029C5.79242 3.11759 5.87477 3.3164 6.02135 3.46298C6.16793 3.60956 6.36674 3.69191 6.57404 3.69191ZM0.478607 14.1245H6.57404V13.1867H0.947486V12.4056C0.947486 11.8007 1.43793 11.3112 2.04185 11.3112H6.57404V10.8423C6.57404 10.3144 6.74846 9.82673 7.04292 9.43569V5.68465H8.44956V8.54482L8.48894 8.53731C8.59664 7.95977 8.91725 7.4437 9.38732 7.09129V5.68465H11.2628V6.62241H12.2006V5.68465H12.2878C13.1252 5.68465 13.4694 4.60904 12.7848 4.12422L7.29893 0.230642C7.08752 0.0806008 6.83469 0 6.57545 0C6.31621 0 6.06338 0.0806008 5.85197 0.230642L0.363263 4.12422C-0.318488 4.60904 0.0228561 5.68465 0.860275 5.68465H0.947486V10.6923C0.383893 11.0543 0.0097274 11.6863 0.0097274 12.4056V13.6556C0.0097274 13.78 0.0591272 13.8992 0.147059 13.9872C0.234991 14.0751 0.354252 14.1245 0.478607 14.1245ZM6.39399 0.995854C6.44676 0.958469 6.50984 0.93839 6.57451 0.93839C6.63918 0.93839 6.70226 0.958469 6.75503 0.995854L12.0431 4.74689H1.10597L6.39399 0.995854ZM1.88525 10.3791V5.68465H3.76076V10.3734H2.04185C1.9896 10.3733 1.93736 10.3752 1.88525 10.3791ZM6.10516 10.3734H4.69852V5.68465H6.10516V10.3734ZM9.38732 9.43569V8.96681C9.38732 8.59374 9.53552 8.23596 9.79931 7.97216C10.0631 7.70837 10.4209 7.56017 10.794 7.56017H12.6695C13.0425 7.56017 13.4003 7.70837 13.6641 7.97216C13.9279 8.23596 14.0761 8.59374 14.0761 8.96681V9.43569H14.545C14.9181 9.43569 15.2758 9.58388 15.5396 9.84768C15.8034 10.1115 15.9516 10.4693 15.9516 10.8423V12.249H14.0761V11.7801C14.0761 11.6557 14.0267 11.5365 13.9388 11.4485C13.8509 11.3606 13.7316 11.3112 13.6072 11.3112C13.4829 11.3112 13.3636 11.3606 13.2757 11.4485C13.1878 11.5365 13.1384 11.6557 13.1384 11.7801V12.249H10.3251V11.7801C10.3251 11.6557 10.2757 11.5365 10.1877 11.4485C10.0998 11.3606 9.98055 11.3112 9.8562 11.3112C9.73184 11.3112 9.61258 11.3606 9.52465 11.4485C9.43672 11.5365 9.38732 11.6557 9.38732 11.7801V12.249H7.5118V10.8423C7.5118 10.4693 7.66 10.1115 7.92379 9.84768C8.18759 9.58388 8.54538 9.43569 8.91844 9.43569H9.38732ZM10.3251 8.96681V9.43569H13.1384V8.96681C13.1384 8.84245 13.089 8.72319 13.001 8.63526C12.9131 8.54733 12.7938 8.49793 12.6695 8.49793H10.794C10.6696 8.49793 10.5503 8.54733 10.4624 8.63526C10.3745 8.72319 10.3251 8.84245 10.3251 8.96681ZM14.0761 13.1867H15.9516V14.5934C15.9516 14.9664 15.8034 15.3242 15.5396 15.588C15.2758 15.8518 14.9181 16 14.545 16H8.91844C8.54538 16 8.18759 15.8518 7.92379 15.588C7.66 15.3242 7.5118 14.9664 7.5118 14.5934V13.1867H9.38732V13.6556C9.38732 13.78 9.43672 13.8992 9.52465 13.9872C9.61258 14.0751 9.73184 14.1245 9.8562 14.1245C9.98055 14.1245 10.0998 14.0751 10.1877 13.9872C10.2757 13.8992 10.3251 13.78 10.3251 13.6556V13.1867H13.1384V13.6556C13.1384 13.78 13.1878 13.8992 13.2757 13.9872C13.3636 14.0751 13.4829 14.1245 13.6072 14.1245C13.7316 14.1245 13.8509 14.0751 13.9388 13.9872C14.0267 13.8992 14.0761 13.78 14.0761 13.6556V13.1867Z" fill="#C0C4C6"/>
</svg>
