<svg width="1299" height="587" viewBox="0 0 1299 587" fill="none" xmlns="http://www.w3.org/2000/svg">
<line x1="-6.43615e-08" y1="45.0993" x2="1299" y2="45.0992" stroke="#343B48" stroke-width="2"/>
<line x1="-6.43615e-08" y1="1.0001" x2="1299" y2="0.999948" stroke="#343B48" stroke-width="2"/>
<line x1="-6.43615e-08" y1="90.2314" x2="1299" y2="90.2312" stroke="#343B48" stroke-width="2"/>
<line x1="-6.43615e-08" y1="134.325" x2="1299" y2="134.325" stroke="#343B48" stroke-width="2"/>
<line x1="-6.43615e-08" y1="177.598" x2="1299" y2="177.598" stroke="#343B48" stroke-width="2"/>
<line x1="-6.43615e-08" y1="224.52" x2="1299" y2="224.519" stroke="#343B48" stroke-width="2"/>
<line x1="-6.43615e-08" y1="271.257" x2="1299" y2="271.257" stroke="#343B48" stroke-width="2"/>
<line x1="-6.43615e-08" y1="316.355" x2="1299" y2="316.354" stroke="#343B48" stroke-width="2"/>
<line x1="-6.43615e-08" y1="361.452" x2="1299" y2="361.452" stroke="#343B48" stroke-width="2"/>
<line x1="-6.43615e-08" y1="540.018" x2="1299" y2="540.018" stroke="#343B48" stroke-width="2"/>
<line x1="-6.43615e-08" y1="406.549" x2="1299" y2="406.549" stroke="#343B48" stroke-width="2"/>
<line x1="-6.43615e-08" y1="585.116" x2="1299" y2="585.116" stroke="#343B48" stroke-width="2"/>
<line x1="-6.43615e-08" y1="451.647" x2="1299" y2="451.647" stroke="#343B48" stroke-width="2"/>
<line x1="-6.43615e-08" y1="496.745" x2="1299" y2="496.744" stroke="#2E3C57" stroke-width="2"/>
</svg>
