<svg width="15" height="15" viewBox="0 0 15 15" fill="none" xmlns="http://www.w3.org/2000/svg">
<path d="M10.0004 10.6559L11.292 9.36425C11.466 9.19245 11.6861 9.07484 11.9256 9.02571C12.1651 8.97658 12.4138 8.99804 12.6413 9.08748L14.2155 9.71599C14.4454 9.80933 14.6426 9.96865 14.7822 10.1739C14.9217 10.3791 14.9974 10.621 14.9997 10.8692V13.7523C14.9983 13.9211 14.9628 14.0879 14.8953 14.2427C14.8278 14.3974 14.7297 14.5369 14.6069 14.6527C14.4841 14.7685 14.3391 14.8583 14.1806 14.9166C14.0222 14.9749 13.8536 15.0006 13.685 14.992C2.65434 14.3058 0.428608 4.96468 0.00767905 1.38967C-0.0118608 1.21411 0.00599225 1.0364 0.0600635 0.868238C0.114135 0.700075 0.203199 0.545266 0.321396 0.413996C0.439594 0.282726 0.584246 0.17797 0.745837 0.106619C0.907428 0.0352679 1.08229 -0.00106049 1.25893 2.35657e-05H4.04398C4.29251 0.000759203 4.53513 0.0758297 4.74065 0.215579C4.94616 0.355329 5.10517 0.553366 5.19721 0.78422L5.82572 2.35838C5.91813 2.58503 5.9417 2.83388 5.89351 3.07385C5.84531 3.31382 5.72747 3.53427 5.55472 3.70766L4.2631 4.99928C4.2631 4.99928 5.00693 10.0331 10.0004 10.6559Z" fill="#C0C4C6"/>
</svg>
