<svg width="9" height="10" viewBox="0 0 9 10" fill="none" xmlns="http://www.w3.org/2000/svg">
<path d="M5.14286 10H0V0H5.14286C6.16552 0.000794215 7.14601 0.31712 7.86914 0.879557C8.59227 1.44199 8.99898 2.20459 9 3V7C8.99898 7.79541 8.59227 8.55801 7.86914 9.12044C7.14601 9.68288 6.16552 9.99921 5.14286 10ZM2.57143 8H5.14286C5.48375 7.99974 5.81057 7.89429 6.05162 7.70681C6.29266 7.51933 6.42823 7.26514 6.42857 7V3C6.42823 2.73486 6.29266 2.48067 6.05162 2.29319C5.81057 2.10571 5.48375 2.00026 5.14286 2H2.57143V8Z" fill="white"/>
</svg>
