<svg width="24" height="24" viewBox="0 0 24 24" fill="none" xmlns="http://www.w3.org/2000/svg">
<path d="M15.2969 11.0999C15.0582 11.0999 14.8293 11.0051 14.6605 10.8363C14.4917 10.6675 14.3969 10.4386 14.3969 10.1999C14.3969 9.96121 14.4917 9.73229 14.6605 9.56351C14.8293 9.39472 15.0582 9.2999 15.2969 9.2999C15.5356 9.2999 15.7645 9.39472 15.9333 9.56351C16.1021 9.73229 16.1969 9.96121 16.1969 10.1999C16.1969 10.4386 16.1021 10.6675 15.9333 10.8363C15.7645 11.0051 15.5356 11.0999 15.2969 11.0999ZM15.2969 14.6999C15.0582 14.6999 14.8293 14.6051 14.6605 14.4363C14.4917 14.2675 14.3969 14.0386 14.3969 13.7999C14.3969 13.5612 14.4917 13.3323 14.6605 13.1635C14.8293 12.9947 15.0582 12.8999 15.2969 12.8999C15.5356 12.8999 15.7645 12.9947 15.9333 13.1635C16.1021 13.3323 16.1969 13.5612 16.1969 13.7999C16.1969 14.0386 16.1021 14.2675 15.9333 14.4363C15.7645 14.6051 15.5356 14.6999 15.2969 14.6999ZM14.3969 17.3999C14.3969 17.6386 14.4917 17.8675 14.6605 18.0363C14.8293 18.2051 15.0582 18.2999 15.2969 18.2999C15.5356 18.2999 15.7645 18.2051 15.9333 18.0363C16.1021 17.8675 16.1969 17.6386 16.1969 17.3999C16.1969 17.1612 16.1021 16.9323 15.9333 16.7635C15.7645 16.5947 15.5356 16.4999 15.2969 16.4999C15.0582 16.4999 14.8293 16.5947 14.6605 16.7635C14.4917 16.9323 14.3969 17.1612 14.3969 17.3999ZM13.1969 10.1999C13.1969 10.0408 13.1337 9.88816 13.0211 9.77564C12.9086 9.66312 12.756 9.5999 12.5969 9.5999H8.39688C8.23775 9.5999 8.08513 9.66312 7.97261 9.77564C7.86009 9.88816 7.79688 10.0408 7.79688 10.1999C7.79688 10.359 7.86009 10.5116 7.97261 10.6242C8.08513 10.7367 8.23775 10.7999 8.39688 10.7999H12.5969C12.756 10.7999 12.9086 10.7367 13.0211 10.6242C13.1337 10.5116 13.1969 10.359 13.1969 10.1999ZM13.1969 13.7999C13.1969 13.6408 13.1337 13.4882 13.0211 13.3756C12.9086 13.2631 12.756 13.1999 12.5969 13.1999H8.39688C8.23775 13.1999 8.08513 13.2631 7.97261 13.3756C7.86009 13.4882 7.79688 13.6408 7.79688 13.7999C7.79688 13.959 7.86009 14.1116 7.97261 14.2242C8.08513 14.3367 8.23775 14.3999 8.39688 14.3999H12.5969C12.756 14.3999 12.9086 14.3367 13.0211 14.2242C13.1337 14.1116 13.1969 13.959 13.1969 13.7999ZM13.1969 17.3999C13.1969 17.2408 13.1337 17.0882 13.0211 16.9756C12.9086 16.8631 12.756 16.7999 12.5969 16.7999H8.39688C8.23775 16.7999 8.08513 16.8631 7.97261 16.9756C7.86009 17.0882 7.79688 17.2408 7.79688 17.3999C7.79688 17.559 7.86009 17.7116 7.97261 17.8242C8.08513 17.9367 8.23775 17.9999 8.39688 17.9999H12.5969C12.756 17.9999 12.9086 17.9367 13.0211 17.8242C13.1337 17.7116 13.1969 17.559 13.1969 17.3999ZM10.1969 2.3999C9.82448 2.39971 9.4612 2.51502 9.15709 2.72994C8.85297 2.94486 8.62301 3.24881 8.49888 3.5999H6.59688C6.11949 3.5999 5.66165 3.78954 5.32408 4.12711C4.98652 4.46468 4.79688 4.92251 4.79688 5.3999V19.7999C4.79688 20.2773 4.98652 20.7351 5.32408 21.0727C5.66165 21.4103 6.11949 21.5999 6.59688 21.5999H17.3969C17.8743 21.5999 18.3321 21.4103 18.6697 21.0727C19.0072 20.7351 19.1969 20.2773 19.1969 19.7999V5.3999C19.1969 4.92251 19.0072 4.46468 18.6697 4.12711C18.3321 3.78954 17.8743 3.5999 17.3969 3.5999H15.4949C15.3707 3.24881 15.1408 2.94486 14.8367 2.72994C14.5326 2.51502 14.1693 2.39971 13.7969 2.3999H10.1969ZM9.59688 4.1999C9.59688 4.04077 9.66009 3.88816 9.77261 3.77564C9.88513 3.66312 10.0377 3.5999 10.1969 3.5999H13.7969C13.956 3.5999 14.1086 3.66312 14.2211 3.77564C14.3337 3.88816 14.3969 4.04077 14.3969 4.1999C14.3969 4.35903 14.3337 4.51164 14.2211 4.62417C14.1086 4.73669 13.956 4.7999 13.7969 4.7999H10.1969C10.0377 4.7999 9.88513 4.73669 9.77261 4.62417C9.66009 4.51164 9.59688 4.35903 9.59688 4.1999ZM6.59688 4.7999H8.49888C8.62301 5.151 8.85297 5.45495 9.15709 5.66987C9.4612 5.88479 9.82448 6.0001 10.1969 5.9999H13.7969C14.1693 6.0001 14.5326 5.88479 14.8367 5.66987C15.1408 5.45495 15.3707 5.151 15.4949 4.7999H17.3969C17.556 4.7999 17.7086 4.86312 17.8211 4.97564C17.9337 5.08816 17.9969 5.24077 17.9969 5.3999V19.7999C17.9969 19.959 17.9337 20.1116 17.8211 20.2242C17.7086 20.3367 17.556 20.3999 17.3969 20.3999H6.59688C6.43775 20.3999 6.28513 20.3367 6.17261 20.2242C6.06009 20.1116 5.99688 19.959 5.99688 19.7999V5.3999C5.99688 5.24077 6.06009 5.08816 6.17261 4.97564C6.28513 4.86312 6.43775 4.7999 6.59688 4.7999Z" fill="white"/>
</svg>
