<svg width="25" height="22" viewBox="0 0 25 22" fill="none" xmlns="http://www.w3.org/2000/svg">
<path fill-rule="evenodd" clip-rule="evenodd" d="M1.10719 21.9329H23.8948C24.0934 21.9329 24.2883 21.8795 24.4591 21.7781C24.6298 21.6768 24.7701 21.5313 24.8652 21.3569C24.9602 21.1826 25.0066 20.9859 24.9993 20.7874C24.992 20.589 24.9314 20.3962 24.8238 20.2293L13.4542 0.548485C13.3572 0.381431 13.2179 0.242819 13.0505 0.146551C12.883 0.0502829 12.6931 -0.000256378 12.5 9.77987e-07C12.3068 0.000260305 12.1171 0.0513072 11.9499 0.148023C11.7826 0.244738 11.6438 0.383723 11.5472 0.551036L0.149572 20.2784C0.0515242 20.4456 -0.000111513 20.6359 1.8082e-07 20.8297C0.000112653 21.0235 0.0519684 21.2137 0.15021 21.3807C0.247676 21.5483 0.387289 21.6874 0.555173 21.7842C0.723056 21.8811 0.913366 21.9323 1.10719 21.9329ZM12.2691 1.97663C12.3393 1.93609 12.4187 1.91434 12.4997 1.9135C12.5813 1.91379 12.6614 1.93528 12.7321 1.97585C12.8029 2.01642 12.8619 2.07469 12.9033 2.14493L23.001 19.9188C23.0554 19.9997 23.0851 20.0948 23.0864 20.1923C23.0846 20.3154 23.0348 20.4329 22.9476 20.5199C22.8605 20.6068 22.7428 20.6563 22.6197 20.6578H2.38231C2.29996 20.6575 2.21912 20.6356 2.14786 20.5943C2.07661 20.553 2.01741 20.4938 1.97618 20.4225C1.93376 20.3526 1.91139 20.2724 1.9115 20.1907C1.91161 20.1089 1.93421 20.0288 1.97682 19.959L12.0994 2.14493C12.1405 2.07515 12.199 2.01718 12.2691 1.97663ZM8.63183 17.343H16.9998C17.1617 17.343 17.3018 17.3187 17.4201 17.2702C17.5384 17.2216 17.5975 17.1642 17.5975 17.0977V13.1743C17.5975 13.1539 17.5913 13.1283 17.5788 13.0977L16.5702 11.1589C16.5453 11.1078 16.4815 11.0631 16.3787 11.0248C16.276 10.9865 16.1593 10.9674 16.0285 10.9674H9.65915C9.53463 10.9674 9.41944 10.9865 9.3136 11.0248C9.20775 11.0631 9.14549 11.1078 9.12681 11.1589L8.06214 13.0977C8.04346 13.1436 8.03412 13.1692 8.03412 13.1743V17.0977C8.03412 17.1642 8.09327 17.2216 8.21157 17.2702C8.32986 17.3187 8.46995 17.343 8.63183 17.343ZM10.8826 11.4578H11.0227V12.9291H10.481L10.509 12.7988C10.5402 12.6456 10.5137 12.5472 10.4296 12.5038C10.3456 12.4604 10.1448 12.4387 9.82726 12.4387H9.0521L9.29492 11.9482H9.82726C10.0452 11.9482 10.2553 11.8971 10.4577 11.795C10.66 11.6928 10.8017 11.5804 10.8826 11.4578ZM8.63183 13.7873V13.4195H11.0227V13.9099H8.93069C8.84975 13.9099 8.7797 13.8984 8.72056 13.8755C8.66141 13.8525 8.63183 13.8231 8.63183 13.7873ZM8.63183 14.7682V14.4004H11.0227V14.8908H8.93069C8.84975 14.8908 8.7797 14.8793 8.72056 14.8563C8.66141 14.8333 8.63183 14.804 8.63183 14.7682ZM8.63183 15.7491V15.3812H11.0227V15.8717H8.93069C8.84975 15.8717 8.7797 15.8602 8.72056 15.8372C8.66141 15.8142 8.63183 15.7848 8.63183 15.7491ZM8.63183 16.7299V16.3621H11.0227V16.8525H8.93069C8.84975 16.8525 8.7797 16.841 8.72056 16.818C8.66141 16.7951 8.63183 16.7657 8.63183 16.7299ZM13.9225 14.9636C13.9817 15.0121 14.0112 15.0696 14.0112 15.136V15.8717C14.0112 16.0096 13.9536 16.1258 13.8385 16.2203C13.7233 16.3148 13.5816 16.3621 13.4135 16.3621H12.8158V16.6073C12.8158 16.6737 12.7862 16.7312 12.7271 16.7797C12.6679 16.8283 12.5979 16.8525 12.517 16.8525C12.436 16.8525 12.366 16.8283 12.3068 16.7797C12.2477 16.7312 12.2181 16.6737 12.2181 16.6073V16.3621C12.0874 16.3621 11.9706 16.3302 11.8679 16.2663C11.7652 16.2025 11.692 16.1194 11.6484 16.0173C11.7044 15.9202 11.7947 15.8717 11.9192 15.8717H13.4135V15.3812H11.9192C11.8383 15.3812 11.7683 15.357 11.7091 15.3084C11.65 15.2599 11.6204 15.2024 11.6204 15.136V14.4004C11.6204 14.2675 11.6795 14.1526 11.7978 14.0555C11.9161 13.9585 12.0562 13.9099 12.2181 13.9099H12.8158V13.6647C12.8158 13.5983 12.8454 13.5408 12.9045 13.4923C12.9637 13.4438 13.0337 13.4195 13.1147 13.4195C13.1956 13.4195 13.2657 13.4438 13.3248 13.4923C13.384 13.5408 13.4135 13.5983 13.4135 13.6647V13.9099C13.5443 13.9099 13.6626 13.9431 13.7684 14.0096C13.8743 14.076 13.9459 14.1603 13.9832 14.2624C13.9272 14.3544 13.8369 14.4004 13.7124 14.4004H12.2181V14.8908H13.7124C13.7933 14.8908 13.8634 14.9151 13.9225 14.9636ZM15.8044 11.9482H16.3461L16.5795 12.4387H16.1032C15.7546 12.4387 15.4993 12.4616 15.3374 12.5076C15.1755 12.5536 15.1102 12.6507 15.1413 12.7988L15.16 12.9291H14.609V11.4578H14.7957C14.8705 11.5855 15.0028 11.6992 15.1927 11.7988C15.3826 11.8984 15.5865 11.9482 15.8044 11.9482ZM16.7009 13.9099H14.609V13.4195H16.9998V13.7873C16.9998 13.8231 16.9702 13.8525 16.9111 13.8755C16.8519 13.8984 16.7819 13.9099 16.7009 13.9099ZM14.609 14.8908V14.4004H16.9998V14.7682C16.9998 14.804 16.9702 14.8333 16.9111 14.8563C16.8519 14.8793 16.7819 14.8908 16.7009 14.8908H14.609ZM14.609 15.8717V15.3812H16.9998V15.7491C16.9998 15.7848 16.9702 15.8142 16.9111 15.8372C16.8519 15.8602 16.7819 15.8717 16.7009 15.8717H14.609ZM16.7009 16.8525H14.609V16.3621H16.9998V16.7299C16.9998 16.7657 16.9702 16.7951 16.9111 16.818C16.8519 16.841 16.7819 16.8525 16.7009 16.8525Z" fill="#6E768C"/>
</svg>
