<svg width="23" height="23" viewBox="0 0 23 23" fill="none" xmlns="http://www.w3.org/2000/svg">
<path d="M11.5244 22.715C8.56701 22.7125 5.72356 21.5887 3.58153 19.5757C1.4395 17.5627 0.162539 14.8144 0.0144767 11.8986C-0.133586 8.98276 0.858558 6.12218 2.78593 3.90784C4.71331 1.6935 7.42865 0.29459 10.371 0.00012207V4.60026C9.11985 4.80921 7.9511 5.35403 6.99275 6.17506C6.0344 6.99608 5.32343 8.06164 4.9377 9.25501C4.55198 10.4484 4.50638 11.7235 4.80591 12.9408C5.10544 14.158 5.73854 15.2704 6.63586 16.1561C7.53318 17.0418 8.66011 17.6666 9.89321 17.9621C11.1263 18.2576 12.418 18.2124 13.6268 17.8315C14.8356 17.4505 15.9149 16.7485 16.7465 15.8023C17.578 14.8561 18.1297 13.7023 18.3412 12.4672H22.9999C22.7103 15.2743 21.3766 17.8758 19.2568 19.7686C17.137 21.6614 14.3827 22.7112 11.5244 22.715Z" fill="#6E768C"/>
<path d="M23.0029 10.1898H18.3431C18.1036 8.79301 17.4297 7.50446 16.4149 6.50286C15.4001 5.50126 14.0946 4.83627 12.6797 4.60014V0C15.325 0.267096 17.7961 1.4263 19.6765 3.28223C21.557 5.13816 22.7318 7.57733 23.0029 10.1886V10.1898Z" fill="#3399FF"/>
</svg>
