<svg width="22" height="24" viewBox="0 0 22 24" fill="none" xmlns="http://www.w3.org/2000/svg">
<path d="M20.4035 22C20.4609 19.9814 19.9654 17.9856 18.9707 16.2282C17.9759 14.4708 16.5197 13.0187 14.7595 12.029L14.7045 12C18.1315 10.071 20.4085 6.457 20.4085 2.311C20.4085 2.201 20.4065 2.092 20.4035 1.984V2C20.5298 1.99733 20.6542 1.96876 20.769 1.91606C20.8838 1.86337 20.9866 1.78766 21.071 1.69364C21.1553 1.59961 21.2195 1.48927 21.2595 1.36944C21.2995 1.24961 21.3145 1.12285 21.3035 0.997V1C21.314 0.874471 21.2988 0.748113 21.2586 0.628706C21.2185 0.509299 21.1543 0.399371 21.0701 0.305691C20.9859 0.212011 20.8834 0.136562 20.7689 0.0839895C20.6545 0.0314169 20.5304 0.00283373 20.4045 0L0.90449 0C0.778105 0.0025351 0.653588 0.031004 0.538659 0.0836418C0.423729 0.13628 0.320837 0.211964 0.236361 0.306003C0.151885 0.400042 0.0876266 0.510431 0.0475688 0.630327C0.00751091 0.750222 -0.00749214 0.877068 0.00348974 1.003V1C-0.00705497 1.12561 0.00824119 1.25205 0.0484352 1.37152C0.0886291 1.491 0.152869 1.60097 0.237194 1.69467C0.321519 1.78836 0.424142 1.86379 0.538736 1.9163C0.65333 1.96882 0.777465 1.9973 0.90349 2H0.90449C0.847094 4.0187 1.34266 6.01467 2.33761 7.77209C3.33256 9.5295 4.78902 10.9815 6.54949 11.971L6.60449 12C3.17749 13.929 0.90049 17.543 0.90049 21.689C0.90049 21.798 0.90249 21.907 0.90549 22.016V22C0.660579 22.0284 0.434598 22.1457 0.270378 22.3296C0.106158 22.5135 0.015111 22.7512 0.0144946 22.9978C0.0138782 23.2443 0.103735 23.4825 0.267033 23.6673C0.430332 23.852 0.655724 23.9704 0.90049 24H20.4045C20.6494 23.9716 20.8754 23.8543 21.0396 23.6704C21.2038 23.4865 21.2949 23.2488 21.2955 23.0022C21.2961 22.7557 21.2062 22.5175 21.0429 22.3327C20.8796 22.148 20.6543 22.0296 20.4095 22H20.4045H20.4035ZM2.70449 2H18.6045C18.6045 7 15.1045 11 10.6045 11C6.10449 11 2.70449 7 2.70449 2Z" fill="white"/>
</svg>
