<svg width="24" height="25" viewBox="0 0 24 25" fill="none" xmlns="http://www.w3.org/2000/svg">
<path d="M11.9369 3.92676C9.87006 3.92676 8.19454 5.96447 8.19454 8.47811C8.19454 10.2214 9.00046 11.7354 10.1839 12.4999L8.81156 13.1624L5.15958 14.9268C4.80678 15.1105 4.6307 15.4222 4.6307 15.8632V20.0528C4.65972 20.5766 4.96144 21.0648 5.45062 21.0731H18.443C19.0015 21.0225 19.284 20.5539 19.2895 20.0528V15.8632C19.2895 15.4222 19.1134 15.1105 18.7607 14.9268L15.2409 13.1624L13.7781 12.4406C14.913 11.6589 15.6794 10.1776 15.6794 8.47813C15.6793 5.96447 14.0038 3.92676 11.9369 3.92676ZM5.90046 5.52726C5.011 5.56245 4.30608 5.96336 3.77052 6.60217C3.17812 7.3713 2.88932 8.28447 2.88374 9.19288C2.92012 10.5362 3.49712 11.8078 4.52432 12.473L0.42326 14.4582C0.141 14.5684 0 14.8257 0 15.2299V18.5924C0.02204 19.0383 0.24432 19.4131 0.6611 19.4195H3.38678V15.8632C3.43188 14.9124 3.86052 14.1438 4.6307 13.7688L7.35564 12.4184C7.56732 12.2898 7.77026 12.1149 7.9643 11.8944C6.84078 10.0887 6.68476 7.92586 7.40884 6.02357C6.9379 5.72334 6.40864 5.5304 5.90046 5.52726ZM18.0722 5.52726C17.4905 5.53995 16.953 5.76307 16.5114 6.07817C17.2157 7.99769 17.0215 10.1618 15.9818 11.839C16.2111 12.1146 16.4498 12.326 16.6968 12.473L19.3161 13.7688C20.1141 14.2246 20.5255 15 20.5334 15.8632V19.4196H23.3381C23.7994 19.3781 23.996 18.9949 24 18.5924V15.23C24 14.8624 23.859 14.6052 23.5767 14.4582L19.5281 12.4453C20.5781 11.6389 21.1053 10.4303 21.1155 9.19288C21.0876 8.21347 20.8004 7.30405 20.2287 6.60217C19.6314 5.92719 18.8905 5.5344 18.0722 5.52726Z" fill="white"/>
</svg>
