<svg width="33" height="33" viewBox="0 0 33 33" fill="none" xmlns="http://www.w3.org/2000/svg">
<path d="M33 24.7497C33 25.7221 32.6137 26.6548 31.9261 27.3424C31.2384 28.03 30.3058 28.4163 29.3333 28.4163H3.66667C2.69421 28.4163 1.76158 28.03 1.07394 27.3424C0.386308 26.6548 0 25.7221 0 24.7497V21.9997C0 21.0272 0.386308 20.0946 1.07394 19.407C1.76158 18.7193 2.69421 18.333 3.66667 18.333H29.3333C30.3058 18.333 31.2384 18.7193 31.9261 19.407C32.6137 20.0946 33 21.0272 33 21.9997V24.7497Z" fill="#DC6470"/>
<path d="M17.4167 11.9167L16.5193 11H6.5505C3.66667 11 2.75 12.8333 2.75 12.8333L0 18.2957V22.9167H17.4167V11.9167Z" fill="#F0B750"/>
<path d="M8.2487 18.333H1.83203L3.66536 14.6663C3.66536 14.6663 4.58203 12.833 6.41536 12.833H8.2487V18.333Z" fill="#55ACEE"/>
<path d="M8.2487 32.0833C10.2737 32.0833 11.9154 30.4417 11.9154 28.4167C11.9154 26.3916 10.2737 24.75 8.2487 24.75C6.22365 24.75 4.58203 26.3916 4.58203 28.4167C4.58203 30.4417 6.22365 32.0833 8.2487 32.0833Z" fill="#292F33"/>
<path d="M8.2513 30.2497C9.26382 30.2497 10.0846 29.4289 10.0846 28.4163C10.0846 27.4038 9.26382 26.583 8.2513 26.583C7.23878 26.583 6.41797 27.4038 6.41797 28.4163C6.41797 29.4289 7.23878 30.2497 8.2513 30.2497Z" fill="#C0C4C6"/>
<path d="M24.7487 32.0833C26.7737 32.0833 28.4154 30.4417 28.4154 28.4167C28.4154 26.3916 26.7737 24.75 24.7487 24.75C22.7237 24.75 21.082 26.3916 21.082 28.4167C21.082 30.4417 22.7237 32.0833 24.7487 32.0833Z" fill="#292F33"/>
<path d="M24.7513 30.2497C25.7638 30.2497 26.5846 29.4289 26.5846 28.4163C26.5846 27.4038 25.7638 26.583 24.7513 26.583C23.7388 26.583 22.918 27.4038 22.918 28.4163C22.918 29.4289 23.7388 30.2497 24.7513 30.2497Z" fill="#C0C4C6"/>
<path d="M29.3346 7.33301H15.5846C14.6122 7.33301 13.6795 7.71932 12.9919 8.40695C12.3043 9.09458 11.918 10.0272 11.918 10.9997V22.9163H33.0013V10.9997C33.0013 10.0272 32.615 9.09458 31.9274 8.40695C31.2397 7.71932 30.3071 7.33301 29.3346 7.33301Z" fill="#C0C4C6"/>
</svg>
