<svg width="24" height="24" viewBox="0 0 24 24" fill="none" xmlns="http://www.w3.org/2000/svg">
<path d="M4.23468 0C4.74848 0 5.23124 0.136921 5.64624 0.378298C6.0754 0.13052 6.56222 7.48308e-05 7.05778 7.16834e-05C7.55333 6.85361e-05 8.04016 0.130508 8.46932 0.37828C8.89849 0.626052 9.25487 0.982426 9.50266 1.41158C9.75045 1.84074 9.8809 2.32756 9.88091 2.82312V4.23468H10.5867C10.7739 4.23468 10.9534 4.30904 11.0858 4.4414C11.2181 4.57375 11.2925 4.75327 11.2925 4.94046V11.2925C11.2925 12.0412 10.995 12.7593 10.4656 13.2887C9.93616 13.8182 9.21809 14.1156 8.46935 14.1156H2.82312C2.07438 14.1156 1.35631 13.8182 0.826872 13.2887C0.297435 12.7593 0 12.0412 0 11.2925V4.94046C0 4.75327 0.0743587 4.57375 0.206718 4.4414C0.339077 4.30904 0.518595 4.23468 0.70578 4.23468H1.41156V2.82312C1.41156 2.07438 1.70899 1.35631 2.23843 0.826872C2.76787 0.297435 3.48594 0 4.23468 0ZM2.82312 4.23468H5.64624V2.82312C5.64624 2.44875 5.49752 2.08971 5.2328 1.825C4.96808 1.56028 4.60905 1.41156 4.23468 1.41156C3.86031 1.41156 3.50127 1.56028 3.23655 1.825C2.97184 2.08971 2.82312 2.44875 2.82312 2.82312V4.23468ZM7.0578 2.82312V4.23468H8.46935V2.82312C8.46952 2.6076 8.42033 2.3949 8.32556 2.20134C8.23079 2.00778 8.09295 1.83849 7.92262 1.70644C7.75228 1.5744 7.55398 1.48312 7.3429 1.43959C7.13182 1.39606 6.91358 1.40144 6.70491 1.45532C6.93076 1.86043 7.0578 2.32766 7.0578 2.82312ZM11.2925 2.9431V2.82312H15.88C17.245 2.82312 18.3503 3.92978 18.3503 5.29335V7.0578H19.5953C19.9887 7.05781 20.3743 7.16744 20.7089 7.37438C21.0435 7.58132 21.3138 7.87739 21.4896 8.22939L23.7735 12.7958C23.9206 13.0894 23.9975 13.4131 23.9979 13.7415V19.056C23.9979 19.6176 23.7748 20.1562 23.3778 20.5532C22.9807 20.9503 22.4421 21.1734 21.8806 21.1734H19.6927C19.5307 21.9711 19.0979 22.6883 18.4676 23.2035C17.8373 23.7186 17.0484 24 16.2343 24C15.4203 24 14.6313 23.7186 14.0011 23.2035C13.3708 22.6883 12.938 21.9711 12.776 21.1734H11.2233C11.0613 21.9711 10.6285 22.6883 9.99825 23.2035C9.36799 23.7186 8.579 24 7.76499 24C6.95097 24 6.16199 23.7186 5.53172 23.2035C4.90145 22.6883 4.46865 21.9711 4.30667 21.1734H3.94107C3.28593 21.1734 2.65762 20.9131 2.19436 20.4499C1.7311 19.9866 1.47084 19.3583 1.47084 18.7032V15.3069C1.89572 15.4495 2.35025 15.5271 2.82312 15.5271H2.8824V18.7032C2.8824 19.2875 3.35669 19.7618 3.94107 19.7618H4.30667C4.46865 18.9641 4.90145 18.2469 5.53172 17.7317C6.16199 17.2166 6.95097 16.9352 7.76499 16.9352C8.579 16.9352 9.36799 17.2166 9.99825 17.7317C10.6285 18.2469 11.0613 18.9641 11.2233 19.7618H12.776C12.963 18.8448 13.5067 18.0397 14.2873 17.5235C15.068 17.0073 16.0217 16.8223 16.9387 17.0093V5.29335C16.9387 5.01257 16.8272 4.74329 16.6286 4.54475C16.4301 4.34622 16.1608 4.23468 15.88 4.23468H12.584C12.4785 3.93684 12.3077 3.66633 12.0843 3.44288C11.8608 3.21944 11.5903 3.04869 11.2925 2.9431ZM18.3503 17.6445C19.0278 18.1526 19.5176 18.9008 19.6912 19.7618H21.8792C22.0663 19.7618 22.2459 19.6875 22.3782 19.5551C22.5106 19.4227 22.5849 19.2432 22.5849 19.056V14.1156H18.3503V17.6445ZM18.3503 12.704H22.1502L20.2276 8.85894C20.169 8.74186 20.0789 8.64341 19.9674 8.57461C19.856 8.5058 19.7276 8.46936 19.5967 8.46935H18.3503V12.704ZM7.76357 18.3503C7.20202 18.3503 6.66347 18.5733 6.26639 18.9704C5.86931 19.3675 5.64624 19.9061 5.64624 20.4676C5.64624 21.0292 5.86931 21.5677 6.26639 21.9648C6.66347 22.3619 7.20202 22.5849 7.76357 22.5849C8.32513 22.5849 8.86368 22.3619 9.26076 21.9648C9.65784 21.5677 9.88091 21.0292 9.88091 20.4676C9.88091 19.9061 9.65784 19.3675 9.26076 18.9704C8.86368 18.5733 8.32513 18.3503 7.76357 18.3503ZM14.1156 20.4676C14.1156 20.7457 14.1704 21.021 14.2768 21.2779C14.3832 21.5348 14.5391 21.7682 14.7357 21.9648C14.9324 22.1614 15.1658 22.3174 15.4227 22.4238C15.6795 22.5302 15.9549 22.5849 16.2329 22.5849C16.511 22.5849 16.7863 22.5302 17.0432 22.4238C17.3001 22.3174 17.5335 22.1614 17.7301 21.9648C17.9267 21.7682 18.0827 21.5348 18.1891 21.2779C18.2955 21.021 18.3503 20.7457 18.3503 20.4676C18.3503 19.9061 18.1272 19.3675 17.7301 18.9704C17.333 18.5733 16.7945 18.3503 16.2329 18.3503C15.6714 18.3503 15.1328 18.5733 14.7357 18.9704C14.3387 19.3675 14.1156 19.9061 14.1156 20.4676Z" fill="#6E768C"/>
</svg>
