<svg width="26" height="23" viewBox="0 0 26 23" fill="none" xmlns="http://www.w3.org/2000/svg">
<path d="M16.6312 19.1893L19.8349 15.9856L16.6312 12.7818" stroke="#6E768C" stroke-width="1.2" stroke-linecap="round" stroke-linejoin="round"/>
<path d="M21.7479 19.1893L24.9516 15.9856L21.7479 12.7818" stroke="#6E768C" stroke-width="1.2" stroke-linecap="round" stroke-linejoin="round"/>
<path d="M24.9572 10.2185V1.88882C24.9572 1.54895 24.8222 1.223 24.5819 0.982674C24.3416 0.742348 24.0156 0.607335 23.6758 0.607335H1.89043C1.55056 0.607335 1.22461 0.742348 0.98428 0.982674C0.743955 1.223 0.608941 1.54895 0.608941 1.88882V21.1112C0.608941 21.451 0.743955 21.777 0.98428 22.0173C1.22461 22.2576 1.55056 22.3927 1.89043 22.3927H15.6472" stroke="#6E768C" stroke-width="1.2" stroke-linecap="round" stroke-linejoin="round"/>
<path d="M12.7821 13.9802L12.7828 14.0392C12.7838 14.8555 12.478 15.6425 11.9261 16.244L11.928 16.2414C11.3531 16.8747 10.5755 17.2879 9.72896 17.4101L9.7091 17.4127V18.9249C9.7091 18.995 9.68122 19.0624 9.63159 19.112C9.58197 19.1616 9.51466 19.1895 9.44447 19.1895H9.43358H9.43422H8.2764C8.20375 19.1887 8.13432 19.1594 8.08295 19.1081C8.03158 19.0567 8.00235 18.9873 8.00152 18.9146V17.4127C7.6154 17.3611 7.236 17.2679 6.86996 17.1346L6.90776 17.1468C6.361 16.9639 5.84799 16.6925 5.3892 16.3433L5.40201 16.3529C5.26188 16.2516 5.12734 16.1427 4.99899 16.0268L5.00347 16.0306C4.93213 15.9623 4.88216 15.911 4.85354 15.8768C4.80721 15.8308 4.77986 15.769 4.7769 15.7038C4.77393 15.6385 4.79556 15.5745 4.83752 15.5244L4.83688 15.5251L5.72046 14.3666C5.74394 14.3364 5.77367 14.3115 5.80762 14.2939C5.84157 14.2762 5.87894 14.266 5.91717 14.2641H5.91781C5.95581 14.2571 5.99499 14.2606 6.03113 14.2743C6.06726 14.288 6.09898 14.3112 6.12285 14.3416L6.12349 14.3423L6.14015 14.3589C6.71949 14.8894 7.42852 15.2576 8.19566 15.4264L8.22514 15.4322C8.41608 15.4757 8.63521 15.5007 8.86011 15.5007L8.89984 15.5014C9.34259 15.5014 9.75267 15.363 10.0903 15.1272L10.0833 15.1317C10.2536 15.0165 10.3916 14.8597 10.484 14.676C10.5764 14.4924 10.6202 14.2881 10.6113 14.0828V14.0853C10.6113 13.9168 10.5632 13.7598 10.4806 13.6272L10.4825 13.631C10.4044 13.4987 10.3079 13.3781 10.1961 13.2729L10.1954 13.2722C10.0465 13.1473 9.88271 13.0412 9.70782 12.9563L9.69372 12.9499C9.46476 12.8329 9.27681 12.7412 9.12987 12.675C8.98292 12.6088 8.75418 12.5159 8.44363 12.3963C8.22065 12.3049 8.04466 12.2334 7.91566 12.1817C7.78665 12.13 7.61066 12.0542 7.38768 11.9542C7.1647 11.8542 6.98593 11.7656 6.85138 11.6883C6.71682 11.611 6.55514 11.5095 6.36633 11.3839C6.20093 11.2774 6.04622 11.1551 5.90436 11.0187L5.905 11.0194C5.77625 10.8891 5.65434 10.7522 5.53977 10.6093L5.53144 10.599C5.41011 10.4519 5.30943 10.289 5.23222 10.1146L5.22709 10.1012C5.15267 9.9242 5.09371 9.74112 5.05089 9.55397L5.0464 9.53091C4.99738 9.31609 4.97287 9.0964 4.97336 8.87607V8.86069V8.84146C4.97336 8.04053 5.29437 7.31393 5.81529 6.78467L5.81465 6.78532C6.3953 6.18166 7.15408 5.77993 7.97973 5.63902L8.0028 5.63582V4.08842V4.08586C8.0028 4.01089 8.03419 3.94297 8.08417 3.89492C8.10887 3.86918 8.13852 3.84871 8.17133 3.83473C8.20414 3.82074 8.23945 3.81354 8.27511 3.81354H9.44575C9.59184 3.81354 9.71038 3.93208 9.71038 4.07817V4.08906V4.08842V5.59866C10.0628 5.63582 10.3844 5.70566 10.6926 5.80562L10.6587 5.79601C10.9528 5.88571 11.2001 5.98374 11.4378 6.0978L11.4045 6.0837C11.6147 6.18814 11.7934 6.29515 11.9626 6.41432L11.9498 6.40535C12.1206 6.52581 12.2321 6.60868 12.2843 6.65396C12.3364 6.69924 12.3793 6.73918 12.413 6.77378C12.4591 6.81346 12.4889 6.86876 12.4967 6.92908C12.5046 6.98939 12.4898 7.05046 12.4553 7.10056L12.456 7.09992L11.7627 8.35322C11.7454 8.39174 11.7179 8.42484 11.6833 8.44899C11.6487 8.47314 11.6081 8.48743 11.566 8.49034H11.5653C11.5246 8.4988 11.4826 8.49777 11.4423 8.48732C11.4021 8.47688 11.3648 8.4573 11.3334 8.43011H11.334C11.3169 8.41302 11.2755 8.37885 11.2097 8.32759C11.1439 8.27633 11.0325 8.20051 10.8753 8.10012C10.7227 8.00236 10.5642 7.9144 10.4005 7.83678L10.3736 7.82524C10.1763 7.73456 9.9713 7.66186 9.761 7.60803L9.73409 7.60226C9.49524 7.53688 9.24872 7.5037 9.00108 7.50359H9.00044C8.52592 7.48186 8.05695 7.61302 7.66256 7.87779L7.67089 7.87266C7.45276 8.0176 7.29041 8.23243 7.21053 8.48185C7.13065 8.73127 7.13799 9.00044 7.23134 9.24513L7.22878 9.23745C7.28773 9.37841 7.37359 9.49759 7.48123 9.59306L7.48251 9.5937C7.58567 9.69045 7.69588 9.78336 7.81121 9.86986L7.82147 9.87691C7.95923 9.97174 8.11749 10.0608 8.28344 10.1351L8.30267 10.1428C8.5171 10.2428 8.6901 10.3201 8.82167 10.3748C8.95324 10.4294 9.15357 10.508 9.42269 10.6106C9.72597 10.725 9.95771 10.8152 10.1179 10.881C10.2781 10.9467 10.4955 11.0469 10.7702 11.1815C11.0015 11.2901 11.2245 11.4158 11.4372 11.5576L11.4186 11.546C11.6172 11.687 11.7902 11.828 11.9549 11.9786L11.9511 11.9747C12.1286 12.1298 12.2798 12.3092 12.4002 12.5097L12.406 12.52C12.5124 12.7077 12.604 12.9262 12.6706 13.155L12.6764 13.1767C12.7462 13.4106 12.786 13.6797 12.786 13.9578V13.9847V13.9834L12.7821 13.9802Z" fill="#6E768C"/>
</svg>
