<svg width="5" height="7" viewBox="0 0 5 7" fill="none" xmlns="http://www.w3.org/2000/svg">
<path d="M2.8 7H0V0H2.8C3.35678 0.000555951 3.8906 0.221984 4.28431 0.61569C4.67802 1.0094 4.89944 1.54322 4.9 2.1V4.9C4.89944 5.45678 4.67802 5.9906 4.28431 6.38431C3.8906 6.77802 3.35678 6.99944 2.8 7ZM1.4 5.6H2.8C2.98559 5.59981 3.16353 5.526 3.29477 5.39477C3.426 5.26353 3.49981 5.08559 3.5 4.9V2.1C3.49981 1.91441 3.426 1.73647 3.29477 1.60523C3.16353 1.474 2.98559 1.40019 2.8 1.4H1.4V5.6Z" fill="white"/>
</svg>
