<svg width="27" height="24" viewBox="0 0 27 24" fill="none" xmlns="http://www.w3.org/2000/svg">
<path d="M7.99873 8H13.3321V4L19.9987 10.6667H7.99873V8Z" fill="#6E768C"/>
<path d="M13.3321 20L6.66539 13.3333H18.6654V16H13.3321V20Z" fill="#6E768C"/>
<path fill-rule="evenodd" clip-rule="evenodd" d="M1.33333 0H25.3333C25.687 0 26.0261 0.140476 26.2761 0.390524C26.5262 0.640573 26.6667 0.979711 26.6667 1.33333V22.6667C26.6667 23.0203 26.5262 23.3594 26.2761 23.6095C26.0261 23.8595 25.687 24 25.3333 24H1.33333C0.979712 24 0.640573 23.8595 0.390524 23.6095C0.140476 23.3594 0 23.0203 0 22.6667V1.33333C0 0.979711 0.140476 0.640573 0.390524 0.390524C0.640573 0.140476 0.979712 0 1.33333 0ZM1.33333 1.12296H25.3333C25.3891 1.12296 25.4426 1.14513 25.4821 1.18458C25.5215 1.22403 25.5437 1.27754 25.5437 1.33333V22.6667C25.5437 22.7225 25.5215 22.776 25.4821 22.8154C25.4426 22.8549 25.3891 22.877 25.3333 22.877H1.33333C1.27754 22.877 1.22403 22.8549 1.18458 22.8154C1.14513 22.776 1.12296 22.7225 1.12296 22.6667V1.33333C1.12296 1.27754 1.14513 1.22403 1.18458 1.18458C1.22403 1.14513 1.27754 1.12296 1.33333 1.12296Z" fill="#6E768C"/>
</svg>
