<svg width="24" height="24" viewBox="0 0 24 24" fill="none" xmlns="http://www.w3.org/2000/svg">
<path d="M5.13108 11.4396L11.4394 5.13225L9.37131 3.06416L6.48012 5.95536C6.44564 5.9899 6.40469 6.01731 6.3596 6.03601C6.31452 6.05471 6.26619 6.06433 6.21739 6.06433C6.16858 6.06433 6.12025 6.05471 6.07517 6.03601C6.03009 6.01731 5.98914 5.9899 5.95466 5.95536L5.4292 5.4299C5.28389 5.28459 5.28389 5.04928 5.4292 4.90444L8.3204 2.01324L6.74355 0.435929C6.16278 -0.144841 5.22155 -0.144841 4.64078 0.435929L0.435698 4.64101C-0.144604 5.22178 -0.145073 6.16301 0.435698 6.74378L5.13108 11.4396ZM23.3403 5.96473C24.2196 5.08537 24.2192 3.65993 23.3403 2.78057L21.2192 0.659519C20.3399 -0.21984 18.9139 -0.21984 18.0341 0.659519L15.877 2.8162L21.1831 8.12235L23.3403 5.96473ZM14.8162 3.87743L0.894595 17.7972L0.0152369 22.8333C-0.103355 23.5125 0.488197 24.1041 1.16787 23.9846L6.2045 23.1014L20.1224 9.18311L14.8162 3.87743ZM23.5643 17.2567L21.9875 15.6799L19.0963 18.5711C18.951 18.7164 18.7157 18.7164 18.5708 18.5711L18.0454 18.0456C17.9005 17.9003 17.9005 17.665 18.0454 17.5201L20.9366 14.6289L18.8675 12.5599L12.5592 18.8673L17.2565 23.5641C17.8373 24.1449 18.7785 24.1449 19.3593 23.5641L23.5643 19.3595C24.1451 18.7787 24.1451 17.8375 23.5643 17.2567Z" fill="#6E768C"/>
</svg>
