<svg width="23" height="23" viewBox="0 0 23 23" fill="none" xmlns="http://www.w3.org/2000/svg">
<path d="M5.75 0.71875C5.75 0.528126 5.67427 0.345309 5.53948 0.210517C5.40469 0.0757252 5.22187 0 5.03125 0C4.84063 0 4.65781 0.0757252 4.52302 0.210517C4.38823 0.345309 4.3125 0.528126 4.3125 0.71875V1.4375H2.875C2.1125 1.4375 1.38124 1.7404 0.842068 2.27957C0.302901 2.81874 0 3.55 0 4.3125L0 5.75H23V4.3125C23 3.55 22.6971 2.81874 22.1579 2.27957C21.6188 1.7404 20.8875 1.4375 20.125 1.4375H18.6875V0.71875C18.6875 0.528126 18.6118 0.345309 18.477 0.210517C18.3422 0.0757252 18.1594 0 17.9688 0C17.7781 0 17.5953 0.0757252 17.4605 0.210517C17.3257 0.345309 17.25 0.528126 17.25 0.71875V1.4375H5.75V0.71875ZM23 20.125V7.1875H0V20.125C0 20.8875 0.302901 21.6188 0.842068 22.1579C1.38124 22.6971 2.1125 23 2.875 23H20.125C20.8875 23 21.6188 22.6971 22.1579 22.1579C22.6971 21.6188 23 20.8875 23 20.125ZM13.6562 10.0625H15.0938C15.2844 10.0625 15.4672 10.1382 15.602 10.273C15.7368 10.4078 15.8125 10.5906 15.8125 10.7812V12.2188C15.8125 12.4094 15.7368 12.5922 15.602 12.727C15.4672 12.8618 15.2844 12.9375 15.0938 12.9375H13.6562C13.4656 12.9375 13.2828 12.8618 13.148 12.727C13.0132 12.5922 12.9375 12.4094 12.9375 12.2188V10.7812C12.9375 10.5906 13.0132 10.4078 13.148 10.273C13.2828 10.1382 13.4656 10.0625 13.6562 10.0625ZM17.9688 10.0625H19.4062C19.5969 10.0625 19.7797 10.1382 19.9145 10.273C20.0493 10.4078 20.125 10.5906 20.125 10.7812V12.2188C20.125 12.4094 20.0493 12.5922 19.9145 12.727C19.7797 12.8618 19.5969 12.9375 19.4062 12.9375H17.9688C17.7781 12.9375 17.5953 12.8618 17.4605 12.727C17.3257 12.5922 17.25 12.4094 17.25 12.2188V10.7812C17.25 10.5906 17.3257 10.4078 17.4605 10.273C17.5953 10.1382 17.7781 10.0625 17.9688 10.0625ZM2.875 15.0938C2.875 14.9031 2.95073 14.7203 3.08552 14.5855C3.22031 14.4507 3.40313 14.375 3.59375 14.375H5.03125C5.22187 14.375 5.40469 14.4507 5.53948 14.5855C5.67427 14.7203 5.75 14.9031 5.75 15.0938V16.5312C5.75 16.7219 5.67427 16.9047 5.53948 17.0395C5.40469 17.1743 5.22187 17.25 5.03125 17.25H3.59375C3.40313 17.25 3.22031 17.1743 3.08552 17.0395C2.95073 16.9047 2.875 16.7219 2.875 16.5312V15.0938ZM7.90625 14.375H9.34375C9.53437 14.375 9.71719 14.4507 9.85198 14.5855C9.98677 14.7203 10.0625 14.9031 10.0625 15.0938V16.5312C10.0625 16.7219 9.98677 16.9047 9.85198 17.0395C9.71719 17.1743 9.53437 17.25 9.34375 17.25H7.90625C7.71563 17.25 7.53281 17.1743 7.39802 17.0395C7.26323 16.9047 7.1875 16.7219 7.1875 16.5312V15.0938C7.1875 14.9031 7.26323 14.7203 7.39802 14.5855C7.53281 14.4507 7.71563 14.375 7.90625 14.375Z" fill="#6E768C"/>
</svg>
