<svg width="30" height="21" viewBox="0 0 30 21" fill="none" xmlns="http://www.w3.org/2000/svg">
<path d="M14.9212 0C12.3376 0 10.2432 2.44525 10.2432 5.46162C10.2432 7.55356 11.2506 9.37041 12.7299 10.2878L11.0144 11.0828L6.44947 13.2C6.00847 13.4205 5.78837 13.7945 5.78837 14.3237V19.3512C5.82464 19.9798 6.20179 20.5656 6.81327 20.5756H23.0537C23.7518 20.5149 24.105 19.9526 24.1119 19.3512V14.3237C24.1119 13.7945 23.8918 13.4205 23.4508 13.2L19.0511 11.0828L17.2226 10.2166C18.6412 9.27853 19.5992 7.50096 19.5992 5.46164C19.5991 2.44525 17.5047 0 14.9212 0ZM7.37556 1.9206C6.26374 1.96282 5.38259 2.44392 4.71314 3.21049C3.97264 4.13344 3.61164 5.22924 3.60467 6.31934C3.65014 7.93129 4.37139 9.45728 5.65539 10.2555L0.529074 12.6377C0.17625 12.77 0 13.0787 0 13.5638V17.5987C0.02755 18.1339 0.3054 18.5836 0.826374 18.5913H4.23347V14.3237C4.28984 13.1827 4.82564 12.2605 5.78837 11.8104L9.19454 10.19C9.45914 10.0356 9.71281 9.82578 9.95536 9.56118C8.55096 7.39429 8.35594 4.79892 9.26104 2.51617C8.67236 2.1559 8.01079 1.92437 7.37556 1.9206ZM22.5902 1.9206C21.8631 1.93582 21.1912 2.20357 20.6392 2.5817C21.5196 4.88512 21.2768 7.48209 19.9772 9.49468C20.2638 9.82543 20.5623 10.0791 20.871 10.2555L24.1451 11.8104C25.1425 12.3574 25.6569 13.2879 25.6668 14.3237V18.5914H29.1726C29.7492 18.5416 29.995 18.0817 30 17.5988V13.5638C30 13.1228 29.8237 12.8142 29.4709 12.6377L24.4101 10.2223C25.7226 9.25456 26.3816 7.80426 26.3943 6.31934C26.3594 5.14404 26.0004 4.05274 25.2859 3.21049C24.5392 2.40052 23.6131 1.92917 22.5902 1.9206Z" fill="white"/>
</svg>
