<svg width="20" height="20" viewBox="0 0 20 20" fill="none" xmlns="http://www.w3.org/2000/svg">
<path fill-rule="evenodd" clip-rule="evenodd" d="M19.1359 10.5759C19.2122 10.607 19.2939 10.6227 19.3763 10.6223C19.4994 10.6218 19.6197 10.585 19.722 10.5167C19.8243 10.4484 19.9042 10.3514 19.9516 10.238C19.9991 10.1246 20.012 9.99977 19.9887 9.87909C19.9655 9.7584 19.9072 9.64723 19.821 9.55946L10.4273 0.181797C10.3099 0.0653572 10.1512 0 9.98578 0C9.82034 0 9.66161 0.0653572 9.54428 0.181797L0.150585 9.55946C0.0479897 9.67906 -0.00562079 9.8329 0.000467043 9.99024C0.00655488 10.1476 0.0718926 10.2968 0.183424 10.4082C0.294955 10.5195 0.444464 10.5847 0.602075 10.5908C0.759687 10.5969 0.913791 10.5434 1.03359 10.441L9.98265 1.50092L18.9317 10.441C18.9902 10.4989 19.0596 10.5447 19.1359 10.5759ZM2.46777 11.1412L9.98273 3.61409L17.4977 11.0975V18.7496C17.4977 19.0813 17.3657 19.3993 17.1308 19.6338C16.8959 19.8683 16.5774 20 16.2452 20H11.8615V13.7482H8.10399V20H3.72027C3.38808 20 3.06951 19.8683 2.83462 19.6338C2.59973 19.3993 2.46777 19.0813 2.46777 18.7496V11.1412Z" fill="#C0C4C6"/>
</svg>
