<svg width="24" height="24" viewBox="0 0 24 24" fill="none" xmlns="http://www.w3.org/2000/svg">
<path d="M11.1819 19.4953L9.25394 21.7933L2.08594 21.0003L6.58594 15.6383L11.1819 19.4953ZM13.2339 18.6053L7.10494 13.4633L15.4609 3.50533C16.1428 2.69258 17.1196 2.18398 18.1765 2.09143C19.2333 1.99888 20.2837 2.32996 21.0964 3.01183C21.9092 3.6937 22.4178 4.67051 22.5103 5.72738C22.6029 6.78424 22.2718 7.83458 21.5899 8.64733L13.2339 18.6063V18.6053ZM19.1499 5.98533C19.0493 5.90094 18.933 5.8372 18.8077 5.79775C18.6824 5.75831 18.5506 5.74394 18.4198 5.75545C18.2889 5.76697 18.1616 5.80415 18.0451 5.86487C17.9287 5.92559 17.8253 6.00866 17.7409 6.10933L17.0979 6.87533C16.9274 7.07849 16.8446 7.34107 16.8676 7.60531C16.8907 7.86955 17.0178 8.1138 17.2209 8.28433C17.4241 8.45487 17.6867 8.53771 17.9509 8.51465C18.2152 8.49158 18.4594 8.36449 18.6299 8.16133L19.2729 7.39533C19.3575 7.29472 19.4215 7.17841 19.4611 7.05307C19.5007 6.92772 19.5152 6.79579 19.5038 6.66483C19.4924 6.53387 19.4552 6.40645 19.3945 6.28985C19.3338 6.17326 19.2507 6.06978 19.1499 5.98533Z" fill="white"/>
</svg>
