<svg width="12" height="12" viewBox="0 0 12 12" fill="none" xmlns="http://www.w3.org/2000/svg">
<path d="M11.75 6.99999C11.8875 6.99999 12 6.88749 12 6.74999V5.24999C12 5.11249 11.8875 4.99999 11.75 4.99999H8.04165C7.46636 4.99999 6.99999 4.53362 6.99999 3.95833V0.25C6.99999 0.1125 6.88749 0 6.74999 0H5.24999C5.11249 0 4.99999 0.1125 4.99999 0.25V3.95833C4.99999 4.53362 4.53362 4.99999 3.95833 4.99999H0.25C0.1125 4.99999 0 5.11249 0 5.24999V6.74999C0 6.88749 0.1125 6.99999 0.25 6.99999H3.95833C4.53362 6.99999 4.99999 7.46636 4.99999 8.04165V11.75C4.99999 11.8875 5.11249 12 5.24999 12H6.74999C6.88749 12 6.99999 11.8875 6.99999 11.75V8.04165C6.99999 7.46636 7.46636 6.99999 8.04165 6.99999H11.75Z" fill="#DC6470"/>
</svg>
