<svg width="65" height="56" viewBox="0 0 65 56" fill="none" xmlns="http://www.w3.org/2000/svg">
<path fill-rule="evenodd" clip-rule="evenodd" d="M41.9825 55.1908C48.8328 55.3209 56.4695 54.4636 63.8033 51.7555C64.8285 47.7289 63.8266 42.8154 63.3373 40.8937C62.848 38.9721 60.9315 35.6196 56.1375 33.7866C51.3435 31.9536 47.9008 31.593 47.4872 31.3446C47.0737 31.0963 45.8154 29.4998 47.3183 28.6425C48.8212 27.7851 53.4405 23.5398 53.7492 19.1288C56.2016 17.3846 55.887 14.6706 53.458 14.4873C53.5919 12.7017 53.423 10.307 53.2366 9.26042C53.1026 8.49767 51.8095 0.751943 42.4427 0.751943C33.076 0.751943 31.6372 8.26116 31.3809 9.23677C31.1479 10.1355 31.0489 13.1274 31.2003 14.4164C28.7713 14.5997 28.4567 17.3136 30.9091 19.0579C31.2236 23.4688 35.1439 27.7792 36.6526 28.6425C38.1555 29.4998 36.8973 31.0963 36.4837 31.3446C36.0701 31.593 32.6275 31.9536 27.8334 33.7866C23.0394 35.6196 21.1229 38.9721 20.6336 40.8937C20.1443 42.8154 19.1424 47.7289 20.1676 51.7555C27.5014 54.4636 35.1381 55.3209 41.9884 55.1908H41.9825Z" stroke="#6E768C" stroke-width="1.5" stroke-miterlimit="22.9256"/>
<path d="M31.2056 10.5436C31.2056 10.5436 36.6754 12.1342 39.4365 8.53328C42.4014 13.1039 51.9779 13.0388 53.4749 11.8622" stroke="#6E768C" stroke-width="1.5" stroke-miterlimit="22.9256"/>
<path d="M24.4775 31.5576C22.4853 30.9959 21.1688 30.8244 20.9591 30.7002C20.6562 30.5169 19.7417 29.358 20.8368 28.7313C21.9319 28.1045 25.293 25.018 25.5202 21.8015C27.3027 20.5302 27.0813 18.5554 25.3105 18.4253C25.4095 17.1245 25.2872 15.3802 25.1474 14.6175C25.0483 14.0617 24.1105 8.42681 17.2893 8.42681C10.474 8.42681 9.41966 13.8961 9.23908 14.6057C9.07016 15.2561 8.99443 17.4379 9.11093 18.378C7.34011 18.5081 7.11293 20.4889 8.90123 21.7542C9.12841 24.9648 11.9827 28.1045 13.0778 28.7313C14.1729 29.358 13.2584 30.5169 12.9555 30.7002C12.6526 30.8835 10.1478 31.1437 6.65857 32.48C3.16935 33.8162 1.77133 36.2523 1.416 37.6536C1.06067 39.055 0.326711 42.6263 1.07815 45.559C6.12849 47.4274 11.3827 48.0838 16.1593 48.0719C16.4272 48.0719 16.6952 48.066 16.9631 48.066" stroke="#6E768C" stroke-width="1.5" stroke-miterlimit="22.9256" stroke-linecap="round"/>
<path d="M25.3265 15.5574C25.3265 15.5574 21.348 16.7163 19.3325 14.097C17.1714 17.4259 10.2046 17.3786 9.10948 16.5212" stroke="#6E768C" stroke-width="1.5" stroke-miterlimit="22.9256"/>
</svg>
