<svg width="56" height="55" viewBox="0 0 56 55" fill="none" xmlns="http://www.w3.org/2000/svg">
<path d="M7.2486 4.66903V54.2479H48.4806V4.72146M49.1941 7.98948H54.9351V0.752055H0.752055V7.98948H6.49284" stroke="#6E768C" stroke-width="1.5"/>
<path d="M33.4572 27.7L33.4581 27.7827C33.4596 28.9273 33.0308 30.0307 32.257 30.8741L32.2597 30.8705C31.4535 31.7584 30.3633 32.3378 29.1764 32.5092L29.1485 32.5128V34.633C29.1485 34.7314 29.1094 34.8258 29.0398 34.8953C28.9702 34.9649 28.8759 35.004 28.7775 35.004H28.7622H28.7631H27.1397C27.0378 35.0028 26.9405 34.9619 26.8685 34.8898C26.7964 34.8178 26.7554 34.7205 26.7543 34.6186V32.5128C26.2129 32.4404 25.6809 32.3097 25.1677 32.1229L25.2207 32.1399C24.4541 31.8835 23.7348 31.5029 23.0915 31.0133L23.1095 31.0268C22.913 30.8847 22.7244 30.732 22.5444 30.5695L22.5507 30.5749C22.4507 30.4791 22.3806 30.4072 22.3405 30.3593C22.2755 30.2947 22.2372 30.2081 22.233 30.1166C22.2288 30.0251 22.2592 29.9354 22.318 29.8652L22.3171 29.8661L23.556 28.2418C23.5889 28.1994 23.6306 28.1646 23.6782 28.1398C23.7258 28.115 23.7782 28.1007 23.8318 28.098H23.8327C23.886 28.0883 23.9409 28.0932 23.9916 28.1124C24.0422 28.1315 24.0867 28.1642 24.1202 28.2067L24.1211 28.2076L24.1444 28.231C24.9567 28.9747 25.9509 29.491 27.0265 29.7277L27.0678 29.7358C27.3355 29.7969 27.6428 29.8319 27.9581 29.8319L28.0138 29.8328C28.6346 29.8328 29.2096 29.6388 29.6831 29.3082L29.6732 29.3145C29.912 29.153 30.1054 28.9331 30.235 28.6756C30.3646 28.4181 30.426 28.1318 30.4134 27.8438V27.8474C30.4134 27.6111 30.3461 27.391 30.2302 27.205L30.2329 27.2104C30.1234 27.0249 29.9882 26.8558 29.8313 26.7082L29.8304 26.7073C29.6216 26.5322 29.3919 26.3834 29.1467 26.2644L29.1269 26.2554C28.8059 26.0913 28.5424 25.9628 28.3364 25.87C28.1303 25.7772 27.8096 25.6469 27.3742 25.4792C27.0615 25.351 26.8148 25.2507 26.6339 25.1782C26.453 25.1058 26.2063 24.9995 25.8936 24.8593C25.581 24.7192 25.3303 24.5949 25.1417 24.4865C24.953 24.3781 24.7263 24.2358 24.4616 24.0597C24.2297 23.9103 24.0127 23.7388 23.8138 23.5477L23.8147 23.5486C23.6342 23.3659 23.4633 23.174 23.3026 22.9736L23.291 22.9592C23.1208 22.753 22.9797 22.5245 22.8714 22.28L22.8642 22.2612C22.7599 22.013 22.6772 21.7563 22.6172 21.4939L22.6109 21.4616C22.5421 21.1604 22.5078 20.8524 22.5085 20.5434V20.5219V20.4949C22.5085 19.3719 22.9585 18.3531 23.6889 17.611L23.688 17.6119C24.5022 16.7656 25.5661 16.2023 26.7237 16.0047L26.7561 16.0002V13.8306V13.827C26.7561 13.7219 26.8001 13.6267 26.8702 13.5593C26.9048 13.5232 26.9464 13.4945 26.9924 13.4749C27.0384 13.4553 27.0879 13.4452 27.1379 13.4452H28.7793C28.9841 13.4452 29.1503 13.6114 29.1503 13.8162V13.8315V13.8306V15.9481C29.6444 16.0002 30.0954 16.0981 30.5275 16.2383L30.4799 16.2248C30.8923 16.3506 31.2391 16.4881 31.5724 16.648L31.5257 16.6282C31.8203 16.7746 32.071 16.9247 32.3082 17.0918L32.2902 17.0792C32.5298 17.2481 32.6861 17.3643 32.7592 17.4278C32.8322 17.4913 32.8924 17.5473 32.9397 17.5958C33.0044 17.6514 33.0462 17.729 33.0571 17.8135C33.068 17.8981 33.0474 17.9837 32.999 18.054L32.9999 18.0531L32.0279 19.8103C32.0036 19.8643 31.9651 19.9108 31.9166 19.9446C31.868 19.9785 31.8111 19.9985 31.7521 20.0026H31.7512C31.6941 20.0144 31.6351 20.013 31.5787 19.9984C31.5223 19.9837 31.47 19.9563 31.4259 19.9181H31.4268C31.4029 19.8942 31.3448 19.8463 31.2525 19.7744C31.1603 19.7025 31.004 19.5962 30.7836 19.4555C30.5697 19.3184 30.3474 19.1951 30.1179 19.0862L30.0801 19.07C29.8036 18.9429 29.5161 18.841 29.2213 18.7655L29.1835 18.7574C28.8486 18.6657 28.503 18.6192 28.1558 18.619H28.1549C27.4895 18.5886 26.832 18.7725 26.279 19.1437L26.2907 19.1365C25.9849 19.3397 25.7572 19.641 25.6452 19.9907C25.5332 20.3404 25.5435 20.7178 25.6744 21.0609L25.6708 21.0501C25.7535 21.2478 25.8738 21.4149 26.0248 21.5487L26.0266 21.5496C26.1712 21.6853 26.3257 21.8155 26.4875 21.9368L26.5018 21.9467C26.695 22.0797 26.9169 22.2046 27.1496 22.3088L27.1765 22.3195C27.4772 22.4597 27.7198 22.5681 27.9042 22.6448C28.0887 22.7214 28.3696 22.8316 28.7469 22.9754C29.1722 23.1359 29.4971 23.2623 29.7217 23.3545C29.9463 23.4467 30.2511 23.5872 30.6362 23.7758C30.9606 23.9282 31.2733 24.1045 31.5715 24.3032L31.5454 24.287C31.8239 24.4847 32.0665 24.6823 32.2974 24.8935L32.292 24.8881C32.5409 25.1055 32.7529 25.357 32.9218 25.6382L32.9299 25.6526C33.079 25.9158 33.2075 26.2222 33.3009 26.5429L33.309 26.5735C33.4069 26.9014 33.4626 27.2787 33.4626 27.6686V27.7063V27.7045L33.4572 27.7Z" fill="#99CF63"/>
</svg>
