<svg width="28" height="28" viewBox="0 0 28 28" fill="none" xmlns="http://www.w3.org/2000/svg">
<path d="M5.5999 1.39999C6.1095 1.39999 6.5883 1.53579 6.9999 1.77519C7.42555 1.52945 7.90839 1.40007 8.39988 1.40006C8.89138 1.40006 9.37422 1.52943 9.79987 1.77518C10.2255 2.02092 10.579 2.37438 10.8247 2.80002C11.0705 3.22566 11.1999 3.7085 11.1999 4.19999V5.59999H11.8999C12.0856 5.59999 12.2636 5.67374 12.3949 5.80502C12.5262 5.93629 12.5999 6.11434 12.5999 6.29999V12.6C12.5999 13.3426 12.3049 14.0548 11.7798 14.5799C11.2547 15.105 10.5425 15.4 9.7999 15.4H4.1999C3.4573 15.4 2.74511 15.105 2.22 14.5799C1.6949 14.0548 1.3999 13.3426 1.3999 12.6V6.29999C1.3999 6.11434 1.47365 5.93629 1.60493 5.80502C1.7362 5.67374 1.91425 5.59999 2.0999 5.59999H2.7999V4.19999C2.7999 3.45739 3.0949 2.7452 3.62 2.22009C4.14511 1.69499 4.8573 1.39999 5.5999 1.39999ZM4.1999 5.59999H6.9999V4.19999C6.9999 3.82869 6.8524 3.4726 6.58985 3.21004C6.3273 2.94749 5.97121 2.79999 5.5999 2.79999C5.2286 2.79999 4.8725 2.94749 4.60995 3.21004C4.3474 3.4726 4.1999 3.82869 4.1999 4.19999V5.59999ZM8.3999 4.19999V5.59999H9.7999V4.19999C9.80006 3.98624 9.75128 3.77529 9.65728 3.58331C9.56329 3.39133 9.42658 3.22342 9.25764 3.09246C9.0887 2.9615 8.89202 2.87097 8.68267 2.82779C8.47332 2.78462 8.25687 2.78996 8.0499 2.84339C8.2739 3.24519 8.3999 3.70859 8.3999 4.19999ZM12.5999 4.31899V4.19999H17.1499C18.5037 4.19999 19.5999 5.29759 19.5999 6.64999V8.39999H20.8347C21.2249 8.40001 21.6074 8.50874 21.9392 8.71398C22.2711 8.91923 22.5392 9.21288 22.7135 9.56199L24.9787 14.091C25.1246 14.3822 25.2008 14.7033 25.2013 15.029V20.3C25.2013 20.8569 24.9801 21.3911 24.5862 21.7849C24.1924 22.1787 23.6583 22.4 23.1013 22.4H20.9313C20.7706 23.1912 20.3414 23.9025 19.7163 24.4135C19.0912 24.9244 18.3087 25.2035 17.5013 25.2035C16.694 25.2035 15.9114 24.9244 15.2863 24.4135C14.6612 23.9025 14.232 23.1912 14.0713 22.4H12.5313C12.3706 23.1912 11.9414 23.9025 11.3163 24.4135C10.6912 24.9244 9.90865 25.2035 9.1013 25.2035C8.29395 25.2035 7.51143 24.9244 6.88632 24.4135C6.26121 23.9025 5.83196 23.1912 5.6713 22.4H5.3087C4.65892 22.4 4.03575 22.1419 3.57629 21.6824C3.11683 21.2229 2.8587 20.5998 2.8587 19.95V16.5816C3.2801 16.723 3.7309 16.8 4.1999 16.8H4.2587V19.95C4.2587 20.5296 4.7291 21 5.3087 21H5.6713C5.83196 20.2088 6.26121 19.4975 6.88632 18.9865C7.51143 18.4756 8.29395 18.1965 9.1013 18.1965C9.90865 18.1965 10.6912 18.4756 11.3163 18.9865C11.9414 19.4975 12.3706 20.2088 12.5313 21H14.0713C14.2568 20.0905 14.796 19.2919 15.5702 18.78C16.3445 18.268 17.2904 18.0846 18.1999 18.27V6.64999C18.1999 6.37152 18.0893 6.10444 17.8924 5.90753C17.6954 5.71062 17.4284 5.59999 17.1499 5.59999H13.8809C13.7762 5.30459 13.6068 5.0363 13.3852 4.81468C13.1636 4.59307 12.8953 4.42372 12.5999 4.31899ZM19.5999 18.9C20.2719 19.404 20.7577 20.146 20.9299 21H23.0999C23.2856 21 23.4636 20.9262 23.5949 20.795C23.7262 20.6637 23.7999 20.4856 23.7999 20.3V15.4H19.5999V18.9ZM19.5999 14H23.3687L21.4619 10.1864C21.4037 10.0703 21.3144 9.97262 21.2038 9.90438C21.0933 9.83614 20.966 9.8 20.8361 9.79999H19.5999V14ZM9.0999 19.6C8.54295 19.6 8.0088 19.8212 7.61498 20.2151C7.22115 20.6089 6.9999 21.143 6.9999 21.7C6.9999 22.2569 7.22115 22.7911 7.61498 23.1849C8.0088 23.5787 8.54295 23.8 9.0999 23.8C9.65686 23.8 10.191 23.5787 10.5848 23.1849C10.9787 22.7911 11.1999 22.2569 11.1999 21.7C11.1999 21.143 10.9787 20.6089 10.5848 20.2151C10.191 19.8212 9.65686 19.6 9.0999 19.6ZM15.3999 21.7C15.3999 21.9758 15.4542 22.2488 15.5598 22.5036C15.6653 22.7584 15.82 22.9899 16.015 23.1849C16.21 23.3799 16.4415 23.5346 16.6963 23.6401C16.9511 23.7457 17.2241 23.8 17.4999 23.8C17.7757 23.8 18.0488 23.7457 18.3035 23.6401C18.5583 23.5346 18.7898 23.3799 18.9848 23.1849C19.1798 22.9899 19.3345 22.7584 19.4401 22.5036C19.5456 22.2488 19.5999 21.9758 19.5999 21.7C19.5999 21.143 19.3787 20.6089 18.9848 20.2151C18.591 19.8212 18.0569 19.6 17.4999 19.6C16.9429 19.6 16.4088 19.8212 16.015 20.2151C15.6212 20.6089 15.3999 21.143 15.3999 21.7Z" fill="white"/>
</svg>
