<svg width="17" height="14" viewBox="0 0 17 14" fill="none" xmlns="http://www.w3.org/2000/svg">
<path d="M15.9375 13.8125H1.0625C0.774742 13.8125 0.525718 13.76 0.315431 13.6548C0.105144 13.5497 0 13.4252 0 13.2813V4.78126C0 4.7702 0.0166016 4.71486 0.0498048 4.61525L1.94239 0.41504C1.97559 0.304363 2.08627 0.20752 2.27442 0.124512C2.46257 0.041504 2.66733 0 2.88868 0H14.211C14.4434 0 14.6509 0.041504 14.8335 0.124512C15.0162 0.20752 15.1296 0.304363 15.1739 0.41504L16.9668 4.61525C16.989 4.68165 17 4.73699 17 4.78126V13.2813C17 13.4252 16.8949 13.5497 16.6846 13.6548C16.4743 13.76 16.2253 13.8125 15.9375 13.8125ZM5.31251 1.0625H5.06349C4.91961 1.32813 4.66782 1.57162 4.30812 1.79297C3.94842 2.01433 3.57488 2.12501 3.18751 2.12501H2.24122L1.80958 3.18751H3.18751C3.75196 3.18751 4.1089 3.23455 4.25831 3.32862C4.40773 3.4227 4.45477 3.63575 4.39943 3.96778L4.34962 4.25001H5.31251V1.0625ZM5.31251 5.31251H1.0625V6.10939C1.0625 6.18687 1.11507 6.25051 1.22022 6.30031C1.32536 6.35012 1.44987 6.37502 1.59375 6.37502H5.31251V5.31251ZM5.31251 7.43752H1.0625V8.2344C1.0625 8.31187 1.11507 8.37551 1.22022 8.42532C1.32536 8.47512 1.44987 8.50002 1.59375 8.50002H5.31251V7.43752ZM5.31251 9.56253H1.0625V10.3594C1.0625 10.4369 1.11507 10.5005 1.22022 10.5503C1.32536 10.6001 1.44987 10.625 1.59375 10.625H5.31251V9.56253ZM5.31251 11.6875H1.0625V12.4844C1.0625 12.5619 1.11507 12.6255 1.22022 12.6753C1.32536 12.7251 1.44987 12.75 1.59375 12.75H5.31251V11.6875ZM10.625 9.03128C10.625 8.88739 10.5725 8.76288 10.4673 8.65774C10.3622 8.5526 10.2377 8.50002 10.0938 8.50002H7.43752V7.43752H10.0938C10.3151 7.43752 10.4756 7.33791 10.5752 7.13869C10.5088 6.91734 10.3815 6.73472 10.1934 6.59084C10.0052 6.44696 9.79495 6.37502 9.56253 6.37502V5.84377C9.56253 5.69989 9.50996 5.57537 9.40481 5.47023C9.29967 5.36509 9.17516 5.31251 9.03128 5.31251C8.88739 5.31251 8.76288 5.36509 8.65774 5.47023C8.5526 5.57537 8.50002 5.69989 8.50002 5.84377V6.37502H7.43752C7.14976 6.37502 6.90074 6.48016 6.69045 6.69045C6.48016 6.90074 6.37502 7.14976 6.37502 7.43752V9.03128C6.37502 9.17516 6.42759 9.29967 6.53273 9.40481C6.63788 9.50996 6.76239 9.56253 6.90627 9.56253H9.56253V10.625H6.90627C6.68491 10.625 6.52443 10.7302 6.42482 10.9405C6.5023 11.1618 6.63234 11.3417 6.81496 11.48C6.99758 11.6184 7.2051 11.6875 7.43752 11.6875V12.2188C7.43752 12.3627 7.49009 12.4872 7.59524 12.5923C7.70038 12.6975 7.82489 12.75 7.96877 12.75C8.11265 12.75 8.23716 12.6975 8.34231 12.5923C8.44745 12.4872 8.50002 12.3627 8.50002 12.2188V11.6875H9.56253C9.86136 11.6875 10.1131 11.5852 10.3179 11.3804C10.5227 11.1757 10.625 10.9239 10.625 10.625V9.03128ZM14.7754 2.12501H13.8125C13.4252 2.12501 13.0627 2.0171 12.7251 1.80127C12.3876 1.58545 12.1524 1.3392 12.0196 1.0625H11.6875V4.25001H12.667L12.6338 3.96778C12.5785 3.64682 12.6947 3.43653 12.9825 3.33692C13.2702 3.23731 13.724 3.18751 14.3438 3.18751H15.1905L14.7754 2.12501ZM15.9375 5.31251H11.6875V6.37502H15.4063C15.5502 6.37502 15.6747 6.35012 15.7798 6.30031C15.885 6.25051 15.9375 6.18687 15.9375 6.10939V5.31251ZM15.9375 7.43752H11.6875V8.50002H15.4063C15.5502 8.50002 15.6747 8.47512 15.7798 8.42532C15.885 8.37551 15.9375 8.31187 15.9375 8.2344V7.43752ZM15.9375 9.56253H11.6875V10.625H15.4063C15.5502 10.625 15.6747 10.6001 15.7798 10.5503C15.885 10.5005 15.9375 10.4369 15.9375 10.3594V9.56253ZM15.9375 11.6875H11.6875V12.75H15.4063C15.5502 12.75 15.6747 12.7251 15.7798 12.6753C15.885 12.6255 15.9375 12.5619 15.9375 12.4844V11.6875Z" fill="#3399FF"/>
</svg>
