<svg width="20" height="20" viewBox="0 0 20 20" fill="none" xmlns="http://www.w3.org/2000/svg">
<path d="M20 11.4286V10H15.7143V17.1429H17.1429V14.2857H19.2857V12.8571H17.1429V11.4286H20Z" fill="white"/>
<path d="M12.1429 17.1429H9.28571V10H12.1429C12.711 10.0006 13.2557 10.2265 13.6575 10.6283C14.0592 11.03 14.2851 11.5747 14.2857 12.1429V15C14.2851 15.5681 14.0592 16.1129 13.6575 16.5146C13.2557 16.9163 12.711 17.1423 12.1429 17.1429ZM10.7143 15.7143H12.1429C12.3322 15.7141 12.5138 15.6388 12.6477 15.5049C12.7816 15.371 12.857 15.1894 12.8571 15V12.1429C12.857 11.9535 12.7816 11.7719 12.6477 11.638C12.5138 11.5041 12.3322 11.4288 12.1429 11.4286H10.7143V15.7143Z" fill="white"/>
<path d="M6.42857 10H2.85714V17.1429H4.28571V15H6.42857C6.80728 14.9994 7.17031 14.8487 7.4381 14.581C7.70588 14.3132 7.85658 13.9501 7.85714 13.5714V11.4286C7.85676 11.0498 7.70613 10.6867 7.43831 10.4188C7.17048 10.151 6.80734 10.0004 6.42857 10ZM4.28571 13.5714V11.4286H6.42857L6.42929 13.5714H4.28571Z" fill="white"/>
<path d="M14.2857 8.57167V5.71453C14.2882 5.62065 14.2704 5.52735 14.2334 5.44103C14.1964 5.35472 14.1411 5.27744 14.0714 5.21453L9.07143 0.214529C9.00854 0.144775 8.93127 0.0894932 8.84495 0.0524979C8.75863 0.0155027 8.66531 -0.00232559 8.57143 0.000242886H1.42857C1.05004 0.00137341 0.687332 0.152246 0.419668 0.419911C0.152003 0.687575 0.00113052 1.05028 0 1.42881V18.5717C0 18.9506 0.15051 19.3139 0.418419 19.5818C0.686328 19.8497 1.04969 20.0002 1.42857 20.0002H12.8571V18.5717H1.42857V1.42881H7.14286V5.71453C7.14399 6.09306 7.29486 6.45577 7.56252 6.72343C7.83019 6.9911 8.1929 7.14197 8.57143 7.1431H12.8571V8.57167H14.2857ZM8.57143 5.71453V1.71453L12.5714 5.71453H8.57143Z" fill="white"/>
</svg>
