<svg width="24" height="24" viewBox="0 0 24 24" fill="none" xmlns="http://www.w3.org/2000/svg">
<path d="M3.89062 12.0317H9.89062C10.4406 12.0317 10.8906 11.5817 10.8906 11.0317V3.03174C10.8906 2.48174 10.4406 2.03174 9.89062 2.03174H3.89062C3.34062 2.03174 2.89062 2.48174 2.89062 3.03174V11.0317C2.89062 11.5817 3.34062 12.0317 3.89062 12.0317ZM3.89062 20.0317H9.89062C10.4406 20.0317 10.8906 19.5817 10.8906 19.0317V15.0317C10.8906 14.4817 10.4406 14.0317 9.89062 14.0317H3.89062C3.34062 14.0317 2.89062 14.4817 2.89062 15.0317V19.0317C2.89062 19.5817 3.34062 20.0317 3.89062 20.0317ZM13.8906 20.0317H19.8906C20.4406 20.0317 20.8906 19.5817 20.8906 19.0317V11.0317C20.8906 10.4817 20.4406 10.0317 19.8906 10.0317H13.8906C13.3406 10.0317 12.8906 10.4817 12.8906 11.0317V19.0317C12.8906 19.5817 13.3406 20.0317 13.8906 20.0317ZM12.8906 3.03174V7.03174C12.8906 7.58174 13.3406 8.03174 13.8906 8.03174H19.8906C20.4406 8.03174 20.8906 7.58174 20.8906 7.03174V3.03174C20.8906 2.48174 20.4406 2.03174 19.8906 2.03174H13.8906C13.3406 2.03174 12.8906 2.48174 12.8906 3.03174Z" fill="white"/>
</svg>
