<svg width="24" height="24" viewBox="0 0 24 24" fill="none" xmlns="http://www.w3.org/2000/svg">
<path d="M5.1311 11.4397L11.4394 5.13227L9.37135 3.06417L6.48014 5.95538C6.44566 5.98993 6.40471 6.01733 6.35963 6.03603C6.31455 6.05473 6.26622 6.06436 6.21741 6.06436C6.1686 6.06436 6.12028 6.05473 6.07519 6.03603C6.03011 6.01733 5.98916 5.98993 5.95468 5.95538L5.42922 5.42992C5.28391 5.28461 5.28391 5.0493 5.42922 4.90446L8.32043 2.01325L6.74358 0.435931C6.1628 -0.144842 5.22157 -0.144842 4.64079 0.435931L0.435699 4.64103C-0.144604 5.2218 -0.145073 6.16303 0.435699 6.74381L5.1311 11.4397ZM23.3404 5.96476C24.2197 5.08539 24.2193 3.65995 23.3404 2.78058L21.2193 0.659521C20.3399 -0.219841 18.914 -0.219841 18.0342 0.659521L15.877 2.81621L21.1832 8.12238L23.3404 5.96476ZM14.8163 3.87744L0.894599 17.7972L0.0152369 22.8334C-0.103355 23.5126 0.488199 24.1042 1.16788 23.9846L6.20452 23.1015L20.1224 9.18314L14.8163 3.87744ZM23.5644 17.2568L21.9876 15.6799L19.0964 18.5711C18.9511 18.7164 18.7157 18.7164 18.5709 18.5711L18.0454 18.0457C17.9006 17.9004 17.9006 17.6651 18.0454 17.5202L20.9366 14.629L18.8676 12.56L12.5593 18.8674L17.2565 23.5642C17.8373 24.145 18.7786 24.145 19.3593 23.5642L23.5644 19.3596C24.1452 18.7788 24.1452 17.8375 23.5644 17.2568Z" fill="white"/>
</svg>
