<svg width="42" height="42" viewBox="0 0 42 42" fill="none" xmlns="http://www.w3.org/2000/svg">
<path d="M21.0008 41.9983C15.4315 41.9983 10.0903 39.7859 6.15219 35.8478C2.21408 31.9097 0.00167718 26.5685 0.00167718 20.9992C0.00167718 15.4298 2.21408 10.0886 6.15219 6.15051C10.0903 2.21241 15.4315 0 21.0008 0C26.5702 0 31.9114 2.21241 35.8495 6.15051C39.7876 10.0886 42 15.4298 42 20.9992C42 26.5685 39.7876 31.9097 35.8495 35.8478C31.9114 39.7859 26.5702 41.9983 21.0008 41.9983ZM30.188 22.3116C30.5361 22.3116 30.8699 22.1733 31.116 21.9272C31.3621 21.6811 31.5004 21.3472 31.5004 20.9992C31.5004 20.6511 31.3621 20.3173 31.116 20.0711C30.8699 19.825 30.5361 19.6867 30.188 19.6867H14.982L20.6176 14.0537C20.864 13.8072 21.0025 13.473 21.0025 13.1245C21.0025 12.776 20.864 12.4417 20.6176 12.1953C20.3712 11.9488 20.0369 11.8104 19.6884 11.8104C19.3399 11.8104 19.0056 11.9488 18.7592 12.1953L10.8845 20.0699C10.7623 20.1919 10.6653 20.3367 10.5991 20.4961C10.533 20.6556 10.4989 20.8265 10.4989 20.9992C10.4989 21.1718 10.533 21.3427 10.5991 21.5022C10.6653 21.6616 10.7623 21.8065 10.8845 21.9284L18.7592 29.8031C19.0056 30.0495 19.3399 30.188 19.6884 30.188C20.0369 30.188 20.3712 30.0495 20.6176 29.8031C20.864 29.5566 21.0025 29.2224 21.0025 28.8738C21.0025 28.5253 20.864 28.1911 20.6176 27.9446L14.982 22.3116H30.188Z" fill="#C0C4C6"/>
</svg>
