<svg width="20" height="18" viewBox="0 0 20 18" fill="none" xmlns="http://www.w3.org/2000/svg">
<path d="M19.3688 14.8466L16.8331 12.3957L19.3688 9.94479" stroke="white" stroke-width="1.2" stroke-linecap="round" stroke-linejoin="round"/>
<path d="M15.3114 14.8466L12.7756 12.3957L15.3114 9.94479" stroke="white" stroke-width="1.2" stroke-linecap="round" stroke-linejoin="round"/>
<path d="M19.2583 7.98399V1.61158C19.2583 1.35157 19.155 1.10221 18.9711 0.918355C18.7873 0.7345 18.5379 0.631211 18.2779 0.631211H1.61158C1.35157 0.631211 1.10221 0.7345 0.918355 0.918355C0.7345 1.10221 0.631211 1.35157 0.631211 1.61158V16.3171C0.631211 16.5772 0.7345 16.8265 0.918355 17.0104C1.10221 17.1942 1.35157 17.2975 1.61158 17.2975H12.1359" stroke="white" stroke-width="1.2" stroke-linecap="round" stroke-linejoin="round"/>
<mask id="path-4-inside-1_261_4863" fill="white">
<path d="M9.94196 10.8614L9.94245 10.9065C9.94324 11.531 9.70932 12.1331 9.28708 12.5932L9.28855 12.5913C8.8487 13.0757 8.25386 13.3919 7.60623 13.4854L7.59103 13.4873V14.6442C7.59103 14.6979 7.5697 14.7494 7.53174 14.7873C7.49377 14.8253 7.44228 14.8466 7.38859 14.8466H7.38025H7.38074H6.49498C6.4394 14.846 6.38628 14.8236 6.34698 14.7843C6.30769 14.745 6.28533 14.6919 6.28469 14.6363V13.4873C5.9893 13.4479 5.69905 13.3766 5.41902 13.2746L5.44794 13.2839C5.02966 13.144 4.63719 12.9363 4.2862 12.6692L4.29601 12.6766C4.1888 12.599 4.08588 12.5157 3.98768 12.4271L3.99111 12.43C3.93654 12.3777 3.8983 12.3385 3.87641 12.3124C3.84097 12.2771 3.82005 12.2299 3.81778 12.1799C3.81551 12.13 3.83206 12.0811 3.86415 12.0428L3.86366 12.0432L4.53963 11.157C4.55759 11.1339 4.58033 11.1149 4.6063 11.1013C4.63228 11.0878 4.66086 11.08 4.69012 11.0786H4.69061C4.71967 11.0732 4.74965 11.0759 4.77729 11.0864C4.80494 11.0968 4.8292 11.1146 4.84746 11.1379L4.84795 11.1384L4.8607 11.1511C5.30391 11.5569 5.84633 11.8386 6.43321 11.9678L6.45576 11.9722C6.60184 12.0055 6.76948 12.0246 6.94154 12.0246L6.97193 12.0251C7.31065 12.0251 7.62437 11.9192 7.88269 11.7388L7.8773 11.7423C8.0076 11.6542 8.11314 11.5342 8.18385 11.3937C8.25456 11.2532 8.28808 11.097 8.28121 10.9398V10.9418C8.28121 10.8129 8.24445 10.6928 8.18122 10.5913L8.18269 10.5943C8.12293 10.493 8.04916 10.4008 7.96357 10.3202L7.96308 10.3198C7.84914 10.2242 7.72385 10.143 7.59005 10.0781L7.57927 10.0732C7.40411 9.98365 7.26032 9.91356 7.14791 9.8629C7.03549 9.81225 6.86049 9.74117 6.62292 9.64967C6.45233 9.57974 6.31769 9.525 6.219 9.48546C6.12031 9.44592 5.98568 9.38791 5.81509 9.31144C5.64451 9.23498 5.50774 9.16717 5.40481 9.10802C5.30187 9.04887 5.17818 8.97126 5.03374 8.87518C4.9072 8.79365 4.78884 8.70008 4.68031 8.59577L4.6808 8.59626C4.5823 8.49659 4.48904 8.39188 4.4014 8.28255L4.39502 8.2747C4.3022 8.16218 4.22518 8.0375 4.16611 7.90412L4.16219 7.89383C4.10525 7.75844 4.06015 7.61838 4.02738 7.47521L4.02395 7.45756C3.98645 7.29322 3.9677 7.12516 3.96807 6.95659V6.94483V6.93012C3.96807 6.31739 4.21365 5.76152 4.61218 5.35663L4.61169 5.35712C5.05589 4.89531 5.63638 4.58797 6.26802 4.48018L6.28567 4.47773V3.29393V3.29197C6.28567 3.23462 6.30969 3.18266 6.34792 3.14589C6.36682 3.12621 6.3895 3.11054 6.4146 3.09985C6.4397 3.08915 6.46671 3.08364 6.494 3.08364H7.38957C7.50133 3.08364 7.59201 3.17432 7.59201 3.28609V3.29442V3.29393V4.4493C7.86162 4.47773 8.10769 4.53116 8.34347 4.60763L8.31749 4.60027C8.54248 4.6689 8.73169 4.7439 8.91355 4.83115L8.88806 4.82037C9.04884 4.90027 9.18561 4.98213 9.31502 5.0733L9.30521 5.06644C9.43593 5.15859 9.52122 5.22199 9.56109 5.25663C9.60096 5.29127 9.6338 5.32183 9.65962 5.3483C9.69488 5.37865 9.71768 5.42096 9.72365 5.4671C9.72962 5.51324 9.71834 5.55996 9.69197 5.59829L9.69246 5.5978L9.16208 6.5566C9.14884 6.58607 9.12785 6.6114 9.10135 6.62987C9.07484 6.64835 9.04382 6.65928 9.01159 6.6615H9.0111C8.97997 6.66798 8.94777 6.66719 8.91699 6.6592C8.88622 6.6512 8.8577 6.63623 8.83365 6.61543H8.83414C8.82107 6.60235 8.78937 6.57621 8.73905 6.537C8.68872 6.49778 8.60343 6.43978 8.48317 6.36298C8.36649 6.28819 8.24517 6.2209 8.11994 6.16151L8.09936 6.15269C7.94847 6.08331 7.79163 6.0277 7.63074 5.98652L7.61015 5.98211C7.42742 5.93209 7.23883 5.9067 7.04938 5.90662H7.04889C6.68587 5.88999 6.3271 5.99034 6.02538 6.19289L6.03175 6.18896C5.86487 6.29985 5.74068 6.4642 5.67957 6.65501C5.61846 6.84582 5.62407 7.05174 5.69549 7.23894L5.69352 7.23306C5.73862 7.3409 5.80431 7.43207 5.88666 7.50511L5.88764 7.5056C5.96656 7.57962 6.05087 7.6507 6.1391 7.71687L6.14695 7.72226C6.25234 7.79481 6.37341 7.86295 6.50037 7.91981L6.51508 7.92569C6.67912 8.00216 6.81147 8.06131 6.91213 8.10314C7.01278 8.14497 7.16604 8.2051 7.37192 8.28353C7.60394 8.37111 7.78123 8.44006 7.90377 8.49038C8.02632 8.54071 8.19265 8.61734 8.40278 8.72028C8.57978 8.8034 8.75034 8.89958 8.91306 9.00802L8.89885 8.9992C9.05081 9.10704 9.18316 9.21488 9.30913 9.33007L9.30619 9.32713C9.44197 9.44576 9.55766 9.58301 9.64981 9.73644L9.65422 9.74428C9.7356 9.8879 9.80569 10.0551 9.85667 10.2301L9.86108 10.2467C9.91451 10.4256 9.9449 10.6315 9.9449 10.8443V10.8648V10.8639L9.94196 10.8614Z"/>
</mask>
<path d="M9.94196 10.8614L9.94245 10.9065C9.94324 11.531 9.70932 12.1331 9.28708 12.5932L9.28855 12.5913C8.8487 13.0757 8.25386 13.3919 7.60623 13.4854L7.59103 13.4873V14.6442C7.59103 14.6979 7.5697 14.7494 7.53174 14.7873C7.49377 14.8253 7.44228 14.8466 7.38859 14.8466H7.38025H7.38074H6.49498C6.4394 14.846 6.38628 14.8236 6.34698 14.7843C6.30769 14.745 6.28533 14.6919 6.28469 14.6363V13.4873C5.9893 13.4479 5.69905 13.3766 5.41902 13.2746L5.44794 13.2839C5.02966 13.144 4.63719 12.9363 4.2862 12.6692L4.29601 12.6766C4.1888 12.599 4.08588 12.5157 3.98768 12.4271L3.99111 12.43C3.93654 12.3777 3.8983 12.3385 3.87641 12.3124C3.84097 12.2771 3.82005 12.2299 3.81778 12.1799C3.81551 12.13 3.83206 12.0811 3.86415 12.0428L3.86366 12.0432L4.53963 11.157C4.55759 11.1339 4.58033 11.1149 4.6063 11.1013C4.63228 11.0878 4.66086 11.08 4.69012 11.0786H4.69061C4.71967 11.0732 4.74965 11.0759 4.77729 11.0864C4.80494 11.0968 4.8292 11.1146 4.84746 11.1379L4.84795 11.1384L4.8607 11.1511C5.30391 11.5569 5.84633 11.8386 6.43321 11.9678L6.45576 11.9722C6.60184 12.0055 6.76948 12.0246 6.94154 12.0246L6.97193 12.0251C7.31065 12.0251 7.62437 11.9192 7.88269 11.7388L7.8773 11.7423C8.0076 11.6542 8.11314 11.5342 8.18385 11.3937C8.25456 11.2532 8.28808 11.097 8.28121 10.9398V10.9418C8.28121 10.8129 8.24445 10.6928 8.18122 10.5913L8.18269 10.5943C8.12293 10.493 8.04916 10.4008 7.96357 10.3202L7.96308 10.3198C7.84914 10.2242 7.72385 10.143 7.59005 10.0781L7.57927 10.0732C7.40411 9.98365 7.26032 9.91356 7.14791 9.8629C7.03549 9.81225 6.86049 9.74117 6.62292 9.64967C6.45233 9.57974 6.31769 9.525 6.219 9.48546C6.12031 9.44592 5.98568 9.38791 5.81509 9.31144C5.64451 9.23498 5.50774 9.16717 5.40481 9.10802C5.30187 9.04887 5.17818 8.97126 5.03374 8.87518C4.9072 8.79365 4.78884 8.70008 4.68031 8.59577L4.6808 8.59626C4.5823 8.49659 4.48904 8.39188 4.4014 8.28255L4.39502 8.2747C4.3022 8.16218 4.22518 8.0375 4.16611 7.90412L4.16219 7.89383C4.10525 7.75844 4.06015 7.61838 4.02738 7.47521L4.02395 7.45756C3.98645 7.29322 3.9677 7.12516 3.96807 6.95659V6.94483V6.93012C3.96807 6.31739 4.21365 5.76152 4.61218 5.35663L4.61169 5.35712C5.05589 4.89531 5.63638 4.58797 6.26802 4.48018L6.28567 4.47773V3.29393V3.29197C6.28567 3.23462 6.30969 3.18266 6.34792 3.14589C6.36682 3.12621 6.3895 3.11054 6.4146 3.09985C6.4397 3.08915 6.46671 3.08364 6.494 3.08364H7.38957C7.50133 3.08364 7.59201 3.17432 7.59201 3.28609V3.29442V3.29393V4.4493C7.86162 4.47773 8.10769 4.53116 8.34347 4.60763L8.31749 4.60027C8.54248 4.6689 8.73169 4.7439 8.91355 4.83115L8.88806 4.82037C9.04884 4.90027 9.18561 4.98213 9.31502 5.0733L9.30521 5.06644C9.43593 5.15859 9.52122 5.22199 9.56109 5.25663C9.60096 5.29127 9.6338 5.32183 9.65962 5.3483C9.69488 5.37865 9.71768 5.42096 9.72365 5.4671C9.72962 5.51324 9.71834 5.55996 9.69197 5.59829L9.69246 5.5978L9.16208 6.5566C9.14884 6.58607 9.12785 6.6114 9.10135 6.62987C9.07484 6.64835 9.04382 6.65928 9.01159 6.6615H9.0111C8.97997 6.66798 8.94777 6.66719 8.91699 6.6592C8.88622 6.6512 8.8577 6.63623 8.83365 6.61543H8.83414C8.82107 6.60235 8.78937 6.57621 8.73905 6.537C8.68872 6.49778 8.60343 6.43978 8.48317 6.36298C8.36649 6.28819 8.24517 6.2209 8.11994 6.16151L8.09936 6.15269C7.94847 6.08331 7.79163 6.0277 7.63074 5.98652L7.61015 5.98211C7.42742 5.93209 7.23883 5.9067 7.04938 5.90662H7.04889C6.68587 5.88999 6.3271 5.99034 6.02538 6.19289L6.03175 6.18896C5.86487 6.29985 5.74068 6.4642 5.67957 6.65501C5.61846 6.84582 5.62407 7.05174 5.69549 7.23894L5.69352 7.23306C5.73862 7.3409 5.80431 7.43207 5.88666 7.50511L5.88764 7.5056C5.96656 7.57962 6.05087 7.6507 6.1391 7.71687L6.14695 7.72226C6.25234 7.79481 6.37341 7.86295 6.50037 7.91981L6.51508 7.92569C6.67912 8.00216 6.81147 8.06131 6.91213 8.10314C7.01278 8.14497 7.16604 8.2051 7.37192 8.28353C7.60394 8.37111 7.78123 8.44006 7.90377 8.49038C8.02632 8.54071 8.19265 8.61734 8.40278 8.72028C8.57978 8.8034 8.75034 8.89958 8.91306 9.00802L8.89885 8.9992C9.05081 9.10704 9.18316 9.21488 9.30913 9.33007L9.30619 9.32713C9.44197 9.44576 9.55766 9.58301 9.64981 9.73644L9.65422 9.74428C9.7356 9.8879 9.80569 10.0551 9.85667 10.2301L9.86108 10.2467C9.91451 10.4256 9.9449 10.6315 9.9449 10.8443V10.8648V10.8639L9.94196 10.8614Z" fill="#6E768C" stroke="white" stroke-width="2" mask="url(#path-4-inside-1_261_4863)"/>
</svg>
